<svg width="41" height="36" viewBox="0 0 41 36" fill="none" xmlns="http://www.w3.org/2000/svg">
<circle cx="20.5907" cy="17.9931" r="5.00869" fill="#2D78AC"/>
<path d="M34.1274 17.718C34.1274 17.9187 34.13 18.2044 34.13 18.4519V18.5012C34.13 18.5977 34.13 18.6882 34.1274 18.7594V18.765C34.1244 18.8748 34.1192 18.9932 34.1162 19.1167C34.0313 21.9034 33.6354 24.3328 32.9401 26.4023C32.2448 28.4718 31.2557 30.1837 29.972 31.5579C28.8014 32.8112 27.4135 33.7948 25.7948 34.5205C24.179 35.2432 22.3265 35.7074 20.2381 35.8973C20.2214 35.8999 20.2051 35.9051 20.1884 35.9081C19.4768 35.966 18.7373 36.0016 17.9734 36.0016H16.2144C13.5543 36.0016 11.2239 35.6276 9.22304 34.8941C7.21994 34.1602 5.54331 33.0694 4.16648 31.6099C2.79262 30.1588 1.75377 28.3205 1.05552 26.0695C0.354679 23.819 0 21.1558 0 18.0834C0 14.9918 0.354679 12.3094 1.05552 10.0395C1.75377 7.76962 2.79262 5.91195 4.16648 4.44163C5.54628 2.96573 7.22253 1.86122 9.22601 1.11919C11.0343 0.4484 13.112 0.0773883 15.4616 0.0117188C15.0769 0.148994 14.6973 0.294801 14.3349 0.456935C12.59 1.22642 11.0729 2.28974 9.8033 3.63393C8.3467 5.17252 7.24997 7.0966 6.51091 9.38316C5.77185 11.6697 5.38712 14.3188 5.34334 17.3307C5.34037 17.5202 5.3374 17.718 5.3374 17.9187C5.3374 18.1194 5.34037 18.3146 5.34334 18.5068V18.5094C5.37339 20.0732 5.5244 21.4853 5.79116 22.7471C5.89022 23.2417 6.00263 23.7143 6.13768 24.1621C6.55507 25.5471 7.1513 26.7043 7.94007 27.6193C8.81159 28.6332 9.95987 29.3894 11.3452 29.881C11.9882 30.1091 12.6835 30.2824 13.4281 30.4033C13.483 30.4115 13.5383 30.4226 13.5928 30.4308C13.6259 30.4364 13.6589 30.439 13.6893 30.4445C14.4643 30.5573 15.2861 30.6122 16.1655 30.6152H17.9241C18.1385 30.6152 18.3526 30.6122 18.5618 30.6041C19.2022 30.5877 19.8121 30.5354 20.392 30.4501H20.395C21.6316 30.2768 22.7309 29.9555 23.6981 29.4799C24.6654 29.0042 25.4928 28.3724 26.1658 27.5918C27.051 26.5722 27.6936 25.2529 28.1173 23.659C28.5406 22.0622 28.7462 20.1882 28.7462 18.0252C28.7462 15.8681 28.5428 13.9908 28.1225 12.3913C27.7047 10.7945 27.0699 9.46998 26.1984 8.43671C25.5306 7.65053 24.7066 7.01313 23.736 6.53229C23.7004 6.51597 23.6618 6.50187 23.6262 6.48294H24.4094C25.2694 6.48294 26.0663 6.54045 26.8028 6.64508C26.8221 6.64768 26.844 6.65064 26.8659 6.65324C26.9156 6.6614 26.9653 6.67254 27.0143 6.6807C27.1352 6.69999 27.2536 6.72151 27.3716 6.74377C27.4406 6.7575 27.5088 6.77122 27.5778 6.78495C27.5971 6.79052 27.6164 6.79608 27.6353 6.79868L27.6765 6.80721C27.7121 6.815 27.7455 6.82354 27.7782 6.8317C27.8442 6.84543 27.9099 6.86175 27.9759 6.87845C28.1492 6.92223 28.3221 6.97194 28.4872 7.02129C28.5199 7.03242 28.5503 7.04058 28.5833 7.05171C28.6961 7.08733 28.8059 7.12592 28.9131 7.16413C30.1389 7.61454 31.1032 8.27457 31.8453 9.14831C32.5487 9.98347 33.1178 11.0995 33.5163 12.4952C33.6068 12.8087 33.6866 13.1412 33.7579 13.4818C33.9478 14.449 34.0683 15.5294 34.1151 16.7274C34.1181 16.8509 34.1233 16.9667 34.1262 17.0735V17.0791C34.1288 17.1503 34.1289 17.2357 34.1289 17.3321C34.13 17.4349 34.1274 17.5395 34.1274 17.718Z" fill="#07B2E4"/>
<path d="M40.6242 17.9174C40.6242 21.0064 40.2699 23.6889 39.5691 25.9587C38.8708 28.2286 37.832 30.0863 36.4581 31.5566C35.0783 33.0325 33.402 34.137 31.3986 34.879C29.568 35.558 27.4577 35.929 25.075 35.9865C25.4735 35.8463 25.8668 35.6927 26.2456 35.522C27.9908 34.7414 29.5049 33.6669 30.7745 32.3064C32.1788 30.806 33.2481 28.9454 33.9819 26.7497C34.718 24.5541 35.1251 22.0201 35.2156 19.1514V19.1458C35.2186 19.0386 35.2237 18.9206 35.2267 18.7911C35.2267 18.7885 35.2267 18.7885 35.2267 18.7885C35.2293 18.6843 35.2293 18.5908 35.2293 18.511V18.4505C35.2293 18.1949 35.2267 17.9063 35.2267 17.7167C35.2267 17.549 35.2293 17.4555 35.2293 17.3375V17.3238C35.2293 17.244 35.2293 17.1535 35.2267 17.0488V17.0462C35.2267 17.0462 35.2267 17.0462 35.2267 17.0433C35.2237 16.9171 35.2186 16.8014 35.2156 16.6945V16.6864C35.1444 14.8372 34.9051 13.2211 34.4873 11.8361C34.0725 10.4511 33.4759 9.2939 32.6849 8.37898C31.8134 7.365 30.6651 6.61184 29.2797 6.11728C27.8947 5.62272 26.2704 5.38601 24.4102 5.38304H22.6512C21.7938 5.38304 20.9861 5.43795 20.2326 5.54814H20.2299C18.996 5.72141 17.8941 6.0427 16.9268 6.51834C15.9622 6.99361 15.1322 7.62582 14.4592 8.40644C13.5769 9.42598 12.931 10.7453 12.5077 12.3392C12.0843 13.936 11.8784 15.81 11.8784 17.973C11.8784 20.1301 12.0821 22.0074 12.5025 23.6069C12.9202 25.2037 13.555 26.5283 14.4266 27.5615C15.0944 28.3477 15.9184 28.9851 16.889 29.4659C16.9246 29.4823 16.9628 29.4964 16.9988 29.5153H16.1662C14.421 29.5153 12.9343 29.2819 11.7115 28.8337C10.4882 28.383 9.52101 27.7233 8.78195 26.8496C8.07591 26.0144 7.50676 24.8984 7.10829 23.5026C6.70982 22.1069 6.48203 20.4303 6.44307 18.4899C6.44047 18.2973 6.4375 18.1081 6.4375 17.9181C6.4375 17.7256 6.44047 17.5334 6.44307 17.3438C6.48425 14.4169 6.86083 11.875 7.55908 9.72057C8.25696 7.56312 9.2739 5.79338 10.601 4.3891C11.7716 3.14954 13.1595 2.17674 14.7783 1.46216C16.397 0.744623 18.2465 0.288648 20.3379 0.0990601C21.0799 0.0330196 21.852 0 22.6516 0H24.4105C27.0707 0 29.401 0.371013 31.4019 1.10488C33.405 1.83874 35.0816 2.92953 36.4611 4.3891C37.1456 5.11443 37.7504 5.93623 38.2668 6.85968C38.7859 7.78313 39.2229 8.80565 39.572 9.92945C40.2699 12.1793 40.6242 14.8424 40.6242 17.9174Z" fill="#1E3A47"/>
</svg>
