<svg width="16" height="16" viewBox="0 0 16 16" fill="none" xmlns="http://www.w3.org/2000/svg">
<path d="M11.3335 9.33335C11.3335 9.51016 11.2633 9.67973 11.1382 9.80475C11.0132 9.92978 10.8436 10 10.6668 10H5.3335C5.15669 10 4.98712 9.92978 4.86209 9.80475C4.73707 9.67973 4.66683 9.51016 4.66683 9.33335C4.66683 9.15654 4.73707 8.98697 4.86209 8.86194C4.98712 8.73692 5.15669 8.66668 5.3335 8.66668H10.6668C10.8436 8.66668 11.0132 8.73692 11.1382 8.86194C11.2633 8.98697 11.3335 9.15654 11.3335 9.33335ZM8.66683 11.3333H5.3335C5.15669 11.3333 4.98712 11.4036 4.86209 11.5286C4.73707 11.6536 4.66683 11.8232 4.66683 12C4.66683 12.1768 4.73707 12.3464 4.86209 12.4714C4.98712 12.5964 5.15669 12.6667 5.3335 12.6667H8.66683C8.84364 12.6667 9.01321 12.5964 9.13823 12.4714C9.26326 12.3464 9.3335 12.1768 9.3335 12C9.3335 11.8232 9.26326 11.6536 9.13823 11.5286C9.01321 11.4036 8.84364 11.3333 8.66683 11.3333ZM14.6668 6.99002V12.6667C14.6658 13.5504 14.3142 14.3976 13.6894 15.0225C13.0645 15.6474 12.2172 15.999 11.3335 16H4.66683C3.7831 15.999 2.93587 15.6474 2.31098 15.0225C1.68608 14.3976 1.33455 13.5504 1.3335 12.6667V3.33335C1.33455 2.44962 1.68608 1.60239 2.31098 0.977495C2.93587 0.352603 3.7831 0.00107394 4.66683 1.53658e-05H7.67683C8.28991 -0.00156258 8.89722 0.118407 9.46365 0.352988C10.0301 0.587569 10.5444 0.932107 10.9768 1.36668L13.2995 3.69068C13.7343 4.12284 14.0791 4.63699 14.3138 5.20333C14.5485 5.76968 14.6685 6.37696 14.6668 6.99002ZM10.0342 2.30935C9.82435 2.10612 9.58879 1.9313 9.3335 1.78935V4.66668C9.3335 4.84349 9.40373 5.01306 9.52876 5.13809C9.65378 5.26311 9.82335 5.33335 10.0002 5.33335H12.8775C12.7355 5.07814 12.5604 4.84278 12.3568 4.63335L10.0342 2.30935ZM13.3335 6.99002C13.3335 6.88002 13.3122 6.77468 13.3022 6.66668H10.0002C9.46973 6.66668 8.96102 6.45597 8.58595 6.0809C8.21088 5.70582 8.00016 5.19711 8.00016 4.66668V1.36468C7.89216 1.35468 7.78616 1.33335 7.67683 1.33335H4.66683C4.1364 1.33335 3.62769 1.54406 3.25262 1.91914C2.87754 2.29421 2.66683 2.80292 2.66683 3.33335V12.6667C2.66683 13.1971 2.87754 13.7058 3.25262 14.0809C3.62769 14.456 4.1364 14.6667 4.66683 14.6667H11.3335C11.8639 14.6667 12.3726 14.456 12.7477 14.0809C13.1228 13.7058 13.3335 13.1971 13.3335 12.6667V6.99002Z" fill="#637381"/>
</svg>
