<svg width="24" height="24" viewBox="0 0 24 24" fill="none" xmlns="http://www.w3.org/2000/svg">
<g clip-path="url(#clip0_4853_4602)">
<path d="M7.5051 23.9996C5.69485 23.9984 3.94611 23.3426 2.58155 22.153C1.217 20.9635 0.328736 19.3206 0.0806626 17.5274C-0.167411 15.7342 0.241451 13.9118 1.2318 12.3965C2.22215 10.8812 3.72716 9.77517 5.4691 9.28259C6.73523 8.92002 8.07539 8.90344 9.3501 9.23459L17.2581 1.32859C17.6779 0.905875 18.1775 0.570726 18.7278 0.342588C19.2782 0.114449 19.8683 -0.00213705 20.4641 -0.000408299C21.4017 0.000386133 22.3006 0.373183 22.9636 1.03614C23.6265 1.6991 23.9993 2.59803 24.0001 3.53559C24.0016 4.13138 23.8851 4.72157 23.6571 5.27203C23.4292 5.8225 23.0944 6.32231 22.6721 6.74259L22.0001 7.41459C21.6241 7.78803 21.116 7.99822 20.5861 7.99959H19.0001V8.99959C19.0001 9.53002 18.7894 10.0387 18.4143 10.4138C18.0392 10.7889 17.5305 10.9996 17.0001 10.9996H16.0001V12.5856C16.0008 12.8483 15.9494 13.1086 15.8488 13.3513C15.7482 13.594 15.6005 13.8144 15.4141 13.9996L14.7641 14.6496C15.0971 15.9237 15.0808 17.2639 14.7171 18.5296C14.3078 19.9716 13.4774 21.2586 12.3322 22.2258C11.1871 23.193 9.77926 23.7964 8.2891 23.9586C8.02864 23.9857 7.76696 23.9993 7.5051 23.9996ZM7.5051 10.9996C6.48125 10.9986 5.47745 11.2834 4.60669 11.822C3.73593 12.3605 3.03278 13.1315 2.5764 14.048C2.12002 14.9645 1.92853 15.9902 2.02347 17.0096C2.11842 18.0291 2.49604 19.0018 3.11382 19.8182C3.7316 20.6347 4.56502 21.2625 5.52026 21.631C6.47549 21.9995 7.51463 22.0941 8.52069 21.904C9.52675 21.714 10.4598 21.2469 11.2148 20.5553C11.9698 19.8637 12.5167 18.9752 12.7941 17.9896C13.1061 16.9061 13.0711 15.7522 12.6941 14.6896C12.6326 14.5121 12.6223 14.3209 12.6644 14.1379C12.7064 13.9548 12.7992 13.7873 12.9321 13.6546L14.0001 12.5856V10.9996C14.0001 10.4692 14.2108 9.96045 14.5859 9.58538C14.961 9.21031 15.4697 8.99959 16.0001 8.99959H17.0001V7.99959C17.0001 7.46916 17.2108 6.96045 17.5859 6.58538C17.961 6.21031 18.4697 5.99959 19.0001 5.99959H20.5861L21.2581 5.32759C21.4941 5.09274 21.6811 4.81345 21.8085 4.50587C21.9358 4.19828 22.001 3.8685 22.0001 3.53559C21.9998 3.12847 21.8381 2.73809 21.5503 2.45012C21.2625 2.16215 20.8722 2.00012 20.4651 1.99959C20.132 1.99877 19.802 2.06402 19.4942 2.19155C19.1864 2.31909 18.907 2.50638 18.6721 2.74259L10.3411 11.0726C10.2081 11.2055 10.0404 11.2982 9.85719 11.3401C9.67395 11.382 9.4826 11.3715 9.3051 11.3096C8.72517 11.1054 8.11493 11.0006 7.5001 10.9996H7.5051ZM5.0001 17.9996C5.0001 18.1974 5.05875 18.3907 5.16863 18.5552C5.27851 18.7196 5.43469 18.8478 5.61742 18.9235C5.80014 18.9992 6.00121 19.019 6.19519 18.9804C6.38917 18.9418 6.56735 18.8466 6.70721 18.7067C6.84706 18.5668 6.9423 18.3887 6.98089 18.1947C7.01947 18.0007 6.99967 17.7996 6.92398 17.6169C6.84829 17.4342 6.72012 17.278 6.55567 17.1681C6.39122 17.0582 6.19788 16.9996 6.0001 16.9996C5.73488 16.9996 5.48053 17.1049 5.29299 17.2925C5.10546 17.48 5.0001 17.7344 5.0001 17.9996Z" fill="#FF6766"/>
</g>
<defs>
<clipPath id="clip0_4853_4602">
<rect width="24" height="24" fill="white"/>
</clipPath>
</defs>
</svg>
