<svg width="16" height="16" viewBox="0 0 16 16" fill="none" xmlns="http://www.w3.org/2000/svg">
<g clip-path="url(#clip0_4852_4506)">
<path d="M2.6667 4.00006C2.40387 4.00075 2.14351 3.94931 1.90068 3.84872C1.65786 3.74814 1.43739 3.6004 1.25203 3.41406L0.222701 2.49806C0.090623 2.3803 0.0107332 2.2149 0.000606265 2.03824C-0.0095207 1.86158 0.0509447 1.68813 0.168701 1.55606C0.286457 1.42398 0.451858 1.34409 0.628517 1.33396C0.805176 1.32384 0.978623 1.3843 1.1107 1.50206L2.16737 2.44472C2.22786 2.51265 2.30161 2.56749 2.38409 2.60585C2.46656 2.64421 2.55601 2.66529 2.64694 2.66779C2.73786 2.67029 2.82834 2.65415 2.9128 2.62037C2.99725 2.5866 3.0739 2.5359 3.13803 2.47139L5.5407 0.184057C5.6699 0.069037 5.83874 0.00873621 6.01157 0.0158909C6.1844 0.0230456 6.34768 0.0970955 6.46693 0.2224C6.58618 0.347705 6.65205 0.514453 6.65064 0.687424C6.64923 0.860396 6.58064 1.02605 6.45937 1.14939L4.0667 3.42539C3.88255 3.60847 3.66412 3.75346 3.4239 3.85206C3.18367 3.95067 2.92637 4.00096 2.6667 4.00006ZM16 2.66672C16 2.48991 15.9298 2.32034 15.8048 2.19532C15.6797 2.07029 15.5102 2.00006 15.3334 2.00006H8.6667C8.48989 2.00006 8.32032 2.07029 8.1953 2.19532C8.07027 2.32034 8.00003 2.48991 8.00003 2.66672C8.00003 2.84353 8.07027 3.0131 8.1953 3.13813C8.32032 3.26315 8.48989 3.33339 8.6667 3.33339H15.3334C15.5102 3.33339 15.6797 3.26315 15.8048 3.13813C15.9298 3.0131 16 2.84353 16 2.66672ZM4.0667 8.75872L6.45937 6.48272C6.52615 6.42327 6.58029 6.35099 6.61856 6.27019C6.65684 6.18938 6.67847 6.1017 6.68217 6.01237C6.68587 5.92303 6.67156 5.83387 6.64009 5.75017C6.60863 5.66648 6.56065 5.58998 6.49901 5.52521C6.43737 5.46044 6.36333 5.40873 6.2813 5.37316C6.19927 5.33758 6.11092 5.31888 6.02151 5.31815C5.9321 5.31742 5.84346 5.33468 5.76086 5.36891C5.67826 5.40314 5.60339 5.45363 5.5407 5.51739L3.1407 7.80472C3.01379 7.92608 2.84496 7.9938 2.66937 7.9938C2.49377 7.9938 2.32495 7.92608 2.19803 7.80472L1.13803 6.74806C1.0123 6.62662 0.843898 6.55942 0.6691 6.56094C0.494302 6.56246 0.327094 6.63257 0.203488 6.75618C0.0798831 6.87978 0.00977044 7.04699 0.00825149 7.22179C0.00673255 7.39659 0.0739288 7.56499 0.195368 7.69072L1.25203 8.74739C1.62515 9.12059 2.13064 9.3312 2.65837 9.33332C3.18609 9.33545 3.69326 9.12891 4.06937 8.75872H4.0667ZM16 8.00006C16 7.82325 15.9298 7.65368 15.8048 7.52865C15.6797 7.40363 15.5102 7.33339 15.3334 7.33339H8.6667C8.48989 7.33339 8.32032 7.40363 8.1953 7.52865C8.07027 7.65368 8.00003 7.82325 8.00003 8.00006C8.00003 8.17687 8.07027 8.34644 8.1953 8.47146C8.32032 8.59649 8.48989 8.66672 8.6667 8.66672H15.3334C15.5102 8.66672 15.6797 8.59649 15.8048 8.47146C15.9298 8.34644 16 8.17687 16 8.00006ZM4.0667 14.0921L6.4567 11.8161C6.52348 11.7566 6.57762 11.6843 6.6159 11.6035C6.65417 11.5227 6.6758 11.435 6.6795 11.3457C6.6832 11.2564 6.66889 11.1672 6.63742 11.0835C6.60596 10.9998 6.55798 10.9233 6.49634 10.8585C6.4347 10.7938 6.36066 10.7421 6.27863 10.7065C6.1966 10.6709 6.10825 10.6522 6.01884 10.6515C5.92944 10.6508 5.84079 10.668 5.75819 10.7022C5.67559 10.7365 5.60072 10.787 5.53803 10.8507L3.13803 13.1381C3.0739 13.2026 2.99725 13.2533 2.9128 13.287C2.82834 13.3208 2.73786 13.337 2.64694 13.3345C2.55601 13.332 2.46656 13.3109 2.38409 13.2725C2.30161 13.2342 2.22786 13.1793 2.16737 13.1114L1.1107 12.1687C0.978623 12.051 0.805176 11.9905 0.628517 12.0006C0.451858 12.0108 0.286457 12.0906 0.168701 12.2227C0.0509447 12.3548 -0.0095207 12.5282 0.000606265 12.7049C0.0107332 12.8816 0.090623 13.047 0.222701 13.1647L1.25203 14.0807C1.62515 14.4539 2.13064 14.6645 2.65837 14.6667C3.18609 14.6688 3.69326 14.4622 4.06937 14.0921H4.0667ZM16 13.3334C16 13.1566 15.9298 12.987 15.8048 12.862C15.6797 12.737 15.5102 12.6667 15.3334 12.6667H8.6667C8.48989 12.6667 8.32032 12.737 8.1953 12.862C8.07027 12.987 8.00003 13.1566 8.00003 13.3334C8.00003 13.5102 8.07027 13.6798 8.1953 13.8048C8.32032 13.9298 8.48989 14.0001 8.6667 14.0001H15.3334C15.5102 14.0001 15.6797 13.9298 15.8048 13.8048C15.9298 13.6798 16 13.5102 16 13.3334Z" fill="#637381"/>
</g>
<defs>
<clipPath id="clip0_4852_4506">
<rect width="16" height="16" fill="white"/>
</clipPath>
</defs>
</svg>
