<svg width="25" height="24" viewBox="0 0 25 24" fill="none" xmlns="http://www.w3.org/2000/svg">
<g clip-path="url(#clip0_4853_4597)">
<path d="M24.3432 22.2925L23.2494 21.2155L21.4924 19.4885L24.3249 16.6995C24.4455 16.5806 24.5337 16.4337 24.5814 16.2724C24.6291 16.1111 24.6347 15.9405 24.5978 15.7765C24.5608 15.6124 24.4825 15.4602 24.37 15.3339C24.2576 15.2075 24.1146 15.1111 23.9542 15.0535L14.8451 11.7995C14.4823 11.6704 14.0896 11.6457 13.713 11.7283C13.3364 11.8109 12.9915 11.9974 12.7186 12.2659C12.4458 12.5345 12.2562 12.874 12.1722 13.2448C12.0881 13.6155 12.1131 14.0022 12.2441 14.3595L15.5581 23.3285C15.6163 23.4865 15.714 23.6275 15.8421 23.7385C15.9703 23.8495 16.1248 23.9269 16.2914 23.9635C16.3638 23.979 16.4377 23.9867 16.5117 23.9865C16.7811 23.9864 17.0394 23.8811 17.2298 23.6935L20.0593 20.8995L21.8133 22.6265L22.9071 23.7035C23.0987 23.8857 23.3552 23.9865 23.6215 23.9842C23.8878 23.9819 24.1426 23.8767 24.3309 23.6913C24.5192 23.5059 24.626 23.2551 24.6283 22.9929C24.6306 22.7307 24.5282 22.4781 24.3432 22.2895V22.2925ZM16.9221 21.1645L14.1555 13.6745L21.7625 16.3985L16.9221 21.1645Z" fill="#699E5B"/>
<path d="M10.4219 20C8.41316 20 6.44956 19.4135 4.77937 18.3147C3.10918 17.2159 1.80743 15.6541 1.03873 13.8268C0.270026 11.9996 0.0688979 9.98891 0.460779 8.0491C0.85266 6.10929 1.81995 4.32746 3.24033 2.92894C4.6607 1.53041 6.47037 0.578004 8.44049 0.192152C10.4106 -0.193701 12.4527 0.00433284 14.3085 0.761209C16.1643 1.51809 17.7505 2.79981 18.8665 4.4443C19.9825 6.08879 20.5781 8.02219 20.5781 10C20.5781 10.2652 20.4711 10.5196 20.2807 10.7071C20.0902 10.8946 19.8319 11 19.5625 11C19.2931 11 19.0348 10.8946 18.8443 10.7071C18.6539 10.5196 18.5469 10.2652 18.5469 10C18.5469 8.41775 18.0704 6.87104 17.1776 5.55544C16.2848 4.23985 15.0158 3.21447 13.5312 2.60897C12.0465 2.00347 10.4129 1.84504 8.83677 2.15372C7.26068 2.4624 5.81294 3.22433 4.67664 4.34315C3.54034 5.46197 2.7665 6.88743 2.453 8.43928C2.13949 9.99113 2.3004 11.5997 2.91536 13.0615C3.53032 14.5233 4.57172 15.7727 5.90787 16.6518C7.24402 17.5308 8.81491 18 10.4219 18C10.6912 18 10.9496 18.1054 11.14 18.2929C11.3305 18.4804 11.4375 18.7348 11.4375 19C11.4375 19.2652 11.3305 19.5196 11.14 19.7071C10.9496 19.8946 10.6912 20 10.4219 20Z" fill="#699E5B"/>
<path d="M8.47581 15.6202C8.34234 15.6203 8.21016 15.5944 8.08683 15.5442C7.16145 15.1657 6.34512 14.5685 5.71015 13.8052C5.07518 13.042 4.64115 12.1364 4.44651 11.1686C4.25187 10.2008 4.30263 9.20062 4.59428 8.25673C4.88593 7.31284 5.40948 6.45433 6.11856 5.75722C6.82764 5.06012 7.70037 4.54594 8.65946 4.26022C9.61854 3.9745 10.6344 3.92606 11.617 4.11919C12.5997 4.31231 13.5188 4.74104 14.293 5.36741C15.0671 5.99378 15.6725 6.79846 16.0554 7.71018C16.1091 7.83199 16.1376 7.96311 16.1393 8.09588C16.1409 8.22865 16.1157 8.36041 16.0651 8.48349C16.0145 8.60656 15.9395 8.71848 15.8445 8.81271C15.7495 8.90694 15.6364 8.9816 15.5117 9.03233C15.3871 9.08306 15.2535 9.10884 15.1186 9.10818C14.9838 9.10751 14.8504 9.08041 14.7263 9.02846C14.6022 8.9765 14.4898 8.90073 14.3958 8.80557C14.3018 8.7104 14.2279 8.59775 14.1785 8.47418C13.9227 7.86692 13.5187 7.33112 13.0024 6.91419C12.4861 6.49726 11.8734 6.21206 11.2185 6.08382C10.5636 5.95559 9.88674 5.98827 9.24773 6.17898C8.60871 6.36969 8.02729 6.71255 7.55491 7.17722C7.08253 7.64188 6.73376 8.21403 6.53946 8.84303C6.34516 9.47203 6.31132 10.1385 6.44093 10.7834C6.57054 11.4284 6.85961 12.0319 7.28256 12.5407C7.70552 13.0494 8.2493 13.4477 8.86581 13.7002C9.08308 13.7887 9.26242 13.9487 9.37323 14.1529C9.48404 14.3571 9.51945 14.5929 9.47343 14.8199C9.42741 15.0469 9.3028 15.2512 9.12087 15.3979C8.93893 15.5446 8.71095 15.6245 8.47581 15.6242V15.6202Z" fill="#699E5B"/>
</g>
<defs>
<clipPath id="clip0_4853_4597">
<rect width="24.375" height="24" fill="white" transform="translate(0.265625)"/>
</clipPath>
</defs>
</svg>
