<svg width="16" height="16" viewBox="0 0 16 16" fill="none" xmlns="http://www.w3.org/2000/svg">
<g clip-path="url(#clip0_4854_4494)">
<path d="M8 0C6.41775 0 4.87104 0.469192 3.55544 1.34824C2.23985 2.22729 1.21447 3.47672 0.608967 4.93853C0.00346629 6.40034 -0.15496 8.00887 0.153721 9.56072C0.462403 11.1126 1.22433 12.538 2.34315 13.6569C3.46197 14.7757 4.88743 15.5376 6.43928 15.8463C7.99113 16.155 9.59966 15.9965 11.0615 15.391C12.5233 14.7855 13.7727 13.7602 14.6518 12.4446C15.5308 11.129 16 9.58225 16 8C15.9977 5.87897 15.1541 3.84547 13.6543 2.34568C12.1545 0.845886 10.121 0.00229405 8 0V0ZM8 14.6667C6.68146 14.6667 5.39253 14.2757 4.2962 13.5431C3.19987 12.8106 2.34539 11.7694 1.84081 10.5512C1.33622 9.33305 1.2042 7.99261 1.46144 6.6994C1.71867 5.40619 2.35361 4.21831 3.28596 3.28596C4.21831 2.35361 5.4062 1.71867 6.6994 1.46143C7.99261 1.2042 9.33305 1.33622 10.5512 1.8408C11.7694 2.34539 12.8106 3.19987 13.5431 4.2962C14.2757 5.39253 14.6667 6.68146 14.6667 8C14.6647 9.76752 13.9617 11.4621 12.7119 12.7119C11.4621 13.9617 9.76752 14.6647 8 14.6667Z" fill="#637381"/>
<path d="M7.99984 4.66626C7.34057 4.66626 6.6961 4.86176 6.14794 5.22803C5.59977 5.5943 5.17253 6.11489 4.92024 6.72398C4.66795 7.33307 4.60194 8.00329 4.73055 8.64989C4.85917 9.2965 5.17664 9.89044 5.64282 10.3566C6.10899 10.8228 6.70293 11.1403 7.34954 11.2689C7.99614 11.3975 8.66636 11.3315 9.27545 11.0792C9.88454 10.8269 10.4051 10.3997 10.7714 9.85149C11.1377 9.30333 11.3332 8.65886 11.3332 7.99959C11.3321 7.11586 10.9806 6.26863 10.3557 5.64374C9.7308 5.01885 8.88357 4.66732 7.99984 4.66626ZM7.99984 9.99959C7.60428 9.99959 7.2176 9.8823 6.8887 9.66253C6.5598 9.44277 6.30345 9.13041 6.15208 8.76496C6.0007 8.39951 5.9611 7.99738 6.03827 7.60941C6.11544 7.22145 6.30592 6.86508 6.58562 6.58538C6.86533 6.30567 7.2217 6.11519 7.60966 6.03802C7.99762 5.96085 8.39975 6.00046 8.76521 6.15183C9.13066 6.30321 9.44302 6.55955 9.66278 6.88845C9.88254 7.21735 9.99984 7.60403 9.99984 7.99959C9.99984 8.53003 9.78913 9.03873 9.41405 9.41381C9.03898 9.78888 8.53027 9.99959 7.99984 9.99959Z" fill="#637381"/>
<path d="M8.00017 8.66708C8.36836 8.66708 8.66684 8.3686 8.66684 8.00041C8.66684 7.63222 8.36836 7.33374 8.00017 7.33374C7.63197 7.33374 7.3335 7.63222 7.3335 8.00041C7.3335 8.3686 7.63197 8.66708 8.00017 8.66708Z" fill="#637381"/>
</g>
<defs>
<clipPath id="clip0_4854_4494">
<rect width="16" height="16" fill="white"/>
</clipPath>
</defs>
</svg>
