<svg width="84" height="82" viewBox="0 0 84 82" fill="none" xmlns="http://www.w3.org/2000/svg">
<path fill-rule="evenodd" clip-rule="evenodd" d="M13.4334 74.8561C13.5616 74.9005 13.4669 75.0773 13.2373 75.3001C13.1644 75.3722 12.9022 75.5247 12.8502 75.5272C12.7497 75.5314 12.6508 75.5373 12.5738 75.5331C12.5503 75.5272 12.4347 75.466 12.3157 75.4241C12.2621 75.42 12.1992 75.3998 12.1733 75.4267C12.1733 75.4267 12.1523 75.4535 12.1682 75.4317C12.2009 75.3881 12.2294 75.342 12.2545 75.2976C12.304 75.2122 12.3283 75.1954 12.3492 75.1451C12.3677 75.1083 12.3819 75.0547 12.3903 75.022C12.3987 75.0077 12.4045 74.9885 12.4062 74.9684C12.4045 74.8971 12.407 74.9583 12.4112 74.9449C12.4221 74.9876 12.4489 75.027 12.4992 75.0831C12.5662 75.1787 12.6207 75.2013 12.7338 75.2993C12.7899 75.3462 12.8486 75.3881 12.9089 75.425C12.9726 75.4669 13.048 75.4954 13.0203 75.4895L13.0086 75.5155C12.996 75.5574 12.9801 75.5892 12.965 75.6512C12.9324 75.7568 12.9047 75.9017 12.8737 76.0425C12.8611 76.1078 12.831 76.1707 12.7824 76.2318C12.6207 76.4455 12.578 76.6977 12.5788 76.954C12.5788 76.9976 12.5637 77.0395 12.6182 77.0864C12.7045 77.1618 12.6383 77.8589 12.588 77.9502C12.4556 78.1706 12.3702 78.3993 12.2663 78.6289C12.2512 78.6616 12.2713 78.6984 12.2009 78.7252C12.0359 78.7881 12.0585 78.8618 12.0417 78.9355C12.0191 79.0369 11.9873 79.1383 11.9261 79.2422C11.896 79.2933 11.8004 79.341 11.7217 79.3905C11.6513 79.434 11.4167 79.3746 11.3924 79.357C11.322 79.305 11.2064 79.3293 11.1075 79.3201C11.0749 79.3159 11.0305 79.3117 11.0045 79.3084C10.9492 79.3184 10.563 78.7261 10.5671 78.6582C10.5663 78.6515 10.5428 78.4345 10.5177 78.1991C10.4917 77.9661 10.4641 77.7198 10.4515 77.6687C10.4381 77.6159 10.4792 77.5648 10.5051 77.5154C10.5152 77.4936 10.4297 76.7706 10.4398 76.7387C10.4716 76.5921 10.4239 76.4321 10.5881 76.3005C10.6199 76.2746 10.6157 76.2427 10.6166 76.2117C10.6258 75.9461 10.7205 75.6906 10.8185 75.4208C10.8696 75.2826 10.8822 75.1343 10.935 74.9767C10.9433 74.9483 10.9735 74.929 10.9919 74.9047C11.0137 74.8737 11.0506 74.841 11.0623 74.8041C11.1268 74.6207 11.2215 74.3869 11.4871 74.1557C11.6144 74.04 11.8164 73.8934 12.0853 73.8256C12.3626 73.7485 12.6609 73.8046 12.8444 73.875C12.8863 73.8909 12.965 73.9361 13.0497 74.0032C13.1083 74.0635 13.1703 74.1389 13.2273 74.2135C13.3169 74.3559 13.3806 74.4883 13.4166 74.5235C13.4577 74.5654 13.3831 74.8427 13.4334 74.8561Z" fill="#231F20"/>
<path fill-rule="evenodd" clip-rule="evenodd" d="M27.6853 18.0639C27.8244 18.637 27.8654 19.2344 28.0137 19.8108C28.0598 20.0228 28.1587 20.2163 28.2098 20.4258C28.3991 21.1614 28.6354 21.887 28.9689 22.5505C29.123 22.8388 29.3291 23.0976 29.557 23.2962C29.867 23.5576 30.167 23.664 30.4393 23.876C30.5231 23.9464 30.5122 24.2597 30.3278 24.5463C30.1569 24.8395 29.7196 25.0808 29.3719 24.9208C28.7703 24.6418 28.3631 24.2011 28.0464 23.7654C27.7364 23.318 27.5094 22.8488 27.3795 22.352C27.222 21.7638 26.9396 21.2242 26.7779 20.6478C26.6045 20.0161 26.4738 19.3776 26.3875 18.7359C26.3464 18.3371 26.323 17.9391 26.297 17.5436C26.261 16.9429 26.2643 16.3396 26.2652 15.7448C26.2643 15.2831 26.2367 14.824 26.2987 14.3523C26.3129 14.2492 26.3238 14.1454 26.3531 14.0431C26.4721 13.6619 26.5936 13.5605 26.7804 13.548C26.824 13.5446 26.8676 13.5379 26.9061 13.5429C27.0376 13.5622 27.0837 13.7356 27.098 13.9887C27.1399 14.7402 27.2262 15.5186 27.3619 16.307C27.4624 16.8918 27.5714 17.4791 27.7188 18.0564L27.6853 18.0639Z" fill="#231F20"/>
<path fill-rule="evenodd" clip-rule="evenodd" d="M8.5962 7.82756C8.65904 7.6181 8.92379 7.73624 9.25306 8.06132C9.35863 8.16521 9.58066 8.5481 9.58485 8.62015C9.59071 8.76259 9.6016 8.89664 9.5949 8.9997C9.59155 9.0307 9.49939 9.18067 9.43906 9.33651C9.36952 9.49067 9.36282 9.6507 9.36366 9.7261C9.37455 9.87691 9.34606 9.99002 9.29579 10.176L9.11733 10.9644C9.03271 11.2996 8.86263 11.7545 8.58279 12.1173C8.46801 12.2765 8.32641 12.3996 8.17979 12.4901C7.67793 12.7842 7.32771 13.0104 7.04368 13.2802C6.99844 13.3238 6.93728 13.3539 6.93393 13.4461C6.93225 13.5215 6.74039 13.71 6.57366 13.8851C6.4086 14.0602 6.25612 14.2278 6.19998 14.2496C5.93774 14.3677 5.70733 14.5353 5.48782 14.7372C5.45431 14.7657 5.46017 14.8168 5.36466 14.8093C5.14012 14.7933 5.14179 14.9031 5.0865 14.9793C4.99517 15.0807 4.90468 15.1888 4.78906 15.2927C4.73041 15.3438 4.59971 15.3715 4.49247 15.4117C4.39444 15.4469 4.14477 15.3363 4.12298 15.3044C4.06098 15.2131 3.91771 15.2265 3.80544 15.1997C3.76774 15.1905 3.71831 15.1779 3.68898 15.1662C3.65714 15.1519 3.58593 14.883 3.51722 14.5763C3.4502 14.268 3.46528 13.9488 3.4946 13.8985C3.50968 13.8893 3.63955 13.5165 3.85404 13.1512C4.05428 12.7783 4.32155 12.4239 4.37098 12.3485C4.42041 12.2673 4.51928 12.2296 4.60641 12.1902C4.62652 12.181 4.83012 11.9305 5.04544 11.7109C5.25825 11.4856 5.46101 11.2795 5.47777 11.2711C5.67047 11.1496 5.79363 10.9686 6.04163 10.9921C6.09106 10.9963 6.11704 10.9644 6.14301 10.9401C6.36923 10.724 6.54601 10.6293 6.63901 10.5447C6.69347 10.4986 6.70436 10.393 6.7429 10.2732C6.74877 10.2489 6.7806 10.2313 6.7982 10.2095C6.82082 10.1844 6.85266 10.1559 6.8602 10.1157C6.9289 9.74286 7.13082 9.17313 7.38636 8.58664C7.43831 8.42829 8.02312 8.01691 8.12114 7.92224C8.17644 7.83845 8.57693 7.90883 8.5962 7.82756Z" fill="#231F20"/>
<path fill-rule="evenodd" clip-rule="evenodd" d="M26.3847 57.5487C26.5087 57.5697 26.6378 57.5923 26.7542 57.6124C26.7944 57.6183 26.8305 57.5923 26.8673 57.6007C27.0064 57.635 27.1346 57.6753 27.2385 57.687C27.267 57.6928 27.3022 57.6685 27.2821 57.6677C27.2678 57.6602 27.2251 57.5814 27.3139 57.589C27.3482 57.5906 27.5661 57.6434 27.8124 57.7481C28.0487 57.8462 28.2741 58.0112 28.2456 58.1009C28.2003 58.1813 28.1961 58.2291 28.104 58.3338C28.0277 58.426 27.9498 58.5257 27.8769 58.5508C27.7135 58.6446 27.587 58.648 27.4572 58.6262C27.3089 58.5927 27.215 58.6756 27.1028 58.6882C26.9838 58.7008 26.869 58.6983 26.7601 58.6991C26.6972 58.7008 26.626 58.6974 26.5707 58.7058C26.4811 58.7083 26.3814 58.7024 26.3403 58.7452C26.3202 58.7594 26.3144 58.7913 26.3353 58.8155L26.347 58.8323L26.301 58.7921C26.2767 58.7711 26.2783 58.7653 26.2599 58.7527C26.2473 58.7435 26.2322 58.736 26.2138 58.7301C26.2272 58.7368 26.239 58.7368 26.2431 58.7368C26.2431 58.7368 26.2616 58.7368 26.2356 58.7343C26.192 58.7326 26.1384 58.7309 26.0714 58.7284L25.8996 58.7326C25.7161 58.7435 25.5435 58.7075 25.4581 58.5424C25.3215 58.3053 25.4681 58.0163 25.5745 57.8889C25.6449 57.8034 25.7019 57.7565 25.7597 57.7155C25.8217 57.6711 25.8879 57.6334 25.9365 57.6133C26.1015 57.5353 26.2457 57.5186 26.3772 57.5203L26.3847 57.5487Z" fill="#231F20"/>
<path fill-rule="evenodd" clip-rule="evenodd" d="M17.6654 57.5242C18.5611 57.706 19.4886 57.7814 20.4194 57.8166C20.7596 57.8191 21.0964 57.7655 21.4374 57.768C22.6347 57.7328 23.8571 57.6591 25.0267 57.396C25.5001 57.2804 26.1486 57.0625 26.1871 56.8782C26.2994 56.6587 26.3404 56.3755 26.363 56.0546C26.3764 55.8937 26.3865 55.727 26.4108 55.5393C26.4485 55.3491 26.4468 55.1447 26.6487 54.8397C26.916 54.6018 27.0584 54.9294 27.1933 55.169C27.4095 55.3609 27.7136 55.5519 27.7053 56.027C27.6919 56.4191 27.6642 56.8933 27.4279 57.396C27.3735 57.52 27.2981 57.6423 27.216 57.7604C27.128 57.8861 26.9328 58.047 26.7711 58.1593C26.5239 58.2992 26.3404 58.3779 26.136 58.4584C25.3727 58.7483 24.6371 58.8664 23.8797 58.956C22.9798 59.0289 22.0708 59.2359 21.1534 59.2686C20.1488 59.328 19.1392 59.2677 18.138 59.1739C17.5238 59.0842 16.9072 59.0147 16.3031 58.8697C15.8448 58.7633 15.3823 58.677 14.9374 58.5145C14.4884 58.3696 14.0359 58.2464 13.6053 58.0537C12.9149 57.8174 12.2438 57.5485 11.5677 57.2376C11.4202 57.1673 11.2811 57.0877 11.1479 56.9896C10.6578 56.6227 10.5723 56.414 10.729 56.0353C10.7642 55.9482 10.7927 55.8586 10.8387 55.7806C10.9929 55.5192 11.3423 55.4581 11.721 55.5938C12.0109 55.6868 12.2614 55.8242 12.5421 55.9214C12.8202 56.0203 13.0917 56.1292 13.3573 56.2473C13.6212 56.3688 13.917 56.4375 14.1901 56.5464C14.4657 56.652 14.7439 56.7542 15.0338 56.8363C15.4577 56.9746 15.8808 57.1212 16.3274 57.2133C16.7639 57.3357 17.213 57.4228 17.6688 57.4848L17.6654 57.5242Z" fill="#231F20"/>
<path fill-rule="evenodd" clip-rule="evenodd" d="M60.874 65.2161C60.7986 66.0263 60.6922 66.8331 60.533 67.6316C60.4685 67.9215 60.4475 68.2181 60.373 68.5063C60.0948 69.5209 59.701 70.5004 59.2075 71.4186C58.9461 71.804 58.7618 72.2322 58.4828 72.5991C58.3077 72.8362 58.1577 73.0935 57.9633 73.3163C57.7606 73.5317 57.5444 73.7369 57.3115 73.9162C57.164 74.0285 57.0568 73.8718 57.0233 73.6272C56.9923 73.3817 57.0183 73.0499 57.2059 72.8111C57.846 71.9314 58.2968 70.9687 58.7827 69.9683C59.0617 69.3592 59.169 68.663 59.2804 67.9868C59.4044 67.2403 59.5016 66.4829 59.5301 65.7155C59.5619 65.2446 59.5611 64.7687 59.5686 64.2937C59.5527 63.574 59.541 62.8459 59.4379 62.132C59.3684 61.5765 59.1757 61.0487 59.0684 60.5024C59.0425 60.3818 59.0056 60.267 58.988 60.1447C58.9202 59.6889 58.993 59.5289 59.3106 59.3856C59.3835 59.3529 59.4539 59.3127 59.5276 59.2901C59.7747 59.2113 60.0144 59.3672 60.1551 59.6847C60.6042 60.6264 60.7684 61.6922 60.8572 62.7755C60.9293 63.579 60.9276 64.3984 60.9075 65.2153L60.874 65.2161Z" fill="#231F20"/>
<path fill-rule="evenodd" clip-rule="evenodd" d="M79.0684 69.8308C79.091 69.6817 79.2787 69.6482 79.5208 69.6607C79.5979 69.6649 79.7772 69.768 79.789 69.8199C79.8124 69.9213 79.8392 70.0252 79.8535 70.1241C79.8535 70.1794 79.7554 70.9971 79.768 71.292C79.7823 71.5802 79.6541 71.7956 79.5669 72.0318L79.2737 72.7373L79.1296 73.09C79.0919 73.1998 79.1153 73.178 79.1145 73.2207C79.1187 73.2433 79.0927 73.2584 79.0617 73.2844C78.931 73.3749 79.0006 73.5483 79.1162 73.6003C79.1313 73.6128 79.1472 73.6279 79.1974 73.591C79.2435 73.5575 79.3072 73.5709 79.3642 73.5659C79.4111 73.5684 79.458 73.5709 79.4974 73.5726C79.6214 73.576 79.7286 73.5835 79.7663 73.5969C80.1501 73.7209 80.5975 73.8248 81.0164 74.0351C81.075 74.0661 81.1504 74.0602 81.1831 74.1516C81.256 74.3677 81.3901 74.3761 81.4998 74.4641C81.6515 74.5797 81.7906 74.7079 81.8936 74.8662C81.9481 74.9425 81.9548 75.074 81.9724 75.1796C81.9874 75.2768 81.8165 75.4284 81.783 75.4351C81.6858 75.4544 81.6624 75.5734 81.6079 75.6504C81.5903 75.6781 81.566 75.7124 81.5476 75.7309C81.5283 75.7518 81.2937 75.7409 81.0725 75.7962C80.9619 75.8205 80.8564 75.8591 80.7768 75.8951C80.7039 75.9118 80.6519 75.9269 80.6385 75.9211C80.6385 75.9211 80.4349 75.8876 80.192 75.9001C79.9532 75.911 79.6365 75.9571 79.5669 75.9739C79.5317 75.9831 79.4957 75.9772 79.4597 75.9655C79.4036 75.9504 79.3307 75.9311 79.2712 75.9152C79.2452 75.911 78.7936 75.9186 78.3563 75.7585C77.9156 75.6144 77.5469 75.3111 77.5243 75.2868C77.2754 75.0229 76.9998 74.7347 76.9973 74.3384C76.9981 74.2621 76.9621 74.2001 76.9353 74.1348C76.7133 73.5626 76.7769 72.8789 77.061 72.3619C77.1347 72.2036 77.1749 72.1533 77.2201 72.067L77.3542 71.8249C77.371 71.7956 77.4087 71.7763 77.4338 71.752C77.4656 71.721 77.5058 71.6942 77.5251 71.6565C77.7379 71.2753 77.9985 70.9183 78.1987 70.5321C78.2582 70.4483 78.6931 70.1366 78.7442 70.0344C78.7802 69.9808 79.0634 69.892 79.0684 69.8308Z" fill="#231F20"/>
<path fill-rule="evenodd" clip-rule="evenodd" d="M69.1292 27.0519C68.4673 26.8416 67.7954 26.6406 67.1025 26.5057C66.8495 26.4512 66.5914 26.442 66.3375 26.3959C65.4436 26.2141 64.5295 26.0692 63.6062 25.9896C63.1965 25.9502 62.7817 25.9661 62.3746 25.9829C61.8492 26.0139 61.3247 26.111 60.7944 25.9862C60.4626 25.9083 60.8413 24.6616 61.4605 24.6222C62.5539 24.5644 63.664 24.6071 64.7683 24.8426C65.4276 24.9808 66.1239 24.9808 66.8017 25.0847C67.544 25.2196 68.283 25.3821 69.0069 25.6008C69.4551 25.7223 69.8925 25.8848 70.3323 26.0306C70.9934 26.2736 71.6352 26.566 72.2719 26.85C72.7679 27.0704 73.2623 27.2773 73.7398 27.5337C73.8487 27.5856 73.9459 27.6502 74.0423 27.7222C74.3942 27.997 74.4595 28.1503 74.3833 28.4134C74.3665 28.4737 74.3548 28.5357 74.3305 28.5902C74.2509 28.7687 74.0063 28.8106 73.6971 28.7268C73.2413 28.5986 72.7914 28.4679 72.3633 28.2995C71.9108 28.1788 71.5062 27.9652 71.073 27.7976C70.4421 27.527 69.7877 27.2907 69.1217 27.0855L69.1292 27.0519Z" fill="#231F20"/>
<path fill-rule="evenodd" clip-rule="evenodd" d="M71.0133 8.40513C70.8424 8.33894 70.8114 8.14205 70.8155 7.87478C70.8172 7.79015 70.9328 7.61253 70.9982 7.61169C71.123 7.61253 71.2579 7.61086 71.3819 7.62678C71.454 7.63767 72.4996 8.03648 72.8708 8.16969C73.2185 8.3071 73.5016 8.52159 73.7857 8.73523C74.368 9.16337 74.8958 9.65434 75.391 10.2015C75.5024 10.3196 75.5946 10.4603 75.6691 10.6128C75.9205 11.1532 76.269 11.5646 76.6209 12.2374C76.672 12.3396 76.6972 12.4427 76.8019 12.5139C76.8907 12.5692 77.0616 13.0007 77.1714 13.3056C77.2904 13.6341 77.3574 13.7564 77.3406 13.779C77.3725 14.0723 77.6129 14.4485 77.8718 14.8942C77.9087 14.9604 77.9841 15.0039 77.964 15.1162C77.9129 15.3701 78.0394 15.4849 78.1223 15.6415C78.2379 15.856 78.3175 16.0898 78.3427 16.3244C78.3661 16.4383 78.2539 16.5967 78.1349 16.7416C78.036 16.8706 77.8919 16.8639 77.84 16.8505C77.7336 16.7961 77.6481 16.9 77.5777 16.9301C77.5501 16.9419 77.5157 16.9569 77.4864 16.9628C77.4713 16.9662 77.3281 16.9435 77.1974 16.8966C77.1018 16.8363 76.9946 16.7575 76.8798 16.6947C76.6553 16.5673 76.4257 16.4928 76.3964 16.4542C76.4743 16.4869 75.1958 15.4983 74.9193 14.9503C74.8305 14.8288 74.8179 14.6822 74.7961 14.5557C74.7819 14.5247 74.6252 14.1854 74.4593 13.8276C74.3881 13.6743 74.3211 13.5402 74.2716 13.4481C74.2239 13.3626 74.1912 13.3056 74.1862 13.2973C74.1602 13.2051 74.1216 13.1439 74.099 13.0803C74.0529 12.9915 74.037 12.8951 74.0488 12.751C74.0538 12.6949 74.0211 12.6613 73.9943 12.6245C73.7555 12.312 73.5502 11.9299 73.3073 11.5655C73.1816 11.3811 73.0191 11.2261 72.8708 11.0577C72.8448 11.0276 72.8364 10.979 72.8171 10.9413C72.792 10.8952 72.7778 10.8365 72.7434 10.7988C72.3982 10.3916 72.0958 9.92664 71.6894 9.5781C71.6115 9.48342 71.3325 8.90029 71.216 8.81651C71.1616 8.76121 71.087 8.4244 71.0133 8.40513Z" fill="#231F20"/>
<path fill-rule="evenodd" clip-rule="evenodd" d="M31.5873 38.3791C30.8802 39.0905 30.0884 39.754 29.3193 40.3305L29.1793 40.436C29.1433 40.4654 29.1433 40.4662 29.1207 40.4813C29.0855 40.4972 29.0419 40.5768 28.9984 40.6187C28.9121 40.7217 28.8249 40.8692 28.747 41.0284C28.5828 41.3434 28.4655 41.7481 28.3583 42.1511C28.2183 42.7568 28.1689 43.4036 28.0843 44.053C27.8137 46.3654 27.8061 48.7935 27.9452 51.1989C28.008 52.268 28.1538 53.3379 28.3298 54.386C28.4563 55.058 28.5602 55.7349 28.6549 56.4102C28.7026 56.7487 28.7437 57.0872 28.7755 57.4265L28.8182 57.9343C28.8258 58.1043 28.7898 58.2811 28.7797 58.4512C28.747 58.6791 28.7009 58.6866 28.5175 58.7855C28.4789 58.8132 28.2452 58.7922 28.0215 58.6406C27.5037 58.3766 26.8904 57.7843 26.6901 56.9959C26.2863 55.6068 26.1246 54.1824 26.0106 52.7522C25.9 51.3212 25.8556 49.8793 25.9252 48.4248C26.0081 46.6896 25.8959 44.8833 26.1447 43.0635C26.2955 42.0639 26.5226 41.0518 27.0462 40.0347C27.1953 39.7808 27.3478 39.5286 27.5673 39.289C27.6545 39.1692 27.8078 39.0469 27.9326 38.9447L28.2192 38.7235C28.5878 38.4369 28.9439 38.1496 29.2891 37.8446C30.132 37.0931 30.9338 36.2829 31.6116 35.3755C32.6564 34.0207 33.5302 32.4967 34.0195 30.8629C34.384 29.5894 34.5289 28.2891 34.4988 26.9954C34.4971 26.7097 34.4753 26.4316 34.4854 26.1467C34.4661 25.6172 34.4577 25.2695 34.5767 25.019C34.7317 24.7668 34.9303 24.6109 35.1766 24.4777C35.288 24.4174 35.3886 24.3386 35.4816 24.3001C35.6416 24.2348 35.7882 24.311 35.9885 24.5079C36.1895 24.7056 36.4216 25.0307 36.461 25.463C36.8565 28.0184 36.3697 30.8805 35.1431 33.3764C34.2684 35.2473 33.056 36.9556 31.625 38.411L31.5873 38.3791Z" fill="#231F20"/>
<mask id="mask0_4887_445" style="mask-type:luminance" maskUnits="userSpaceOnUse" x="0" y="12" width="9" height="43">
<path fill-rule="evenodd" clip-rule="evenodd" d="M0.946045 12.4094H8.96738V54.5341H0.946045V12.4094Z" fill="white"/>
</mask>
<g mask="url(#mask0_4887_445)">
<path fill-rule="evenodd" clip-rule="evenodd" d="M3.0683 27.5527C3.4026 29.7403 3.97568 31.9354 4.62668 34.1205C4.87133 34.9181 5.16625 35.6965 5.42012 36.4958C6.31158 39.3092 7.15193 42.1763 7.86325 45.092C8.17158 46.3865 8.49163 47.6927 8.70695 49.0122C8.93401 50.7013 9.17782 52.4842 8.66003 54.201C8.53101 54.7347 8.20844 54.5755 7.91268 54.087C7.61274 53.5902 7.36641 52.8244 7.26839 51.9263C7.17455 50.3327 6.82349 48.7341 6.47244 47.1129C6.12809 45.4917 5.66225 43.8612 5.25171 42.2006C4.72052 40.2208 3.94133 38.2184 3.3029 36.1967C2.60833 33.9697 1.96571 31.705 1.5049 29.3842L1.29879 28.311L1.15385 27.2218C1.03739 26.5004 1.00471 25.7622 0.968683 25.0266C0.886575 23.9056 1.0399 22.7527 1.23428 21.6702C1.43368 20.576 1.71352 19.5053 2.05871 18.4571C2.5966 16.8334 3.1856 15.2088 4.40047 13.7988C4.64595 13.4787 4.98612 13.2156 5.31036 12.9417C5.67063 12.7422 5.95885 12.5537 6.24371 12.4792C6.53444 12.4155 6.77657 12.4079 6.96844 12.4096C7.36055 12.4582 7.5809 12.6333 7.7292 12.8285C7.7979 12.9199 7.88085 13.0062 7.91101 13.0883C7.96212 13.2282 7.83895 13.3622 7.63117 13.5156C7.52644 13.5952 7.4016 13.663 7.26168 13.7242C7.12679 13.8264 6.9852 13.9462 6.82098 14.025C5.85914 14.5838 5.10676 15.7166 4.52363 16.9784C3.94636 18.2535 3.50733 19.6653 3.19985 21.1005C2.97866 22.1612 2.81612 23.2621 2.80439 24.2759C2.81025 24.7987 2.86722 25.3576 2.89403 25.8971C2.93425 26.4434 3.04317 26.9939 3.11439 27.5418L3.0683 27.5527Z" fill="#231F20"/>
</g>
<path fill-rule="evenodd" clip-rule="evenodd" d="M9.71112 11.6706C9.2411 12.5755 8.84983 13.575 8.5348 14.5897C8.42504 14.9642 8.37142 15.3504 8.2734 15.7283C7.90391 17.0562 7.60564 18.4303 7.42802 19.8295C7.34842 20.4503 7.3325 21.0812 7.33669 21.7046C7.36518 22.5055 7.39031 23.309 7.18337 24.1134C7.11718 24.363 6.76612 24.3304 6.39748 24.1167C6.03385 23.9039 5.62331 23.5068 5.5655 23.0342C5.43564 21.3644 5.59064 19.6678 5.98191 17.9904C6.23075 16.9934 6.28269 15.9235 6.54661 14.9005C6.82477 13.7761 7.2194 12.6794 7.66512 11.6061C7.96256 10.9492 8.27926 10.3008 8.66383 9.67573C9.24696 8.73484 10.0144 7.85008 11.0148 7.22087C11.7873 6.73408 12.7005 6.41989 13.5719 6.33192C13.7688 6.31433 13.9389 6.29841 14.1265 6.30092C14.7934 6.33108 14.8756 6.43749 15.0808 6.87568C15.1252 6.97371 15.1847 7.06587 15.2224 7.15719C15.2869 7.31471 15.2685 7.46719 15.1445 7.62889C15.0121 7.80065 14.7968 7.90957 14.5287 7.98749C14.155 8.08971 13.7947 8.17265 13.4965 8.26984C13.1848 8.33184 12.9175 8.41479 12.6628 8.49773C12.1668 8.67619 11.7471 8.93341 11.3382 9.33808C10.7257 9.91116 10.1837 10.7624 9.75553 11.6882L9.71112 11.6706Z" fill="#231F20"/>
<path fill-rule="evenodd" clip-rule="evenodd" d="M16.2481 8.18256L16.0034 8.53445L15.7956 8.92488C15.6607 9.18712 15.5057 9.4368 15.3843 9.71245C15.1539 10.2713 14.9008 10.8217 14.6972 11.4116C14.533 11.8322 14.4551 12.2813 14.3277 12.722C13.841 14.2644 13.5025 15.8865 13.2436 17.5303C13.1363 18.2617 13.102 19.0049 13.0844 19.738C13.0928 20.6856 13.0827 21.624 12.8464 22.6001C12.7694 22.9059 12.4862 22.838 12.1753 22.5783C11.8737 22.3227 11.485 21.867 11.3978 21.3148C11.2361 20.3371 11.2839 19.3417 11.2973 18.348C11.3501 17.3535 11.4313 16.3515 11.6777 15.3637C11.9491 14.1857 12.0589 12.9272 12.3572 11.7115C12.7174 10.3827 13.1749 9.06396 13.9021 7.84574C14.0856 7.45783 14.3663 7.10761 14.6059 6.74566C14.833 6.37534 15.1404 6.05193 15.4329 5.72266C15.6473 5.46712 15.8761 5.22499 16.1526 5.02307C16.424 4.8111 16.6553 4.59912 16.9586 4.39134C17.6339 3.98499 18.2807 3.84004 18.9509 3.71437C19.9773 3.54261 21.0707 3.48312 22.1666 3.8878C22.3953 3.99672 22.6517 4.05955 22.8402 4.25142C23.218 4.55555 23.3831 4.84545 23.4501 5.06747C23.4769 5.32553 23.4258 5.50985 23.3244 5.69083C23.2784 5.77461 23.2423 5.86091 23.1929 5.92123C23.1083 6.02345 22.9726 6.03937 22.7799 6.03015C22.5897 6.01591 22.3366 5.99496 22.1238 5.91453C21.4376 5.75534 20.9182 5.60872 20.2571 5.62547C19.6279 5.63637 18.9007 5.76707 18.3695 6.01256C18.1684 6.11142 18.1315 6.12901 17.8911 6.35188C17.6992 6.53285 17.4839 6.68031 17.2987 6.87553L16.7667 7.50223C16.5849 7.70918 16.4559 7.97645 16.2958 8.20937L16.2481 8.18256Z" fill="#231F20"/>
<path fill-rule="evenodd" clip-rule="evenodd" d="M26.8357 9.34684C27.1633 8.74779 27.4892 8.15125 27.9047 7.58906C28.0882 7.30084 28.3262 7.0319 28.5574 6.76379L28.8967 6.37503L29.1137 6.18903C29.1632 6.16473 29.2059 6.12452 29.1875 6.06755C29.1858 6.04157 29.1816 6.01476 29.1757 5.98711C29.169 5.95863 29.1715 5.94941 29.1154 5.83044C28.9495 5.45509 28.7066 5.12246 28.3957 4.87195C27.9123 4.50079 27.268 4.34244 26.5508 4.31228C26.2651 4.24776 25.6543 4.56363 25.155 4.98925C24.6363 5.41571 24.1546 5.95946 23.7088 6.53087C22.8199 7.68457 22.0742 8.98992 21.4559 10.3514C20.9096 11.5629 20.5041 12.8473 20.2167 14.1334C19.8456 15.7923 19.7132 17.4781 19.5037 19.1571C19.4367 19.6791 19.0295 19.6221 18.6349 19.1521C18.2327 18.6854 17.875 17.7772 17.9789 16.729C18.1682 14.8808 18.5821 13.0652 19.2046 11.3208C19.8238 9.57641 20.6357 7.89152 21.7156 6.34822C22.3691 5.42911 23.0503 4.49911 23.9468 3.65541C24.4017 3.24152 24.9103 2.83433 25.6141 2.56371C25.7959 2.50255 25.9844 2.4439 26.1955 2.41792C26.3003 2.40703 26.4151 2.39446 26.5123 2.39111L26.7527 2.40033L27.2336 2.42379L27.7204 2.50757C28.7183 2.69022 29.7078 3.27168 30.3554 4.09444C30.5196 4.29887 30.6596 4.51671 30.7886 4.74125L30.9603 5.08811L31.1405 5.55395C31.2268 5.87317 31.3357 6.20579 31.2863 6.51495C31.2812 6.59287 31.2418 6.66157 31.2167 6.7353L31.1924 6.78892L31.1916 6.7906C31.1782 6.78641 31.3005 6.82663 31.2486 6.81071L31.246 6.81406L31.2418 6.81909L31.2326 6.83082L31.2142 6.85428L31.1413 6.94728L30.8506 7.31676C30.6922 7.47176 30.502 7.64268 30.3705 7.78344L30.0605 8.16046C29.841 8.40009 29.6634 8.68411 29.4816 8.96395C28.7392 10.1227 28.1913 11.4448 27.8101 12.8096C27.2621 14.885 27.0141 17.0851 27.2311 19.2224C27.4087 20.8872 27.9491 22.4448 28.5742 23.9353C28.7158 24.2637 28.8959 24.5645 29.0375 24.8946C29.6047 26.0927 29.6541 26.5585 29.417 27.0612C29.3634 27.1752 29.324 27.3076 29.262 27.3964C29.0626 27.6905 28.5046 27.3645 27.7439 26.5368C25.7188 23.9353 24.8558 20.3418 24.938 16.8723C24.9413 16.2247 25.0184 15.577 25.0863 14.9319C25.2128 14.2934 25.2882 13.6475 25.4683 13.0199C25.7599 11.7514 26.2349 10.5223 26.7854 9.32757L26.8357 9.34684Z" fill="#231F20"/>
<path fill-rule="evenodd" clip-rule="evenodd" d="M46.3034 28.0681C45.6884 27.3342 45.0542 26.5064 44.6721 25.5202C44.6688 25.485 44.6604 25.4482 44.6671 25.4046C44.6897 25.3393 44.616 25.3661 44.5884 25.3426L44.5205 25.3267C44.4903 25.3217 44.5079 25.3183 44.3588 25.3074L43.6835 25.2639C43.0543 25.227 42.4167 25.2689 41.7824 25.2421C39.537 25.1524 37.274 25.1156 35.0236 25.2111C34.0241 25.2505 33.0279 25.3753 32.0535 25.5261C31.4309 25.6308 30.8118 25.7691 30.2002 25.8864C29.5852 25.9894 28.9711 26.0782 28.372 26.1645C27.995 26.2064 27.8844 25.8311 28.0838 25.3367C28.2815 24.8349 28.8244 24.2124 29.5802 23.9878C30.9207 23.6242 32.2604 23.5027 33.5959 23.3863C34.9331 23.2824 36.2695 23.2631 37.6108 23.315C39.2145 23.3796 40.8692 23.2304 42.5097 23.2589C42.9454 23.2681 43.3819 23.2815 43.8209 23.305L44.4819 23.3427C44.7501 23.3586 45.1556 23.3846 45.4781 23.4206L45.8041 23.6929L45.9649 23.8278L46.0403 23.9862C46.1199 24.1772 46.3034 24.4453 46.4534 24.6891C46.5899 24.9312 46.6427 25.0812 46.7533 25.2848C46.8765 25.475 46.9862 25.671 47.1195 25.8596C47.6992 26.689 48.4324 27.459 49.2291 28.1435C50.4348 29.1849 51.7896 30.1015 53.2516 30.7375C53.8096 31.0081 54.412 31.1539 54.9926 31.3315C55.5925 31.4479 56.1765 31.6029 56.7789 31.6683C57.0428 31.7026 57.3042 31.7169 57.5656 31.7621C58.5434 31.8845 58.8358 32.0336 59.0042 32.6226C59.0419 32.7541 59.098 32.8882 59.1173 33.018C59.1852 33.4579 58.7244 33.7579 57.9033 33.7813C55.4719 33.8324 52.9516 32.9988 50.7314 31.7227C49.0741 30.771 47.5694 29.5628 46.2674 28.1041L46.3034 28.0681Z" fill="#231F20"/>
<path fill-rule="evenodd" clip-rule="evenodd" d="M46.576 2.64341L49.9449 1.90192L51.6298 1.51484C52.213 1.40006 52.807 1.24841 53.401 1.16965C54.2657 1.0247 55.1295 0.87557 56.005 0.826137C57.5458 0.72811 59.0975 0.803515 60.6282 1.01968C62.1598 1.22914 63.6788 1.60868 65.1132 2.22281C65.7642 2.45238 66.3657 2.816 66.9933 3.11092C67.5714 3.49884 68.2023 3.81135 68.7234 4.27719C69.444 4.80754 70.0815 5.45435 70.6622 6.14473C70.9227 6.51254 71.1506 6.90549 71.376 7.29089C71.5645 7.69725 71.7128 8.12454 71.8108 8.56273C71.9348 9.11152 71.6366 9.13498 71.0719 8.91798C70.4728 8.71019 69.7263 8.27033 69.1331 7.65954C67.3267 5.23903 64.4932 3.72087 61.2901 2.9777C59.3706 2.50852 57.2609 2.61241 55.2401 2.82103C54.1157 2.92157 53.0282 3.13522 51.9122 3.38573L48.5005 4.16576L44.2862 5.07314C42.1564 5.52138 40.0007 5.90343 37.8742 6.29303C36.2178 6.58041 34.6025 6.92811 32.9528 7.17025C32.5908 7.22806 32.2364 7.28838 31.8686 7.33027C31.1874 7.41489 30.7333 7.41825 30.4074 7.3487C30.084 7.30011 29.8888 7.16438 29.7262 6.9943C29.6525 6.91973 29.5578 6.85606 29.5143 6.79657C29.3685 6.63068 29.8871 6.20254 30.8548 5.96627C32.3026 5.64203 33.7705 5.31443 35.2577 4.98265C36.7473 4.64081 38.2546 4.30987 39.7786 4.03003C42.0349 3.58262 44.3046 3.12181 46.5618 2.59733L46.576 2.64341Z" fill="#231F20"/>
<path fill-rule="evenodd" clip-rule="evenodd" d="M70.7328 10.3009C69.9335 9.84094 69.0848 9.42035 68.1825 9.09946C67.8507 8.96959 67.5331 8.90592 67.2014 8.81208C66.0393 8.47359 64.7959 8.23397 63.5484 8.0731C62.9954 7.99183 62.4332 7.95413 61.8786 7.9357C61.1631 7.95246 60.4517 7.85946 59.7362 7.67094C59.5134 7.60978 59.5427 7.46567 59.7337 7.27129C59.9239 7.08194 60.2791 6.78619 60.7031 6.68648C61.0784 6.5784 61.4521 6.57338 61.8258 6.58008C62.1995 6.57924 62.574 6.58846 62.9485 6.61108C63.6984 6.63705 64.4432 6.7954 65.1855 6.96716C66.0719 7.1917 67.0154 7.26208 67.9412 7.5327C68.9415 7.84521 69.8891 8.21554 70.8166 8.69227C71.3855 8.97797 71.9377 9.30724 72.4638 9.6784C73.2606 10.2398 73.9904 10.9167 74.6095 11.6976C75.0896 12.3 75.5571 12.9493 75.8596 13.7126C75.9241 13.8793 76.007 14.0419 76.0447 14.2195C76.2014 14.878 76.0665 15.1068 75.5504 15.2425C75.4323 15.2743 75.3141 15.3129 75.1943 15.3296C74.7779 15.3807 74.4646 15.1553 74.3339 14.8102C73.9568 13.7813 73.5605 12.8655 72.814 11.9732C72.2627 11.3214 71.5112 10.7994 70.7169 10.3344L70.7328 10.3009Z" fill="#231F20"/>
<path fill-rule="evenodd" clip-rule="evenodd" d="M76.5412 17.0968C75.8408 16.4735 74.9761 15.9515 74.0562 15.5267C73.7194 15.3692 73.37 15.2502 73.0248 15.1111C71.8024 14.6143 70.5214 14.1711 69.2202 13.8142C68.6429 13.6558 68.0497 13.5477 67.4632 13.4556C66.7075 13.345 65.9535 13.2369 65.217 13.0057C64.9874 12.9311 65.0436 12.6923 65.2756 12.4611C65.5077 12.2307 65.925 11.9885 66.3808 12.0078C67.1893 12.0271 67.9785 12.1678 68.7611 12.3421C69.5428 12.5147 70.3178 12.7325 71.0794 13.0098C71.9901 13.3383 72.9745 13.5494 73.9154 13.9072C74.9351 14.3328 75.9497 14.7877 76.8797 15.4387C77.1688 15.6289 77.4352 15.8635 77.7117 16.0747C77.9672 16.3193 78.2311 16.5547 78.4641 16.8237C79.1896 17.6272 79.6647 18.6753 79.8524 19.736C80.0015 20.5596 80.0652 21.3882 80.0023 22.2026C79.9872 22.3811 79.9973 22.5637 79.9395 22.733C79.7862 23.3773 79.539 23.5155 79.1427 23.544C79.0522 23.5498 78.9626 23.5658 78.8813 23.5607C78.7439 23.5507 78.6392 23.4686 78.5487 23.3278C78.4582 23.1871 78.3702 22.9826 78.3702 22.7581C78.2965 22.0744 78.3803 21.4594 78.3468 20.8621C78.3275 20.268 78.2512 19.7142 78.0686 19.1956C77.7812 18.4374 77.2509 17.7244 76.5186 17.1278L76.5412 17.0968Z" fill="#231F20"/>
<path fill-rule="evenodd" clip-rule="evenodd" d="M80.0241 59.8617C80.0903 57.5451 79.8724 55.2017 79.523 52.8725C79.399 52.0221 79.1963 51.1834 79.0421 50.3347C78.7681 48.8358 78.4364 47.3486 78.1247 45.8229C77.8088 44.288 77.5943 42.7447 77.4276 41.1964C77.2835 39.8223 77.1469 38.4374 77.1042 37.0524C77.0673 36.1643 77.1017 35.2628 77.2123 34.358C77.3053 33.4539 77.6211 32.5315 78.19 31.7523C78.562 31.268 78.6743 31.5051 78.712 32.0296C78.7154 32.2801 78.7681 32.6337 78.8067 33.0124C78.8142 33.195 78.8762 33.4196 78.8745 33.6248C78.8637 33.8268 78.8578 34.0471 78.8368 34.2784C78.5796 37.5484 78.9474 41.0958 79.4367 44.5628C79.7635 46.6272 80.4405 48.8065 80.8401 50.9798C81.2942 53.3752 81.5975 55.8108 81.6872 58.2615C81.7224 59.7721 81.688 61.2861 81.5263 62.7925C81.3261 65.0798 80.7019 67.3428 79.7995 69.4466C79.6144 69.853 79.4543 70.2702 79.2608 70.669L78.6014 71.8286C78.2093 72.6379 77.596 73.294 77.064 74.0204C76.8394 74.3329 76.5529 74.6613 76.2111 74.9353C75.5844 75.4489 74.9694 75.6759 74.4793 75.65C73.9782 75.6014 73.7043 75.3366 73.6406 75.0593C73.6054 74.9344 73.5828 74.792 73.6071 74.6998C73.6515 74.5323 73.84 74.4996 74.0075 74.4074C74.176 74.3144 74.3025 74.1888 74.6183 74.0095C75.0959 73.6953 75.5307 73.2294 75.958 72.5969C76.3929 72.0062 76.8738 71.4507 77.2089 70.7821L77.7778 69.827L78.2344 68.8006C78.3744 68.4521 78.5704 68.1287 78.6718 67.7617L79.0178 66.6767C79.6579 64.5084 79.9587 62.1976 79.9822 59.8651L80.0241 59.8617Z" fill="#231F20"/>
<path fill-rule="evenodd" clip-rule="evenodd" d="M73.2171 72.5333C73.8052 71.7156 74.3038 70.84 74.6766 69.8958C74.8039 69.5481 74.8953 69.1886 74.9983 68.8309C75.3862 67.5758 75.6141 66.2436 75.7373 64.8914C75.7943 64.2915 75.7951 63.6824 75.7851 63.08C75.7934 62.3066 75.7817 61.5266 75.9727 60.7491C76.0305 60.507 76.2065 60.5413 76.421 60.7474C76.6212 60.9544 76.9446 61.3314 76.9949 61.7805C77.0401 62.1776 77.0963 62.5773 77.1172 62.9778C77.1097 63.3791 77.0971 63.7804 77.0711 64.1842C77.0184 64.9928 76.9262 65.8071 76.7553 66.6173C76.5517 67.5842 76.4436 68.6122 76.1478 69.5933C75.8261 70.6691 75.3578 71.7097 74.783 72.6665C74.4303 73.2547 74.0365 73.8261 73.5849 74.3598C72.8954 75.1666 72.029 75.8453 71.0722 76.3186C70.3358 76.6932 69.5725 77.0107 68.7707 77.1984C68.5939 77.247 68.4221 77.2922 68.2428 77.3157C67.5742 77.4238 67.3556 77.2344 67.2156 76.8565C67.1838 76.7661 67.1428 76.6764 67.1252 76.5868C67.0665 76.286 67.317 76.012 67.7426 75.8746C69.0044 75.5328 70.2042 75.232 71.2105 74.5408C71.9603 74.0422 72.6239 73.3443 73.1861 72.5157L73.2171 72.5333Z" fill="#231F20"/>
<path fill-rule="evenodd" clip-rule="evenodd" d="M67.544 74.9576C67.8858 74.5697 68.1958 74.1239 68.4782 73.6556C68.7429 73.1889 69.0789 72.6611 69.2088 72.2589C69.337 71.8919 69.4174 71.4889 69.5297 71.0968C69.9285 69.7052 70.2904 68.2825 70.5812 66.8498C70.7144 66.2139 70.7789 65.5646 70.8493 64.9262C70.9314 64.1042 70.9649 63.2832 71.2162 62.4721C71.2908 62.2174 71.4601 62.2551 71.6695 62.483C71.8605 62.7101 72.1974 63.1432 72.2275 63.6392C72.2661 65.3937 71.9368 67.1045 71.4701 68.7844C71.1718 69.7865 71.0127 70.853 70.7152 71.8894C70.6331 72.1751 70.5477 72.4566 70.4412 72.7524C70.3952 72.8898 70.3214 73.0683 70.2452 73.2266L70.0366 73.6145C69.7567 74.134 69.4518 74.6459 69.1183 75.1495C68.7111 75.7686 68.2352 76.3652 67.6613 76.8729C66.8134 77.6739 65.6907 78.1565 64.5856 78.4095C63.7226 78.6139 62.8538 78.7513 61.9799 78.7563C61.7881 78.7572 61.5979 78.7664 61.4043 78.7547C61.0508 78.7119 60.8229 78.6541 60.6779 78.536C60.5355 78.4019 60.4777 78.2117 60.4442 78.0073C60.4282 77.9168 60.4006 77.8381 60.3939 77.7752C60.383 77.6655 60.4551 77.5834 60.6075 77.4267C60.7625 77.26 60.9661 77.1611 61.2041 77.1611C61.9045 77.1242 62.5874 77.0882 63.2777 77.0522C63.9438 76.9768 64.5906 76.8746 65.1897 76.6592C66.0652 76.3216 66.8662 75.7627 67.5155 74.9375L67.544 74.9576Z" fill="#231F20"/>
<path fill-rule="evenodd" clip-rule="evenodd" d="M60.4153 78.9995C59.4744 79.3639 58.402 79.6388 57.2231 79.317C56.6417 79.1788 56.0803 78.8152 55.6748 78.3728C55.4737 78.1441 55.2936 77.9069 55.1754 77.6522C55.0364 77.4436 54.909 77.0364 54.7892 76.6795C54.7406 76.3838 54.7431 76.0587 54.8964 75.783C54.9752 75.6473 55.0556 75.5099 55.1612 75.3867C55.2534 75.2728 55.3899 75.1061 55.4377 75.0591C55.9747 74.4819 56.4087 73.9339 56.862 73.3717C58.4598 71.4162 59.4928 68.9982 59.9318 66.4344C60.1321 65.2975 60.1706 64.1262 60.1413 62.975C60.1296 62.2343 60.0659 61.4929 60.0047 60.7514C59.9587 60.0082 59.9503 59.2558 59.9201 58.5001C59.9151 58.0276 60.112 58.051 60.4211 58.4046C60.7253 58.7573 61.2028 59.4402 61.4391 60.3199C62.0264 63.4475 61.8053 66.819 60.6046 69.8888C59.8841 71.7069 58.9608 73.572 57.6596 75.0977C57.3781 75.4286 57.0824 75.7478 56.8034 76.0495L56.557 76.3201C56.4984 76.3762 56.4766 76.4575 56.516 76.5295C56.5394 76.5932 56.5311 76.6276 56.5822 76.7172L56.7464 77.0272L56.955 77.2878L57.2047 77.4905C57.565 77.7251 58.061 77.8047 58.5863 77.7444C59.6621 77.6103 60.8024 77.0163 61.5338 76.1559C62.7378 74.7609 63.579 72.9888 64.1747 71.1892C64.6313 69.7791 64.881 68.3355 65.0963 66.8843C65.144 66.5643 65.1709 66.2476 65.2387 65.9284C65.4306 64.7386 65.7791 64.401 66.1302 64.1857C66.2148 64.1371 66.2969 64.0692 66.3673 64.0432C66.4879 64.0013 66.5751 64.1094 66.6681 64.3499C66.756 64.5887 66.8792 64.9649 66.8876 65.429C66.9043 66.8048 66.6656 68.1914 66.3581 69.5906C66.0363 70.9872 65.599 72.3906 64.9983 73.7596C64.5517 74.7759 64.0054 75.773 63.3092 76.7072L62.7545 77.3908C62.5308 77.6321 62.292 77.8676 62.0432 78.0636C61.5447 78.4608 61.0101 78.7842 60.4354 79.038L60.4153 78.9995Z" fill="#231F20"/>
<path fill-rule="evenodd" clip-rule="evenodd" d="M56.7629 45.3371C57.3686 44.7388 58.0146 44.1876 58.6195 43.6832C58.9194 43.431 59.2135 43.183 59.4397 42.9559C59.676 42.7171 59.7724 42.5613 59.7791 42.5094C59.8201 42.2404 59.8494 41.9128 59.8746 41.5978C59.9332 40.915 59.9173 40.2179 59.9667 39.525C60.1243 37.0785 60.2416 34.6161 60.2307 32.1587C60.2323 31.0687 60.1477 29.977 60.0773 28.902C59.9701 27.5196 59.7497 26.1573 59.6626 24.8008C59.635 24.376 59.8779 24.3543 60.239 24.6492C60.6094 24.9416 61.1154 25.5741 61.2646 26.3952C61.846 29.2816 61.9248 32.1654 61.7756 35.0635C61.6835 36.7961 61.7748 38.5933 61.7136 40.3687C61.6784 41.1437 61.6449 41.876 61.5645 42.7046C61.5075 43.1939 61.2528 43.6145 61.0316 43.8817C60.8029 44.1649 60.5691 44.3953 60.3413 44.604L59.0175 45.7811C58.157 46.5553 57.3854 47.3931 56.7285 48.3248C55.7399 49.734 54.9933 51.341 54.582 53.0276C54.2627 54.3396 54.1924 55.676 54.1639 57.009C54.153 57.3014 54.1714 57.5913 54.1681 57.887C54.1337 58.9829 54.0223 59.3306 53.4517 59.5677C53.3252 59.6222 53.1979 59.6951 53.0705 59.7269C52.6407 59.8384 52.2938 59.37 52.1816 58.5112C52.0425 57.2369 52.0483 55.9064 52.2184 54.5591C52.3969 53.2136 52.7588 51.8596 53.2766 50.5501C54.0466 48.6021 55.2648 46.7907 56.7268 45.3069L56.7629 45.3371Z" fill="#231F20"/>
<path fill-rule="evenodd" clip-rule="evenodd" d="M40.3641 56.0735C40.6682 56.448 40.9665 56.8267 41.2446 57.2138L41.6535 57.7902C41.7364 57.9083 41.7155 57.8799 41.7289 57.9083C41.7373 57.9259 41.7473 57.9427 41.7658 57.9486C41.7859 57.9586 41.7892 57.967 41.8294 57.9745L42.0875 58.0265L42.7301 58.1237C43.1633 58.1873 43.6166 58.2309 44.0598 58.2837C44.7158 58.3457 45.3735 58.3591 46.032 58.4136C48.3512 58.6172 50.6846 58.7872 53.0171 58.8492C54.051 58.866 55.0907 58.8543 56.1121 58.8006C56.7664 58.7588 57.4224 58.7068 58.0693 58.6431L59.0386 58.5887C59.3671 58.5811 59.6804 58.5602 59.9887 58.5292C60.3792 58.5049 60.4286 58.7613 60.153 59.1282C59.8765 59.5061 59.2498 59.9786 58.4664 60.1521C57.0756 60.3775 55.7082 60.4478 54.3333 60.4981C52.9601 60.5132 51.5886 60.4445 50.2162 60.3196C48.5757 60.168 46.8665 60.2032 45.1858 60.0926C44.26 60.0247 43.3401 59.9552 42.4017 59.8379C42.1654 59.8077 41.9367 59.7851 41.6837 59.7365C41.5798 59.7105 41.3887 59.703 41.2203 59.6402C41.0561 59.574 40.8777 59.5312 40.7277 59.4433C40.602 59.3184 40.4688 59.1995 40.3641 59.0528L40.1337 58.747L39.7248 58.2133C39.0495 57.3487 38.3114 56.5402 37.497 55.8163C36.2721 54.7179 34.8888 53.7577 33.3639 53.1721C32.785 52.9098 32.1549 52.8151 31.5559 52.6677C30.9325 52.6149 30.3301 52.4825 29.7084 52.5068C29.4361 52.5026 29.1706 52.5169 28.8999 52.5018C27.8928 52.5395 27.5694 52.3786 27.3089 51.8935C27.2502 51.7821 27.1723 51.6723 27.1329 51.5617C26.9972 51.1939 27.4195 50.8546 28.259 50.6795C29.499 50.4784 30.8169 50.5639 32.1231 50.8085C33.4125 51.1193 34.702 51.5735 35.8674 52.2504C37.6269 53.2114 39.1249 54.562 40.3976 56.04L40.3641 56.0735Z" fill="#231F20"/>
<path fill-rule="evenodd" clip-rule="evenodd" d="M2.46426 56.0203C2.42153 55.2051 2.46175 54.3363 2.79018 53.4431C3.13956 52.55 3.7118 51.708 5.00291 51.1827L5.32045 51.1056C5.42686 51.1106 5.53661 51.0804 5.64469 51.0804C5.86421 51.1064 6.07702 51.1592 6.26972 51.2681C6.46829 51.3586 6.64088 51.5153 6.81599 51.6586C6.96345 51.8052 7.18799 52.023 7.24496 52.0959C7.60607 52.5056 7.91859 52.8743 8.25707 53.2287C8.83602 53.8436 9.49121 54.3564 10.1623 54.8507C12.5326 56.6135 15.501 57.6064 18.5357 58.1116C19.8846 58.3453 21.2687 58.4492 22.6369 58.4618C24.3947 58.4744 26.1583 58.4174 27.9345 58.4484C28.4883 58.4693 28.4439 58.7659 27.999 59.1136C27.5542 59.453 26.7063 59.8987 25.6615 59.9984C23.8166 60.2062 21.9457 60.2187 20.0731 60.0612C18.1989 59.918 16.3221 59.5418 14.5149 58.9042C12.3692 58.1451 10.1062 57.2251 8.25959 55.6927C7.61361 55.1624 7.01204 54.5692 6.46829 53.9634L5.78545 53.1993C5.69413 53.0854 5.53075 52.9589 5.38329 53.0636C5.30034 53.0946 5.22242 53.1382 5.14786 53.1993C5.03559 53.2823 4.92248 53.4038 4.83115 53.5286C4.64348 53.7825 4.51026 54.1042 4.43234 54.4636C4.29326 55.0794 4.31672 55.7857 4.41475 56.4795C4.50858 57.1372 4.75156 57.7463 5.13277 58.3227C5.71088 59.1882 6.50767 59.9565 7.39661 60.6125C8.28053 61.2761 9.25159 61.8458 10.2578 62.3284C11.8254 63.08 13.4785 63.5726 15.1366 64.0007C15.5027 64.0963 15.8663 64.1633 16.2333 64.2529C17.599 64.5872 17.9609 64.7665 18.1905 65.2952C18.2533 65.4117 18.317 65.5323 18.3765 65.6437C18.4184 65.7409 18.4184 65.8323 18.353 65.9177C18.2826 66.0065 18.1553 66.0811 18.0028 66.1356C17.6903 66.2453 17.2345 66.2805 16.6815 66.2202C13.4357 65.7946 10.1833 64.6651 7.15364 62.801C6.03931 62.0863 4.96521 61.2376 4.05113 60.1257C3.59953 59.5644 3.19318 58.9352 2.89491 58.2213C2.75248 57.8586 2.6335 57.4866 2.55894 57.0928C2.48186 56.7183 2.44583 56.3923 2.4165 56.0279L2.46426 56.0203Z" fill="#231F20"/>
<path fill-rule="evenodd" clip-rule="evenodd" d="M6.94304 65.7586C7.61331 66.3744 8.51901 66.8872 9.50096 67.3262C9.86626 67.4879 10.2441 67.596 10.5876 67.735C11.8452 68.2403 13.2193 68.6265 14.5858 69.0044C15.1957 69.1652 15.8216 69.2666 16.4408 69.3563C17.2384 69.4643 18.0494 69.4987 18.816 69.8288C19.0557 69.9293 18.9769 70.2486 18.7172 70.5627C18.4583 70.8686 18.0075 71.2221 17.5358 71.197C15.8761 71.0386 14.2146 70.7973 12.5993 70.2159C11.6374 69.8581 10.5885 69.6931 9.56715 69.301C8.50728 68.8779 7.43066 68.4011 6.41772 67.7124C5.80526 67.2809 5.21039 66.7732 4.76047 66.1339C4.03993 65.1838 3.74753 64.0159 3.58666 62.9326C3.47355 62.083 3.3462 61.2426 3.3529 60.4023C3.35374 60.218 3.32442 60.0294 3.3462 59.8468C3.42412 59.1665 3.60007 58.9704 4.10193 58.9168C4.21755 58.9042 4.33318 58.8824 4.44545 58.8841C4.82415 58.8917 5.09477 59.2084 5.15426 59.6776C5.30842 61.0625 5.28328 62.4366 5.61842 63.5852C5.87228 64.4289 6.26607 65.1394 6.97153 65.7209L6.94304 65.7586Z" fill="#231F20"/>
<path fill-rule="evenodd" clip-rule="evenodd" d="M10.4063 71.7977C11.2039 72.2501 12.1079 72.607 13.0413 72.933C13.3764 73.0435 13.7635 73.1123 14.0685 73.1994C15.2205 73.5261 16.546 73.6552 17.8505 73.7901C18.4344 73.842 19.0251 73.8437 19.6108 73.8445C20.3598 73.8546 21.1381 73.7666 21.8888 74.0825C22.1226 74.173 22.0531 74.4318 21.8294 74.7134C21.6048 74.9731 21.2345 75.3761 20.8223 75.3769C19.3477 75.4255 17.8136 75.5453 16.2401 75.2797C15.3076 75.1189 14.293 75.1499 13.2843 74.9027C12.2512 74.6472 11.2198 74.3145 10.2261 73.8521C9.61117 73.5789 9.01882 73.2321 8.44825 72.8492C7.58779 72.2577 6.82452 71.4466 6.32768 70.4747C5.92049 69.7333 5.64904 68.8954 5.60798 68.045C5.60463 67.8598 5.58368 67.6747 5.5929 67.4853C5.68674 66.805 5.88531 66.6215 6.39136 66.6157C6.50782 66.6148 6.62512 66.6064 6.73822 66.6198C7.1186 66.671 7.38252 66.986 7.4286 67.3814C7.59701 68.5896 7.81904 69.4467 8.44155 70.2301C8.91325 70.8048 9.60698 71.3385 10.4255 71.7533L10.4063 71.7977Z" fill="#231F20"/>
<path fill-rule="evenodd" clip-rule="evenodd" d="M28.0502 77.5717C29.1109 77.3673 30.1515 77.09 31.2331 76.8135C32.3399 76.5269 33.4324 76.2898 34.5325 76.0645C35.3335 75.8969 36.1278 75.7017 36.9321 75.5576C39.7732 75.0792 42.6361 74.7365 45.5157 74.5605C46.7951 74.5002 48.0812 74.4164 49.3622 74.4223C49.7753 74.4307 50.1875 74.4215 50.6014 74.4407L51.8464 74.5589C52.6767 74.6736 53.5045 74.8873 54.2703 75.2836C54.7529 75.5132 54.5644 75.731 54.0633 75.8977C53.8128 75.9815 53.4878 76.0569 53.1317 76.103C52.7521 76.196 52.3424 76.2354 51.9185 76.1692C50.3727 76.0527 48.7833 76.0385 47.1772 76.0753C45.5685 76.1298 43.9456 76.2463 42.306 76.3652C40.3446 76.5211 38.338 76.9693 36.3657 77.3732C35.2799 77.591 34.1982 77.8331 33.1233 78.0895C32.0525 78.3375 31.0027 78.6617 29.8917 78.9441C28.5403 79.2868 27.1696 79.5884 25.7729 79.771C23.6624 80.0618 21.4723 80.0442 19.3568 79.6127C17.7188 79.2642 16.1118 78.6718 14.7126 77.6873C14.3859 77.4921 14.1043 77.2584 13.8203 77.0062C13.2682 76.5613 13.0395 76.1432 12.9071 75.8382C12.8434 75.6832 12.8107 75.5475 12.8074 75.4185C12.8158 75.2794 12.8526 75.1479 12.8928 75.0272C12.9305 74.9158 12.9473 74.7968 12.9858 74.7231C13.0763 74.5061 13.8136 74.6058 14.4663 75.2006C15.5278 76.005 16.6011 76.7423 17.8227 77.2383C19.0325 77.7468 20.3588 78.0376 21.737 78.1197C23.7839 78.2495 25.9212 78.0007 28.0376 77.529L28.0502 77.5717Z" fill="#231F20"/>
<path fill-rule="evenodd" clip-rule="evenodd" d="M79.0544 17.6566C79.1684 17.7881 79.0795 17.9582 78.886 18.1576C78.824 18.2204 78.597 18.2958 78.5484 18.2623C78.4537 18.1978 78.3598 18.1299 78.2819 18.0562C78.2317 18.0135 77.791 17.1765 77.6418 16.8857C77.491 16.6067 77.3871 16.3143 77.2991 16.0186C77.1307 15.4153 76.9196 14.818 76.8199 14.2105C76.7939 14.0756 76.7839 13.9382 76.7906 13.7991C76.8098 13.3233 76.7403 12.8658 76.6347 12.4192C76.618 12.3447 76.6138 12.2659 76.5501 12.2014C76.4479 12.0925 76.2259 10.8851 76.2275 10.7268C76.2426 10.3246 76.2418 9.92415 76.2443 9.51947C76.2443 9.4625 76.2133 9.40804 76.2611 9.34352C76.3708 9.19439 76.3222 9.08128 76.3071 8.95896C76.2787 8.79139 76.2787 8.61628 76.2912 8.43615C76.2988 8.34734 76.3499 8.24763 76.4203 8.14039C76.4764 8.04488 76.5786 8.05912 76.6113 8.07671C76.6808 8.13871 76.7336 8.05744 76.7814 8.03734C76.799 8.02896 76.8216 8.01974 76.84 8.01806C76.9724 7.98371 77.6008 8.86763 77.6242 8.9799C77.6527 9.00085 78.1169 10.4218 78.1512 10.5877C78.1805 10.6715 78.163 10.7653 78.1579 10.8558C78.1713 10.9094 78.4604 12.0405 78.4713 12.0841C78.4939 12.3262 78.5844 12.5558 78.4973 12.8105C78.4797 12.8608 78.4947 12.9077 78.504 12.9554C78.5894 13.3576 78.607 13.7665 78.6455 14.172C78.6774 14.3873 78.7067 14.58 78.7369 14.7844C78.7419 14.8213 78.7285 14.8615 78.726 14.9001C78.7235 14.9487 78.7151 14.9973 78.7235 15.0433C78.8123 15.5209 78.8366 16.0152 78.9924 16.4752C79.0192 16.5824 79.0301 17.1337 79.0804 17.2552C79.1038 17.3231 79.0067 17.6038 79.0544 17.6566Z" fill="#231F20"/>
<path fill-rule="evenodd" clip-rule="evenodd" d="M69.569 76.7078C69.4048 76.8612 69.1937 76.8201 68.9289 76.6793C68.8451 76.6341 68.7387 76.4246 68.7831 76.3668C68.8669 76.2529 68.9574 76.1389 69.0588 76.0392C69.1066 75.9571 70.272 75.3497 70.6968 75.2156C71.0947 75.0363 71.5137 74.9584 71.9301 74.8612C72.7796 74.7163 73.6317 74.5931 74.4771 74.5496C74.6656 74.5336 74.855 74.537 75.0418 74.5579C75.6861 74.6157 76.3229 74.6183 76.9588 74.6023C77.0652 74.6007 77.1733 74.6099 77.2772 74.5688C77.4506 74.4926 79.1656 74.5462 79.3818 74.6074C79.9239 74.7247 80.4676 74.8076 81.0072 74.9006C81.0851 74.9132 81.1689 74.9023 81.2368 74.9551C81.396 75.0774 81.5644 75.064 81.7319 75.0791C81.9649 75.1017 82.1961 75.1243 82.4273 75.1654C82.5413 75.1863 82.6552 75.2533 82.7683 75.3061C82.8714 75.3547 82.8161 75.5231 82.7801 75.5407C82.6737 75.5935 82.76 75.6756 82.77 75.746C82.7734 75.7694 82.7776 75.8004 82.7725 75.8189C82.7633 75.8666 81.3901 76.1473 81.2401 76.1364C81.2058 76.1373 79.2486 76.1708 78.9981 76.175C78.8808 76.1833 78.7652 76.1523 78.6487 76.1289C78.5917 76.1138 77.0292 76.1398 76.9697 76.1398C76.6471 76.1113 76.327 76.1532 76.0095 76.0443C75.9458 76.0233 75.8805 76.0275 75.8168 76.0283C75.2672 76.0451 74.7184 76.0107 74.1721 76.0158C73.8914 76.0091 73.6175 76.0551 73.3402 76.0753C73.2907 76.0794 73.2388 76.0686 73.1885 76.066C73.1248 76.0635 73.0603 76.0535 72.9975 76.0627C72.3515 76.1565 71.6921 76.2018 71.0805 76.4129C71.011 76.438 70.7973 76.4682 70.5795 76.5009C70.3683 76.5478 70.1539 76.6023 70.0759 76.6374C69.9888 76.6726 69.6327 76.6366 69.569 76.7078Z" fill="#231F20"/>
<path fill-rule="evenodd" clip-rule="evenodd" d="M74.9193 27.1567C76.0386 27.687 77.1454 28.2241 78.2472 28.6933C78.7968 28.9279 79.3481 29.1432 79.8801 29.2982C80.3996 29.4565 80.9584 29.542 81.2215 29.4599C81.3229 29.4356 81.3438 29.408 81.3849 29.3669C81.4318 29.3342 81.431 29.2907 81.4553 29.1424C81.4938 29.0318 81.4536 28.8357 81.4662 28.6857C81.4285 28.5098 81.4142 28.3355 81.3732 28.1554C81.0363 26.866 80.1474 25.61 79.0473 24.5912C77.9414 23.5615 76.6511 22.6994 75.2963 21.9411C74.688 21.6186 74.0513 21.3379 73.4254 21.0438C72.782 20.7858 72.1268 20.5537 71.4825 20.3141C70.6463 20.0208 69.7766 19.8181 68.9355 19.5365C68.0867 19.2701 67.2212 19.0615 66.3926 18.7004C65.8748 18.48 65.9955 18.2697 66.5242 18.0946C67.0562 17.9019 68.0021 17.7704 69.0385 17.9748C69.9526 18.1801 70.839 18.4926 71.7363 18.7607C72.6144 19.1067 73.5075 19.4008 74.3663 19.808C76.0965 20.573 77.7621 21.5624 79.2492 22.8125L79.912 23.3873C80.129 23.5858 80.33 23.8095 80.542 24.0181C80.9769 24.4237 81.3447 24.918 81.725 25.3939C82.4372 26.3875 83.0564 27.5513 83.0513 28.979C83.0497 29.3568 82.9692 29.8218 82.6752 30.2743C82.3626 30.6924 81.8666 30.9445 81.441 31.0174C80.5881 31.1507 79.9229 30.9755 79.2786 30.813C78.0092 30.4511 76.8522 29.9609 75.6993 29.4767C74.2809 28.8835 72.8926 28.2526 71.4858 27.682C69.3569 26.8207 67.1852 26.0315 64.97 25.5732C63.249 25.2129 61.5214 25.14 59.8265 25.2188C59.452 25.223 59.09 25.295 58.7163 25.3151C57.3364 25.4425 56.9008 25.4324 56.5003 24.9582C56.4106 24.8543 56.2958 24.7554 56.233 24.6482C56.016 24.3038 56.5438 23.8187 57.6523 23.5833C60.945 22.877 64.5427 23.3856 67.8312 24.3793C70.2936 25.1107 72.6496 26.1002 74.9344 27.1123L74.9193 27.1567Z" fill="#231F20"/>
<path fill-rule="evenodd" clip-rule="evenodd" d="M9.45248 72.2256C9.33015 72.1309 9.39634 71.9743 9.55469 71.7522C9.6058 71.6819 9.80856 71.5646 9.85883 71.588C9.95685 71.6349 10.0549 71.6869 10.1387 71.7514C10.2065 71.7799 10.6824 72.5825 10.7905 72.8707C10.9271 73.143 11.005 73.4287 11.0636 73.7136C11.1918 74.2959 11.2806 74.8698 11.351 75.4454C11.3636 75.5719 11.3627 75.6993 11.3502 75.8283C11.3066 76.269 11.3267 76.6988 11.3736 77.127C11.3795 77.1982 11.3728 77.2711 11.418 77.3398C11.4943 77.4554 11.5043 78.6032 11.475 78.749C11.3921 79.1168 11.3736 79.4771 11.3074 79.8365C11.2982 79.8885 11.3116 79.9413 11.2672 79.9899C11.1633 80.1055 11.1893 80.2119 11.1876 80.3208C11.1885 80.4431 11.1902 80.5646 11.1935 80.7548C11.1977 80.8168 11.1675 80.8964 11.1533 80.9802C11.1399 81.0564 11.0125 81.0924 10.9891 81.0757C10.9229 81.0279 10.8869 81.11 10.8416 81.1452C10.8257 81.1561 10.8047 81.1712 10.7897 81.1746C10.783 81.1854 10.5693 80.9508 10.4436 80.7079C10.2886 80.4532 10.1847 80.2027 10.1655 80.1457C10.1102 80.1138 9.91245 78.7381 9.89653 78.5965C9.87977 78.5169 9.90407 78.4348 9.91664 78.3536C9.92334 78.3142 9.76918 77.2535 9.76667 77.2141C9.77337 76.9937 9.72729 76.7801 9.82699 76.5589C9.8471 76.5153 9.84039 76.4709 9.83704 76.4282C9.80688 76.057 9.83453 75.6842 9.83118 75.3156C9.82783 75.1287 9.80437 74.9402 9.78342 74.7559C9.78007 74.7224 9.79096 74.6872 9.79348 74.6528C9.79683 74.6109 9.80604 74.5665 9.79934 74.5246C9.73734 74.0906 9.7231 73.6441 9.56977 73.2453C9.54883 73.1481 9.51699 72.6722 9.45834 72.5733C9.43572 72.5163 9.50861 72.2616 9.45248 72.2256Z" fill="#231F20"/>
<path fill-rule="evenodd" clip-rule="evenodd" d="M12.2364 7.47078C12.3444 7.38448 12.4617 7.50429 12.5874 7.74224C12.6276 7.81848 12.6603 8.06145 12.631 8.10167C12.574 8.17875 12.5154 8.25416 12.4525 8.31113C12.4157 8.34716 11.7621 8.57086 11.5376 8.65297C11.3214 8.73507 11.0994 8.77194 10.8757 8.80126C10.4224 8.85656 9.96917 8.9194 9.51507 8.96129C9.41369 8.97135 9.31231 8.96464 9.21093 8.94705C8.86239 8.88421 8.51888 8.89762 8.17536 8.94118C8.11839 8.94789 8.05974 8.94286 8.00528 8.99145C7.91563 9.07021 6.9848 9.12132 6.86582 9.0744C6.56671 8.98559 6.26928 8.92945 5.97185 8.85907C5.92996 8.84986 5.88471 8.86745 5.84617 8.81216C5.75569 8.68062 5.66436 8.70324 5.5722 8.69402C5.44569 8.67978 5.31834 8.66051 5.19098 8.61694C5.12815 8.59599 5.06615 8.52143 5.00415 8.46194C4.94717 8.40748 4.97734 8.21059 4.99661 8.1888C5.05358 8.1268 5.0075 8.03464 5.00163 7.95253C4.99996 7.92489 4.99744 7.88886 4.99996 7.86707C5.00582 7.81764 5.73474 7.47497 5.81434 7.47664C5.82271 7.4758 6.09166 7.44732 6.3782 7.41799C6.66223 7.38616 6.95631 7.34929 7.01663 7.33672C7.07863 7.32164 7.14231 7.35264 7.20598 7.37275C7.23615 7.38197 8.07901 7.28143 8.11169 7.2831C8.28596 7.29735 8.45939 7.25126 8.63534 7.35935C8.66969 7.38197 8.70488 7.37443 8.74007 7.37191C9.03834 7.35013 9.33744 7.38616 9.63655 7.40291C9.78988 7.41213 9.94069 7.38867 10.0923 7.38364C10.12 7.38197 10.1485 7.39621 10.177 7.40207C10.2113 7.40962 10.2473 7.42218 10.2817 7.41883C10.6394 7.38532 11.0047 7.41799 11.3591 7.33756C11.4396 7.32164 11.8493 7.39956 11.9423 7.37107C11.9942 7.35767 12.1928 7.50597 12.2364 7.47078Z" fill="#231F20"/>
</svg>
