<svg width="105" height="81" viewBox="0 0 105 81" fill="none" xmlns="http://www.w3.org/2000/svg">
<path fill-rule="evenodd" clip-rule="evenodd" d="M85.3359 45.0344C86.6521 47.5739 88.0279 50.0849 89.4698 52.5573C90.0001 53.4572 90.5623 54.3369 91.1119 55.2233C93.0038 58.3795 95.002 61.477 97.1611 64.4613C98.1037 65.7969 99.1476 67.0662 100.152 68.338C100.801 69.1532 101.508 69.9215 102.172 70.725C102.508 71.1272 102.837 71.5117 103.163 71.9809C103.471 72.43 103.714 72.8481 104.045 73.1564C104.466 73.4999 104.372 73.7069 103.727 73.5938C103.412 73.5267 102.99 73.2913 102.595 72.9738C102.403 72.8179 102.207 72.6604 102.006 72.4979C101.818 72.3605 101.577 72.1384 101.383 71.9189C100.657 71.1238 99.9226 70.3337 99.2122 69.5236C98.5218 68.6966 97.8163 67.8806 97.1528 67.0293C95.8583 65.3042 94.6032 63.5447 93.4395 61.7149C92.0378 59.5357 90.4861 57.333 89.0785 55.0893C87.5553 52.6093 86.0849 50.0966 84.6949 47.5412C83.8387 45.9694 83.0075 44.3834 82.1839 42.7957C80.9406 40.3894 79.7718 37.9287 78.5921 35.5166C77.6797 33.6842 76.5964 31.9122 75.2994 30.5306C75.0213 30.2415 74.692 29.9885 74.4473 29.8461C74.1968 29.6994 73.9966 29.7531 73.8307 29.8008C73.7503 29.8142 73.6422 29.8486 73.514 29.8955C73.3875 29.9265 73.2484 29.9558 73.0926 29.9759C72.9501 29.9927 72.7943 30.0413 72.6636 30.0404C72.4424 30.0396 72.3259 29.8528 72.331 29.4548C72.331 29.3559 72.3695 29.2411 72.4055 29.1146C72.4349 28.9906 72.5111 28.8482 72.625 28.6865C72.8261 28.3623 73.1872 28.0414 73.6874 27.9056C74.0552 27.8168 74.4599 27.8202 74.8369 27.9542C75.0338 27.9978 75.2098 28.1034 75.3958 28.1897C75.5717 28.2785 75.6714 28.3614 75.8139 28.4494C76.2998 28.7937 76.6793 29.175 77.0279 29.5662C77.7158 30.3513 78.2788 31.1858 78.7932 32.0429C79.3068 32.9 79.7693 33.7864 80.1974 34.6812C80.6163 35.5501 81.0378 36.4223 81.4584 37.2953C82.7193 39.8792 84.0087 42.4673 85.3727 45.0101L85.3359 45.0344Z" fill="#231F20"/>
<path fill-rule="evenodd" clip-rule="evenodd" d="M69.3777 29.2309C69.0727 28.5967 68.7317 27.9716 68.3438 27.3759C68.1997 27.1606 68.0179 26.9771 67.8705 26.7643L67.475 26.2021C67.4507 26.1301 67.3049 26.001 67.1415 25.8796C66.8123 25.6324 66.4151 25.4179 66.013 25.2679C65.656 25.1397 65.2673 25.0962 64.9565 25.1456C64.742 25.1649 64.623 25.2721 64.5359 25.3383C64.4672 25.4146 64.3892 25.5109 64.3029 25.707C64.2393 25.81 63.9217 25.836 63.6243 25.6508C63.4819 25.5545 63.3218 25.407 63.2565 25.1917C63.2146 24.973 63.2062 24.6798 63.4182 24.4401C63.579 24.2097 63.7977 24.0765 64.0189 23.9383C64.2225 23.852 64.4638 23.7481 64.6523 23.7297C65.0662 23.6467 65.4156 23.676 65.7541 23.7204C66.4202 23.831 67.0075 24.0355 67.5496 24.3706C67.8788 24.5801 68.1972 24.7141 68.6228 25.1154C68.87 25.3676 69.1213 25.6181 69.345 25.8888C69.8343 26.487 70.275 27.1196 70.6856 27.7706C70.9361 28.1719 71.1724 28.5816 71.4036 28.993C71.753 29.618 72.0395 30.2782 72.3671 30.9099C72.6243 31.3992 72.9628 31.85 73.2393 32.3485C73.3005 32.4583 73.3658 32.5647 73.4102 32.6811C73.5719 33.1185 73.4463 33.3112 72.9729 33.5349C72.8648 33.586 72.7592 33.6421 72.6503 33.6832C72.2926 33.8172 71.8954 33.7427 71.6809 33.4997C71.0291 32.7858 70.7007 31.9606 70.2776 31.1278C69.9751 30.5103 69.6726 29.8786 69.3383 29.2577L69.3777 29.2309Z" fill="#231F20"/>
<path fill-rule="evenodd" clip-rule="evenodd" d="M62.9351 26.5316C62.5371 25.6845 62.0973 24.8601 61.5686 24.1245C61.3625 23.8756 61.1379 23.6276 60.9184 23.4073C60.7358 23.1886 60.5389 22.9992 60.3336 22.8225C60.1334 22.6281 59.9348 22.4798 59.7061 22.3474C59.2587 22.0868 58.7342 21.9209 58.2105 21.9486C57.7464 21.9687 57.2973 22.1522 56.9588 22.4471C56.5072 22.83 56.307 23.3922 56.0699 23.9946C55.9919 24.1806 55.7305 24.1513 55.4892 23.92C55.2446 23.698 55.0108 23.2179 55.1885 22.711C55.4758 21.8238 56.2215 21.0312 57.1339 20.6709C58.0539 20.3425 59.0526 20.3936 59.8753 20.7538C60.8841 21.1518 61.7404 21.7886 62.3989 22.5024C63.1186 23.3034 63.6691 24.1865 64.1584 25.0821C64.4617 25.6326 64.7323 26.1956 64.9987 26.7553C65.3992 27.6065 65.7419 28.4804 66.1248 29.3216C66.418 29.9768 66.8009 30.5833 67.1285 31.2168C67.2022 31.3567 67.2885 31.4865 67.3514 31.6306C67.5834 32.166 67.5399 32.3755 67.1042 32.6712C67.0095 32.7366 66.9207 32.8086 66.8277 32.8614C66.5252 33.0332 66.0904 32.9427 65.8525 32.5799C65.1076 31.5234 64.5974 30.3337 64.0796 29.1523C63.7026 28.2726 63.3297 27.392 62.8974 26.5542L62.9351 26.5316Z" fill="#231F20"/>
<path fill-rule="evenodd" clip-rule="evenodd" d="M52.7984 34.0034L54.4012 36.7557L55.2105 38.1206L55.6814 38.8998C55.9403 39.322 56.2067 39.746 56.4924 40.1657C56.6039 40.4221 56.7438 40.6986 56.8309 40.9366L56.856 41.4853C56.8418 41.6169 56.7999 41.8121 56.6382 42.0224C56.4933 42.205 56.3341 42.3006 56.159 42.3969C55.7987 42.5687 55.2893 42.6307 54.6869 42.5728C54.3853 42.5435 54.0753 42.4958 53.7594 42.4338C53.6036 42.4078 53.4444 42.3659 53.2877 42.3332L52.8772 42.2394C51.4604 41.885 50.1089 41.4535 48.7583 40.9952C48.0939 40.769 47.3902 40.5134 46.7618 40.2763C46.1351 40.0526 45.4774 39.8482 44.823 39.6622C43.5135 39.2952 42.1763 38.9894 40.876 38.8596C40.2266 38.7959 39.5748 38.7875 39.0378 38.8897C38.7747 38.9391 38.5552 39.0296 38.4446 39.1117C38.3423 39.1905 38.3197 39.2282 38.2979 39.3555C38.1513 40.242 38.8149 41.3228 39.7382 42.2184C41.3795 43.8195 43.526 45.0771 45.6692 46.2392C47.8342 47.4063 50.0754 48.4251 52.3342 49.5671C52.9056 49.8738 53.4544 50.1301 54.0887 50.6228C54.6106 51.0828 55.0572 51.5461 55.4828 52.0128L57.998 54.7827C59.6787 56.5899 61.3913 58.3502 63.2672 59.8725C64.1151 60.5135 64.9797 61.1544 65.9164 61.6085C66.3806 61.8758 66.8456 62.0098 67.3525 62.2336C67.8837 62.4631 68.4475 62.6365 68.9502 62.9122C71.0197 63.926 72.8571 65.2657 74.5638 66.6967C76.7472 68.55 78.7739 70.5684 80.6565 72.6965C82.5475 74.8179 84.317 77.0314 85.96 79.3204C86.9914 80.7405 86.6093 80.7531 85.3693 79.8508C84.7477 79.4 83.909 78.723 82.9363 77.8793C81.9786 77.0222 80.9338 75.9624 79.8497 74.7785C77.926 72.6872 75.9772 70.6287 73.8767 68.7896C71.7746 66.9799 69.5334 65.2707 67.0894 64.3256C66.5641 64.0952 65.6567 63.7944 64.9889 63.4308C64.2726 63.0773 63.6208 62.655 62.9823 62.2227C61.7147 61.3463 60.5945 60.3426 59.5187 59.3145C57.3998 57.2367 55.6186 54.8606 53.7158 52.7894C53.436 52.4845 53.1444 52.1921 52.8839 51.9675C52.656 51.7866 52.2815 51.5629 51.9178 51.3676C51.1805 50.9646 50.3913 50.5809 49.6029 50.1947C48.0185 49.4247 46.4065 48.6505 44.8138 47.806C43.2219 46.9573 41.6401 46.0541 40.1462 44.9481C39.4014 44.3926 38.6766 43.7894 38.0215 43.0655C37.378 42.3424 36.768 41.4736 36.5268 40.3626C36.4958 40.0702 36.4304 39.7753 36.4673 39.4745C36.479 39.322 36.4865 39.1788 36.5092 39.0196C36.5552 38.8378 36.5888 38.6534 36.6818 38.4825C36.8317 38.1298 37.1132 37.8374 37.3981 37.633C37.6863 37.426 37.9804 37.3121 38.2619 37.2233C39.388 36.9107 40.3682 37.0046 41.3359 37.0967C43.2588 37.3305 45.0685 37.8131 46.8623 38.3946C48.6385 39.0388 50.3058 39.632 52.0645 40.1331C52.4985 40.2571 52.9341 40.3752 53.3673 40.4799C53.5625 40.5285 53.7485 40.5721 53.9479 40.6023C54.0468 40.6173 54.1465 40.6282 54.2479 40.6299C54.3367 40.6265 54.485 40.6265 54.495 40.5143C54.4422 40.3291 54.2923 40.1825 54.2001 40.0049L53.7787 39.3111C51.2995 35.1789 48.9351 31.0015 46.5297 26.8517C44.6085 23.7374 43.1298 20.283 42.0531 16.7825C41.7808 15.9045 41.5295 15.0214 41.3058 14.1299C41.0762 13.2536 40.8701 12.3043 40.7838 11.3793C40.695 10.4443 40.6414 9.50339 40.8173 8.50804C40.8642 8.25836 40.9262 8.00701 41.0335 7.74728C41.1374 7.48755 41.3167 7.17336 41.5496 6.96474C42.0112 6.50644 42.7569 6.43104 43.3375 6.62542C44.162 6.88096 44.7744 7.34596 45.3366 7.85117C45.8896 8.36142 46.3613 8.92528 46.7936 9.50423C47.6474 10.668 48.3478 11.8996 49.0239 13.112C50.3318 15.5023 51.881 17.803 53.3706 20.1263C54.0392 21.1468 54.6953 22.1455 55.3697 23.1744C57.8388 27.0209 58.4697 28.3581 58.5309 29.4607C58.5443 29.712 58.5937 30.0246 58.5585 30.1955C58.4329 30.7736 57.2331 29.3317 55.3764 26.5676C54.0007 24.5149 52.5898 22.4371 51.1973 20.3048C50.5002 19.2391 49.809 18.1583 49.1287 17.0615C48.4483 15.9883 47.7605 14.7876 47.1631 13.6775C46.5481 12.5632 45.9214 11.4824 45.2135 10.5214C44.5197 9.58298 43.666 8.72588 42.8943 8.43682C42.8575 8.42761 42.8206 8.41588 42.7854 8.40163C42.7787 8.39912 42.7795 8.4008 42.7795 8.4008L42.7753 8.40247C42.7762 8.41085 42.7695 8.40331 42.772 8.41001C42.767 8.42007 42.6681 8.67812 42.6388 8.8968C42.5977 9.13307 42.5751 9.40369 42.5676 9.68353C42.5516 10.823 42.7016 12.0605 43.0066 13.2276C43.9232 16.9023 45.2151 20.5377 46.9905 23.853C48.9385 27.2253 50.8873 30.6001 52.8336 33.9716L52.7984 34.0034Z" fill="#231F20"/>
<path fill-rule="evenodd" clip-rule="evenodd" d="M92.7266 72.5901C92.2591 72.9797 91.7263 73.2973 91.2269 73.6366C90.6781 73.9097 90.1687 74.244 89.5998 74.4577C89.1868 74.616 88.8047 74.8473 88.3841 74.978C87.6267 75.1615 86.8852 75.3818 86.1178 75.4296C85.7374 75.4631 85.362 75.5385 84.9842 75.5368L83.8531 75.536C83.1853 75.567 82.5285 75.4656 81.8716 75.4673C81.0246 75.4932 80.1926 75.2989 79.4109 74.9671C79.1679 74.859 79.2668 74.5825 79.5391 74.2985C79.8122 74.0203 80.2579 73.6869 80.7087 73.6609C81.4887 73.6944 82.2654 73.7279 83.0496 73.7614C83.44 73.8075 83.8179 73.7413 84.2075 73.7665C84.5954 73.7774 84.9917 73.8201 85.3788 73.7857C86.3281 73.7841 87.253 73.4364 88.1353 73.0962C88.6145 72.8901 89.1139 72.7158 89.5613 72.436C89.79 72.3061 90.0263 72.1871 90.2517 72.0489L90.901 71.5898C91.1766 71.4113 91.4246 71.196 91.671 70.9765C91.9173 70.7578 92.1779 70.5525 92.394 70.2995C93.097 69.5857 93.7379 68.7838 94.2473 67.9125C94.6336 67.2271 94.8723 66.4806 95.1321 65.7492C95.1865 65.5867 95.2226 65.4191 95.2871 65.2599C95.5946 64.6994 95.871 64.5905 96.3377 64.6307C96.4366 64.6374 96.5287 64.6298 96.6016 64.6391C96.8069 64.6533 97.1127 65.0697 97.1085 65.6084C96.987 67.1618 96.207 68.6096 95.2703 69.9417C94.5489 70.922 93.7086 71.8319 92.7601 72.6253L92.7266 72.5901Z" fill="#231F20"/>
<path fill-rule="evenodd" clip-rule="evenodd" d="M96.279 74.5907C96.2429 74.5103 96.1918 74.4039 96.1047 74.2933C96.062 74.2413 96 74.1777 95.9329 74.1752C95.8693 74.1743 95.8299 74.2112 95.7972 74.2497C95.7277 74.3268 95.6883 74.45 95.7285 74.574C95.7469 74.636 95.7779 74.6988 95.8148 74.765L95.8701 74.8706L95.9103 74.9569L95.9346 75.0105L96.0067 75.1973C96.1684 75.5752 96.2387 76.0703 96.2195 76.5303C96.1902 76.7498 96.1575 76.9802 96.1022 77.1838C96.0486 77.3723 95.974 77.5852 95.8433 77.8265C95.6875 78.0745 95.4864 78.3987 94.9904 78.6258C94.4944 78.8411 93.995 78.7573 93.6951 78.6442C93.1279 78.4062 92.8807 78.1398 92.6285 77.9002C92.5187 77.7921 92.4291 77.6865 92.3344 77.581L92.2029 77.4235C92.1635 77.3774 92.1828 77.395 92.1643 77.3715L92.0554 77.2031L91.8108 76.8076C91.7178 76.6661 91.6223 76.506 91.4832 76.3695C91.3357 76.248 91.1196 76.1977 90.9587 76.2748C90.7995 76.3477 90.7048 76.5161 90.7342 76.6719C90.7543 76.8294 90.8246 76.9836 90.8992 77.1486L91.1489 77.6765L91.21 77.8231L91.3005 78.0812C91.3382 78.2613 91.3927 78.3769 91.4036 78.6115C91.4086 78.7246 91.4162 78.8235 91.4061 78.9458C91.3801 79.0924 91.3382 79.2424 91.2829 79.3798C91.1615 79.6178 90.89 79.8984 90.6981 79.9512C90.5926 79.9998 90.4811 80.0425 90.3756 80.0735L90.1309 80.102C89.9759 80.1213 89.8025 80.1297 89.5905 80.0945C89.4045 80.0576 89.2403 79.999 89.0962 79.9303C88.5432 79.6471 88.2081 79.2885 87.8897 78.9601C87.5579 78.6107 87.3459 78.3317 87.0963 78.0569C86.9848 77.9362 86.8776 77.8265 86.7561 77.7511C86.6949 77.7167 86.6271 77.6807 86.5508 77.6999C86.4696 77.7201 86.4285 77.8147 86.3799 77.8742C86.2794 78.2135 86.3933 78.5009 86.493 78.7347C86.6061 78.976 86.7184 79.2164 86.8323 79.4594C86.8667 79.5289 86.8525 79.5918 86.8365 79.6588C86.8282 79.7409 86.7896 79.8172 86.7209 79.8415C86.5726 79.8825 86.3841 79.8775 85.9451 79.6027C85.527 79.3404 84.8266 78.7087 84.2895 77.9119C84.003 77.5089 83.8396 77.1327 83.7189 76.7699C83.641 76.4373 83.6058 76.1156 83.672 75.8416C83.7491 75.447 83.9385 75.0666 84.2987 74.6544C84.4202 74.5581 84.5191 74.4441 84.659 74.3628C84.7981 74.2799 84.9514 74.2305 85.0704 74.1953C85.3117 74.1408 85.4851 74.1249 85.6778 74.1534C86.0515 74.207 86.483 74.3628 87.0653 74.8991C87.6442 75.3808 88.2701 76.2823 88.9144 76.9878L89.3752 77.4863C89.4816 77.5969 89.5293 77.6446 89.6056 77.7133C89.7413 77.8399 89.8762 77.9438 89.9491 77.9848C89.9809 78.0292 90.0203 77.9035 89.9072 78.2295C89.8762 78.3283 89.8645 78.4364 89.8561 78.4783L89.8553 78.5261V78.5512V78.5545C89.8595 79.0639 89.8511 77.8642 89.8519 77.9873L89.8527 77.9865V77.9856L89.8561 77.9798L89.8595 77.9806C89.8611 77.9932 89.8972 78.1767 89.9256 78.2655C89.9742 78.3987 89.9633 78.4364 89.9734 78.4942C89.9835 78.5512 90.0019 78.6082 90.0295 78.6626C90.0563 78.7179 90.0924 78.7707 90.1368 78.8201C90.1401 78.8293 90.1351 78.8319 90.141 78.8402C90.1443 78.8486 90.1527 78.8578 90.1653 78.8654C90.1946 78.8821 90.1049 78.8268 90.0798 78.8235C90.0387 78.8101 89.9985 78.8051 89.9608 78.8067C89.9399 78.8059 89.9298 78.8126 89.9005 78.8118L89.7614 78.7958C89.5863 78.7816 89.376 78.8109 89.252 78.8587C89.2353 78.8268 89.2453 78.8084 89.2152 78.7313C89.1816 78.6174 89.0526 78.3367 88.9429 78.139L88.6052 77.4963C88.1394 76.6459 87.7783 75.8207 87.7431 75.2912C87.6987 74.7432 87.7406 74.3863 87.8956 73.9397C88.0053 73.6389 88.2265 73.2954 88.5348 73.0248C88.8448 72.7559 89.257 72.5707 89.6475 72.5322C90.0488 72.4811 90.4015 72.5632 90.647 72.683C90.9135 72.8028 91.1799 72.9469 91.4941 73.1781C92.1333 73.6381 92.874 74.7424 93.5878 75.6213L93.8635 75.9463L94.0143 76.1097C94.114 76.2128 94.2145 76.315 94.3017 76.3854C94.388 76.4633 94.4768 76.5136 94.4768 76.5136C94.4106 76.6719 94.3318 76.8948 94.3302 76.9962C94.3176 77.1068 94.3469 77.1512 94.3243 77.1001C94.3084 77.0724 94.2966 77.0623 94.2363 76.9853C94.1844 76.9291 94.1349 76.9048 94.0269 76.8118C93.9783 76.7758 93.928 76.744 93.8769 76.7172C93.8618 76.7113 93.871 76.7264 93.871 76.7138C93.8752 76.7012 93.8811 76.6887 93.8878 76.6778C93.9263 76.594 93.9422 76.4901 93.9565 76.4164C93.9607 76.3368 93.9724 76.2731 93.9481 76.1927C93.9464 76.1566 93.9355 76.1122 93.9121 76.0636L93.8878 75.9916C93.8844 75.9723 93.8233 75.8827 93.7948 75.8307C93.5133 75.3532 93.086 74.7792 92.8941 74.3151C92.6779 73.8375 92.5648 73.4094 92.5087 72.9846C92.4157 72.1459 92.5925 71.2209 93.0349 70.5038C93.2426 70.1628 93.5895 69.8134 94.0344 69.7497C94.4542 69.7045 94.7725 69.8377 95.0951 70.0027C95.4864 70.2046 95.886 70.5272 96.3049 70.9654C96.7222 71.4095 97.1428 71.9733 97.5407 72.5456L98.1314 73.3666C98.3049 73.6113 98.4054 73.7479 98.5395 73.9171C98.6006 73.9933 98.6668 74.0713 98.7045 74.1065C98.7112 74.1132 98.7305 74.1349 98.7263 74.1299C98.7657 74.0671 98.6107 74.2581 98.5403 74.3922C98.4624 74.5095 98.4196 74.5555 98.4071 74.6686C98.4004 74.7055 98.3912 74.6963 98.3937 74.7189C98.3945 74.7273 98.397 74.7357 98.4029 74.7441C98.3618 74.6628 98.3886 74.7189 98.3786 74.7013L98.3777 74.7072C98.356 74.6888 98.33 74.677 98.304 74.672C98.278 74.677 98.1465 74.6469 98.0485 74.6578C97.9915 74.6603 97.963 74.6762 97.8859 74.6829C97.8206 74.6862 97.6932 74.7063 97.7276 74.6996C97.7251 74.6946 97.7318 74.703 97.7251 74.6854C97.71 74.6343 97.6807 74.553 97.6413 74.4667C97.4846 74.1123 97.2534 73.7102 97.0288 73.3206L96.201 71.9356C95.5157 70.7777 94.8882 69.5897 94.7164 68.7233C94.6251 68.2642 94.5321 67.8553 94.6343 67.382C94.7306 66.9195 95.0892 66.4076 95.6112 66.2509C95.8952 66.152 96.1876 66.1529 96.4164 66.2123C96.6526 66.2676 96.7825 66.3942 96.9593 66.4872C97.3221 66.6975 97.7779 66.8985 98.356 67.4038C98.9257 67.9433 99.5231 68.5248 100.142 69.0643C100.501 69.3827 100.666 69.5168 100.872 69.6852L101.484 70.1837C101.849 70.4669 102.208 70.7451 102.574 71.0299C103.921 72.099 104.223 72.5062 104.168 73.2535C104.156 73.4219 104.173 73.6071 104.14 73.7596C104.058 74.274 103.112 74.2472 101.969 73.5166C100.451 72.6134 98.1348 70.5817 98.6484 71.1589C98.5906 71.1916 98.6609 71.319 98.6626 71.3022C98.6626 71.3022 98.6576 71.2989 98.6534 71.3031L98.65 71.3072L98.6492 71.3098L98.7598 71.5083L99.3245 72.5397C99.5139 72.91 99.7007 73.2477 99.9035 73.8032L99.9822 74.0612C100.01 74.1685 100.038 74.3025 100.054 74.4558C100.063 74.5731 100.064 74.6938 100.056 74.8119L100.048 74.9058C100.038 74.9627 100.027 75.0205 100.013 75.0783C99.9839 75.1931 99.9445 75.3079 99.8942 75.4152C99.8381 75.5861 99.5566 75.9514 99.2784 76.1139C99.0262 76.2991 98.5034 76.4214 98.1222 76.346C97.9077 76.3033 97.7619 76.2446 97.5935 76.16C97.4963 76.1089 97.4754 76.0913 97.4427 76.0695L97.3464 75.9991C97.1972 75.8877 97.1436 75.8274 97.0774 75.7612C96.9425 75.6238 96.8688 75.5299 96.7875 75.4286C96.6325 75.2325 96.5194 75.0658 96.4013 74.8957L96.3041 74.7516C96.2899 74.7273 96.2974 74.7373 96.2924 74.729L96.2656 74.6695L96.279 74.5907Z" fill="#231F20"/>
<path fill-rule="evenodd" clip-rule="evenodd" d="M6.02548 22.6018L5.55462 22.7568C5.44738 22.7761 5.05192 22.9051 4.81565 22.9302C4.54838 22.9646 4.29032 22.9688 4.02808 22.9906C3.765 23.0107 3.5547 22.9286 3.31592 22.9026C3.19694 22.8691 3.10981 22.7803 3.00592 22.7225L2.85511 22.6244L2.83583 22.6127C2.78724 22.6537 2.90119 22.5532 2.88778 22.5633L2.88527 22.5607L2.88108 22.5566L2.87186 22.549L2.83416 22.5155L2.76797 22.4518C2.57611 22.3119 2.58029 22.0505 2.57024 21.7866C2.5694 21.5185 2.65067 21.1993 2.742 20.8909C2.78389 20.7359 2.83583 20.5809 2.88946 20.4251L3.021 20.0514C3.27402 19.3661 3.54548 18.7067 3.82197 18.0482L4.67154 16.0926L5.10721 15.1224L5.23875 14.8568L5.09046 14.7622L4.49643 14.4103C3.86638 14.0324 3.23213 13.6487 2.60794 13.2122C2.29794 12.9868 1.98794 12.7589 1.68883 12.4883C1.53886 12.3592 1.39224 12.2126 1.24813 12.0601C1.1744 11.9889 1.10654 11.8984 1.03783 11.8155C0.974159 11.7401 0.891213 11.6404 0.809105 11.4929C0.501619 11.0706 0.386835 10.5939 0.337402 10.1331C0.362537 9.9228 0.403592 9.69323 0.535132 9.51478C0.669186 9.34469 0.845132 9.20478 1.06129 9.09586C1.26405 8.98107 1.51456 8.89142 1.73324 8.82021L1.90248 8.76407L2.01643 8.73223L2.24013 8.67107C2.83332 8.51607 3.41394 8.40045 3.9954 8.29237C4.57519 8.18597 5.15413 8.09297 5.73392 8.00583L6.60275 7.88183C6.96805 7.83072 7.01748 7.82905 7.12724 7.81815C7.16159 7.77961 7.18338 7.72348 7.2127 7.67572L7.39032 7.33053L7.82097 6.50275C8.11086 5.95145 8.40746 5.40267 8.71494 4.85724C9.02243 4.3118 9.33913 3.76972 9.67846 3.23518C9.8477 2.96707 10.0253 2.70232 10.2122 2.4384C10.3052 2.30686 10.4023 2.17532 10.5046 2.04545C10.6093 1.91642 10.6956 1.79578 10.8791 1.6081C11.1723 1.29726 11.5049 1.02832 11.8954 0.96883C12.104 0.926938 12.2825 1.03586 12.4517 1.12886C12.6327 1.20091 12.7751 1.37937 12.936 1.50672C13.2736 1.8318 13.406 2.03037 13.5962 2.27921C13.778 2.51715 13.9347 2.7618 14.0972 3.00561C14.7248 3.98505 15.2735 4.98626 15.788 5.99502C16.1189 6.64267 16.4415 7.29451 16.7481 7.95724L16.9509 8.39794C16.9894 8.45659 16.9953 8.55378 17.0606 8.5764L17.8289 8.70459C19.2474 8.95175 20.6608 9.22405 22.0592 9.56421C23.8019 9.98899 21.2959 11.0681 18.0342 10.4875L16.9425 10.2923L15.86 10.0954C15.6631 9.82478 15.5609 9.43853 15.4059 9.11429C15.0867 8.37364 14.8152 7.78045 14.4952 7.11437C13.8702 5.82913 13.2099 4.53048 12.4534 3.40526L12.1668 3.00394L12.0211 2.82715L12.006 2.80286C11.9976 2.7861 11.9766 2.75091 11.9507 2.76348C11.9004 2.80621 11.9892 2.67634 11.706 3.0274C11.5033 3.28461 11.303 3.56697 11.1086 3.86021C10.3295 5.03821 9.61394 6.31842 8.91016 7.60283C8.80543 7.79805 8.7007 7.99326 8.59429 8.19099L8.35719 8.64845C8.26419 8.82105 8.17202 8.99196 8.07148 9.15702L6.83484 9.31788L5.99029 9.44105C5.42643 9.52818 4.86256 9.62537 4.30289 9.73513C3.74405 9.84488 3.18521 9.96637 2.65402 10.1138L2.31554 10.2135C2.25521 10.2336 2.22002 10.2454 2.17478 10.2655C2.0977 10.2965 1.97621 10.3526 2.02229 10.459C2.03235 10.526 2.06 10.5897 2.091 10.6492L2.14713 10.7347L2.29292 10.9123C2.52584 11.1754 2.81154 11.4309 3.11735 11.6747C3.64016 12.0878 4.22329 12.4665 4.81732 12.8335L5.72302 13.3747L7.18924 14.2075L6.14948 16.5107L5.3904 18.2568C5.1424 18.8399 4.90027 19.4247 4.67238 20.0112L4.38919 20.7669C4.34143 20.8993 4.29451 21.0359 4.26183 21.1792C4.25681 21.2336 4.22581 21.3132 4.27775 21.3492C4.33556 21.3585 4.39338 21.3769 4.45286 21.3802C4.57602 21.3861 4.69919 21.3719 4.82319 21.3509L5.01002 21.3065C5.12984 21.2797 5.25132 21.2353 5.37197 21.1942C5.85792 21.0401 6.33883 20.818 6.81473 20.5952C7.76316 20.1268 8.68059 19.5722 9.55529 18.9614C10.3948 18.3565 10.9428 17.9744 12.1392 16.8107C12.4969 17.1517 12.8857 17.5228 13.22 17.8203L13.9799 18.4847C14.4902 18.9245 15.0172 19.3393 15.55 19.7431C16.0896 20.1344 16.6317 20.5248 17.1997 20.8524C17.4779 21.03 17.7711 21.1641 18.0568 21.3174L18.4942 21.5034C18.6215 21.5671 18.8302 21.6266 18.8838 21.64C19.0622 21.6961 19.2742 21.7321 19.4636 21.7087C19.549 21.6919 19.6889 21.7087 19.6822 21.5788C19.6856 21.4783 19.6655 21.3802 19.642 21.2847C19.6194 21.1892 19.5918 21.097 19.5624 21.0074L19.4351 20.6312C19.322 20.3061 19.198 19.981 19.0706 19.656C18.8142 19.0075 18.5411 18.3615 18.2613 17.7172L17.2885 15.4609C17.1226 15.052 16.9366 14.6331 16.7808 14.2217C17.343 14.1304 17.9077 14.0391 18.4816 13.9461C19.1159 13.8322 19.6403 13.7375 20.0819 13.6587C20.4706 13.5892 20.7815 13.5381 21.0404 13.5087C21.5582 13.4467 21.8682 13.4811 22.1648 13.5825C22.3047 13.6353 22.4697 13.6487 22.5803 13.704C22.7663 13.781 22.6666 14.0307 22.272 14.3072C21.8816 14.5829 21.2306 14.8585 20.3835 15.0856C19.9897 15.192 19.539 15.3 19.1804 15.3813C19.105 15.4115 19.0287 15.4416 18.9508 15.4726C18.9743 15.5237 19.012 15.5765 19.0379 15.6167L19.0765 15.6737C19.0874 15.6955 19.0773 15.6637 19.1058 15.7273L19.1879 15.9125C19.4049 16.411 19.6236 16.9112 19.8431 17.4147C20.0584 17.9216 20.2687 18.4344 20.4732 18.9589L20.7714 19.7557L20.9139 20.1645L20.9817 20.374L21.0848 20.7225C21.4057 21.7698 21.4802 22.859 20.541 23.1221L20.2495 23.2469C20.1414 23.2712 20.009 23.2595 19.8892 23.267C19.642 23.2662 19.4058 23.2964 19.1485 23.2704C18.8997 23.2553 18.5989 23.1472 18.3325 23.0735C18.1616 23.0299 18.0191 22.9646 17.8708 22.9034C16.687 22.4099 15.7059 21.7556 14.7549 21.0719C14.1642 20.6396 13.5928 20.1905 13.039 19.7222L12.2163 19.0108C12.1182 18.9229 12.1576 18.9572 12.1492 18.9497L12.1484 18.9472L12.1451 18.9413C12.1409 18.943 12.1442 18.9379 12.13 18.9488C11.8728 19.1784 11.6038 19.382 11.3399 19.5973C10.8003 20.0045 10.2557 20.4016 9.68684 20.7619C8.55324 21.4908 7.37692 22.1443 6.04392 22.637L6.02548 22.6018Z" fill="#231F20"/>
<path fill-rule="evenodd" clip-rule="evenodd" d="M74.5069 19.8076L74.6921 20.462C74.78 20.7795 74.8621 21.1004 74.9032 21.4037C74.9962 22.0329 74.9283 22.4996 74.6032 22.8682C74.4047 23.0274 74.1517 23.0668 73.9313 23.169C73.6732 23.2076 73.3808 23.1849 73.1119 23.195C72.8312 23.1766 72.5229 23.0609 72.2347 22.9998C71.9389 22.947 71.6356 22.7953 71.4957 22.7292C70.9687 22.4912 70.4752 22.2508 70.0228 21.9491C69.2294 21.4163 68.5013 20.8315 67.8008 20.2257C67.4531 19.9199 67.1096 19.6116 66.7728 19.2982L66.2701 18.824C66.1696 18.7276 66.1386 18.6933 66.1059 18.6573L65.9945 18.5391C65.9341 18.4763 65.8713 18.4059 65.8085 18.3506L65.48 18.6606L65.1658 18.9421L64.8022 19.2546C63.9987 19.9325 63.1877 20.6379 62.1848 21.0141C61.5657 21.2345 61.4601 19.3996 62.3532 18.7804C62.8207 18.4587 63.2774 18.1236 63.7256 17.7826L64.0574 17.5245C64.1822 17.4248 64.2224 17.3988 64.4972 17.1617L65.7934 15.9611C66.3522 16.5174 66.9127 17.0754 67.4766 17.6368C67.7824 17.9501 68.0891 18.2652 68.3982 18.5827C69.2654 19.4591 70.342 20.1721 71.3784 20.7837C71.6641 20.9462 71.9507 21.1105 72.2389 21.2328C72.3712 21.299 72.3888 21.3073 72.4642 21.3358C72.5271 21.3601 72.5916 21.3911 72.6628 21.402C72.7332 21.4146 72.8069 21.4431 72.8832 21.4347C72.9477 21.4255 73.0675 21.464 73.0792 21.3744C73.1077 21.2386 73.075 21.0945 73.0491 20.9429L73.0189 20.8013C73.0055 20.7477 73.003 20.7251 72.9661 20.6002L72.7809 19.9894C72.6519 19.5806 72.5128 19.1725 72.3671 18.7662L71.6851 16.9154C71.3667 16.1136 71.05 15.3151 70.7349 14.52C70.7215 14.4739 70.6746 14.4069 70.6905 14.3793C71.3742 14.2712 72.0629 14.1388 72.7583 13.9729C73.22 13.8489 73.6758 13.7107 74.124 13.5708L74.7256 13.363C75.4712 13.1242 75.6748 13.1485 76.02 13.492C76.0996 13.5699 76.196 13.6395 76.2697 13.7207C76.5395 13.9763 76.2982 14.4664 75.6841 14.768C75.0297 15.0948 74.3628 15.3193 73.6791 15.5112L73.1638 15.6452L73.0449 15.6737L73.039 15.6821L73.0315 15.6963C73.0256 15.7131 73.0298 15.7232 73.0357 15.7299C73.0524 15.7441 73.0574 15.7416 73.0574 15.7416C73.5844 17.0428 74.093 18.3942 74.5471 19.7917L74.5069 19.8076Z" fill="#231F20"/>
<path fill-rule="evenodd" clip-rule="evenodd" d="M58.9698 7.82921L60.0372 7.68091L60.5357 7.61808C60.6111 7.61137 60.5994 7.61808 60.6387 7.61724C60.6555 7.603 60.6689 7.58037 60.6848 7.55859L60.9144 7.12459L61.4213 6.17364C61.7631 5.54191 62.1142 4.9127 62.4811 4.28683C62.885 3.60483 63.2603 2.90273 63.7538 2.23581C63.8669 2.08332 63.9867 1.93083 64.1158 1.77835C64.1686 1.71551 64.2616 1.60324 64.3772 1.49013C64.4819 1.37702 64.59 1.26978 64.7073 1.18097C64.9335 0.984077 65.1865 0.854212 65.4546 0.803942C65.737 0.734402 66.0001 0.858401 66.2355 0.972347C66.4056 1.09635 66.5522 1.24716 66.7097 1.38121C66.8656 1.50521 67.0147 1.71216 67.0867 1.79678C67.266 2.01881 67.4135 2.24167 67.5643 2.46537C67.8567 2.91362 68.1164 3.36605 68.3644 3.82267C68.8604 4.73508 69.3011 5.66089 69.7243 6.59424L70.48 8.27829L70.5981 8.54473L70.6425 8.64359C70.6626 8.66873 70.7104 8.65951 70.7431 8.66956L71.4401 8.77932C72.9692 9.02564 74.5192 9.19321 76.0114 9.63643C76.9422 9.91292 75.466 11.1797 73.7082 10.8739L71.3748 10.4491L69.7971 10.1475L69.5098 10.0922C69.4561 10.0202 69.4302 9.91543 69.39 9.82829L69.1671 9.28454L68.8965 8.62348C68.3024 7.19329 67.6757 5.7564 66.9854 4.37397C66.7868 3.97181 66.5606 3.58808 66.3193 3.21691C66.1944 3.04516 66.0721 2.85329 65.9372 2.70248C65.8367 2.57513 65.825 2.56759 65.7546 2.50392C65.6976 2.43773 65.6038 2.42683 65.5384 2.488C65.4672 2.54162 65.4303 2.58267 65.3558 2.67316C65.0734 3.01919 64.8003 3.42219 64.5364 3.82937C64.037 4.60102 63.5703 5.41708 63.1171 6.23983L61.6299 9.02313L60.5985 9.15635C59.3016 9.33062 57.9987 9.52248 56.742 9.80651C56.5048 9.86181 56.2686 9.91878 56.0407 9.98413C55.8304 10.0445 55.7491 10.0679 55.6109 10.1257C55.4877 10.1693 55.3386 10.2673 55.3981 10.4181C55.4148 10.5522 55.4676 10.6829 55.5405 10.8002C55.5933 10.894 55.7441 11.0909 55.9016 11.2509C56.0549 11.4168 56.2309 11.5727 56.411 11.7243C56.7721 12.0276 57.1726 12.3016 57.5806 12.5622C57.8973 12.7658 58.2249 12.9534 58.5567 13.1344L59.6409 13.6999L60.4243 14.1038L60.6245 14.2068L60.725 14.2588C60.7259 14.2873 60.7033 14.3241 60.6932 14.3568L60.5382 14.7615L60.0062 16.1556C59.8889 16.469 59.7892 16.7807 59.6635 17.0932C59.1993 18.2502 58.9463 18.5745 58.4537 18.6666C58.3414 18.6868 58.2216 18.7261 58.1185 18.7236C57.7717 18.7152 57.7256 18.1438 58.0004 17.2557C58.204 16.5972 58.4268 15.9353 58.6623 15.2709L58.7486 15.0279L58.7444 14.9994L58.7352 14.955C58.7234 14.9316 58.6623 14.9383 58.6464 14.9349L58.6413 14.9341L58.5827 14.9039L58.4629 14.8402L58.2233 14.7104L57.744 14.4448C57.424 14.2638 57.1047 14.0753 56.7864 13.8725C56.1496 13.4628 55.512 13.033 54.8987 12.4315C54.7848 12.3142 54.6717 12.2103 54.5619 12.0712L54.3943 11.8676C54.3281 11.7855 54.2569 11.6498 54.1891 11.5433C53.8883 11.0985 53.7567 10.5916 53.7458 10.1249L53.7827 9.78054C53.8489 9.68419 53.8489 9.55516 53.9134 9.45881C54.0282 9.26275 54.21 9.11446 54.4061 8.97286C54.6206 8.84383 54.8585 8.73659 55.1048 8.64359L55.4617 8.52378L55.6871 8.45759C56.8107 8.15262 57.8789 7.97164 58.9606 7.79151L58.9698 7.82921Z" fill="#231F20"/>
<path fill-rule="evenodd" clip-rule="evenodd" d="M29.5039 10.971L29.3372 11.0154L29.2978 11.023L29.2517 11.0314C29.2224 11.0364 29.1771 11.0531 29.1855 11.0892C29.183 11.1151 29.1897 11.1428 29.1989 11.1713C29.2065 11.1864 29.209 11.1973 29.2216 11.2174L29.3707 11.4101C29.6044 11.6798 29.9027 11.9463 30.2194 12.201C30.8629 12.7104 31.5884 13.1796 32.3316 13.6295L32.65 13.8188L33.1234 14.0861L34.2846 14.7279L33.5599 16.3366C32.9357 17.6721 32.3165 19.0134 31.751 20.3615L31.3765 21.2924C31.3195 21.4273 31.2592 21.573 31.2181 21.7339C31.2106 21.7741 31.1988 21.816 31.2064 21.8571C31.2156 21.9031 31.2692 21.8881 31.3019 21.9031C31.3756 21.9283 31.4536 21.9174 31.5331 21.9207C31.6136 21.9191 31.6932 21.9015 31.777 21.8914C31.8566 21.8788 31.9261 21.8579 32.1247 21.806C33.3161 21.4524 34.4857 20.8458 35.5833 20.2015C36.9891 19.3494 38.3138 18.349 39.5965 17.4031C39.9869 17.1082 40.2458 17.419 40.1847 18.0164C40.1277 18.6171 39.6954 19.4784 38.8726 20.0658C37.4198 21.1055 35.8916 21.9886 34.2343 22.7041C33.8146 22.8767 33.3931 23.0443 32.9449 23.1834C32.8343 23.2186 32.7271 23.2579 32.6081 23.2856L32.1917 23.3945C31.7971 23.5034 31.4184 23.4976 31.0397 23.5453C30.8394 23.5855 30.7003 23.5126 30.5311 23.4984C30.3753 23.4624 30.1859 23.4691 30.0862 23.3677L29.9069 23.2504L29.8181 23.1926L29.7963 23.1783L29.7846 23.1708C29.7377 23.2118 29.8466 23.113 29.834 23.1222L29.8315 23.1197L29.8256 23.1147L29.7821 23.0744C29.6715 22.9697 29.5944 22.8792 29.576 22.7326C29.4478 22.1939 29.7837 21.3209 30.0259 20.7034C30.4364 19.7331 30.8511 18.7537 31.2692 17.7642L31.8976 16.2921L32.1833 15.642L32.2981 15.4024L32.3065 15.3864L32.0685 15.2373L31.3983 14.836C30.9056 14.5344 30.4146 14.2218 29.932 13.8834C29.4503 13.5432 28.9736 13.1821 28.5261 12.7414C28.2957 12.4926 28.1123 12.3292 27.8751 11.9421C27.6112 11.5743 27.5073 11.1587 27.4587 10.7549L27.4705 10.6217C27.4872 10.0813 28.0477 9.8475 28.5362 9.65563L28.904 9.53666L29.1755 9.46209L29.715 9.33055C30.4314 9.16801 31.1427 9.0415 31.8532 8.92085L33.141 8.71893L34.1983 8.57817C34.5033 8.08469 34.8091 7.59288 35.1124 7.10274C35.466 6.55061 35.8187 5.99931 36.1697 5.45052C36.6339 4.74423 37.0838 4.04044 37.5907 3.35174C37.7181 3.17998 37.8488 3.00907 37.9887 2.83898L38.2174 2.57339C38.323 2.45693 38.4428 2.35052 38.5576 2.23742C38.7997 2.0355 39.0586 1.85452 39.341 1.77661C39.63 1.69282 39.9417 1.77828 40.1352 1.95171C40.3371 2.11761 40.5114 2.35471 40.6941 2.58512L41.0719 3.05934C41.8922 4.12758 42.0623 4.53644 41.9081 5.03077C41.8729 5.14304 41.8511 5.2729 41.7992 5.36423C41.6249 5.67088 41.087 5.3902 40.4151 4.63866L39.6719 3.78993C39.5085 3.59136 39.527 3.63996 39.4884 3.60728C39.4591 3.59136 39.4407 3.57628 39.4164 3.57461C39.3544 3.59555 39.3276 3.66342 39.3125 3.69525C39.3108 3.69944 39.31 3.70447 39.3041 3.71285L39.227 3.80166L39.0645 3.99855L38.7394 4.41998C37.8781 5.58709 37.0503 6.89328 36.2451 8.20031C35.8832 8.80355 35.5204 9.4068 35.1568 10.0134L33.3395 10.2706L32.0375 10.4784C31.1779 10.6275 30.3082 10.7901 29.5173 11.0071L29.5039 10.971Z" fill="#231F20"/>
<path fill-rule="evenodd" clip-rule="evenodd" d="M9.091 21.7132C8.33025 22.1899 7.54687 22.6281 6.72579 23.0127C6.31441 23.2028 5.89214 23.3796 5.45646 23.5363C5.23025 23.6067 5.0166 23.6888 4.78116 23.7466L4.43011 23.8329C4.3036 23.8681 4.224 23.8714 3.99611 23.9083C3.55373 23.9862 3.19346 23.91 2.79549 23.8765L2.4327 23.6863C2.47543 23.6025 2.39416 23.6226 2.38411 23.5857L2.31122 23.5128C2.28106 23.455 2.23581 23.4073 2.22157 23.3386C2.13192 23.0847 2.16627 22.7429 2.22325 22.4111C2.32714 21.8489 2.39416 21.6738 2.47208 21.3772L2.71673 20.5611L3.24457 18.9575L4.34884 15.8449L4.46195 15.5467C4.29941 15.4495 3.40879 14.9644 2.78376 14.5848C2.23079 14.2514 1.67111 13.9062 1.15249 13.4529C0.651461 13.0072 0.130326 12.383 0.0540829 11.5544C0.0524072 11.0257 0.416029 11.1916 0.770434 11.4312C1.16422 11.6826 1.57727 11.8242 2.00876 12.2347C2.44108 12.6587 3.02506 13.0524 3.61238 13.4353L4.52395 14.0009L6.09741 14.9183L5.57208 16.3719L5.27716 17.1419C5.07776 17.653 4.87752 18.1666 4.67643 18.6827C4.39408 19.4016 4.15195 20.1514 3.93914 20.9072C3.83273 21.2842 3.73219 21.6646 3.64506 22.0391L3.57803 22.3449C3.56546 22.4086 3.55289 22.4739 3.55373 22.5426C3.55457 22.6055 3.6283 22.5887 3.66852 22.6071C3.73219 22.6147 3.80173 22.6197 3.87043 22.6113C3.88133 22.6147 4.08325 22.5879 4.2617 22.5359C4.61192 22.4572 4.97135 22.3323 5.32408 22.1924C6.03373 21.9134 6.73165 21.5657 7.41114 21.1837C8.3227 20.6634 9.2083 20.0819 10.0336 19.4334C10.2464 19.27 10.4357 19.1117 10.6494 18.9274C10.9552 18.6643 11.2308 18.3886 11.5174 18.1281L12.3887 18.9525L12.997 19.4962C13.4025 19.8515 13.8181 20.19 14.2404 20.5159C15.2265 21.2624 16.2813 21.8899 17.3538 22.3692C17.5884 22.4848 17.828 22.5342 18.0609 22.6356C18.2771 22.7043 18.4513 22.7479 18.5971 22.8074C18.737 22.8442 18.8434 22.8702 18.9364 22.918C19.1266 23.0235 19.2079 23.0755 19.3436 23.2581C19.4014 23.3335 19.4827 23.4064 19.5338 23.4818C19.6193 23.6092 19.5765 23.7416 19.3595 23.8706C19.1333 24.0222 18.7705 24.0675 18.3189 24.0264C17.0438 23.817 15.9655 23.2372 14.9425 22.6055C13.9245 21.962 12.9752 21.2205 12.0637 20.4371L11.5249 19.9621C11.5249 19.9621 11.5249 19.9587 11.5241 19.9537L11.5199 19.952H11.5165L11.5191 19.9487L11.4395 20.0165C11.194 20.2327 10.9384 20.4296 10.6854 20.6307C10.1727 21.0203 9.65068 21.3939 9.11111 21.74L9.091 21.7132Z" fill="#231F20"/>
<path fill-rule="evenodd" clip-rule="evenodd" d="M31.6766 19.1653L30.8354 20.9105L30.4391 21.7861L30.2548 22.2226L30.1668 22.4404L30.1408 22.4915C30.1031 22.5778 30.0411 22.7471 30.1902 22.7353L30.2053 22.7387C30.2497 22.7479 30.3042 22.7605 30.3561 22.7622C30.3511 22.7655 30.4885 22.7613 30.5731 22.7571L30.863 22.7261C31.2501 22.6867 31.6481 22.6197 32.0427 22.5326C32.8319 22.3617 33.6229 22.1405 34.392 21.8573C35.0748 21.6076 35.7418 21.2968 36.3601 20.9348C37.1602 20.4723 37.8774 19.9093 38.6105 19.4267C38.8409 19.2801 39.0738 19.534 39.114 19.9529C39.1626 20.376 38.9708 20.9683 38.4823 21.3093C36.7597 22.4899 34.8763 23.2288 32.8839 23.6352C32.356 23.7391 31.8324 23.8421 31.3029 23.946C31.0205 23.9812 30.7725 24.0382 30.4583 24.0533C30.0026 24.1153 29.6146 24.034 29.2091 23.9913L28.9368 23.8421L28.8019 23.7676C28.8313 23.6821 28.7383 23.6787 28.7249 23.6268C28.5188 23.2774 28.6922 22.7244 28.8639 22.2209C28.9712 21.9184 29.0055 21.8464 29.0776 21.6654L29.2736 21.2029C29.5384 20.5896 29.8182 19.9906 30.1006 19.3932L31.163 17.2031L31.5274 16.465L31.7411 16.0569C31.2685 15.7813 30.7993 15.5082 30.3327 15.2367C29.5074 14.7524 28.657 14.3335 27.8711 13.6708C27.7002 13.5191 27.5226 13.3767 27.3692 13.1815C27.081 12.8313 26.9528 12.5062 26.9453 12.2657C26.9344 12.0219 27.0308 11.8694 27.205 11.7605C27.2821 11.7111 27.3583 11.6566 27.4379 11.6357C27.7236 11.5887 27.9197 11.8166 28.1593 12.1057C28.5514 12.5782 29.2158 13.024 29.9037 13.4538C30.2506 13.6699 30.6133 13.8836 30.9837 14.0964L32.2429 14.8111C32.6552 15.0406 33.0674 15.271 33.4821 15.5023C32.8923 16.7247 32.2991 17.953 31.7076 19.1779L31.6766 19.1653Z" fill="#231F20"/>
<path fill-rule="evenodd" clip-rule="evenodd" d="M57.8775 15.3733C58.0677 15.4278 57.3254 14.9544 56.9081 14.6578C56.7347 14.5388 56.5412 14.4517 56.3719 14.3243C55.7737 13.8736 55.1939 13.3885 54.6451 12.8447C54.4047 12.5967 54.1391 12.3764 53.8969 12.1024C53.5936 11.7765 53.2049 11.3182 53.3021 10.7183C53.3306 10.5331 53.6808 10.5976 54.0276 10.6663C54.3703 10.7459 54.7046 10.7367 54.7557 10.8356C54.961 11.2545 55.5257 11.8343 56.0544 12.4409C56.3811 12.8112 56.8436 13.0441 57.2609 13.3298L57.9571 13.8032L58.309 14.0386L58.4866 14.1551L58.7597 14.3243L59.4309 14.7382L59.513 14.7877C59.5247 14.7969 59.5431 14.8036 59.5507 14.8145L59.5289 14.8605L59.4443 15.0449L59.2784 15.4085L58.8636 16.3067C58.7514 16.5463 58.6458 16.7876 58.5528 17.0339C58.4095 17.416 58.3417 17.8206 58.242 18.2144C58.2202 18.3015 58.2101 18.3912 58.1816 18.4758C58.0752 18.79 57.9512 18.8537 57.591 18.7867C57.5097 18.7707 57.4251 18.7607 57.3463 18.7389C57.0765 18.666 56.9173 18.4549 56.9358 18.1985C56.9919 17.4377 57.255 16.7147 57.5499 16.0017L57.72 15.6071L57.8055 15.416L57.8113 15.4202C57.8163 15.4261 57.8549 15.401 57.8432 15.3926L57.8775 15.3733Z" fill="#231F20"/>
</svg>
