<svg width="31" height="31" viewBox="0 0 31 31" fill="none" xmlns="http://www.w3.org/2000/svg">
<path d="M15.5 31C6.94977 31 0 24.0502 0 15.5C0 6.94977 6.94977 0 15.5 0C24.0502 0 31 6.94977 31 15.5C31 24.0502 24.0502 31 15.5 31ZM15.5 2.16279C8.14651 2.16279 2.16279 8.14651 2.16279 15.5C2.16279 22.8535 8.14651 28.8372 15.5 28.8372C22.8535 28.8372 28.8372 22.8535 28.8372 15.5C28.8372 8.14651 22.8535 2.16279 15.5 2.16279Z" fill="#29BAEF"/>
<path d="M13.4518 20.662C13.1635 20.662 12.8895 20.5467 12.6877 20.3448L8.60711 16.2643C8.18897 15.8462 8.18897 15.1541 8.60711 14.736C9.02525 14.3178 9.71735 14.3178 10.1355 14.736L13.4518 18.0522L20.863 10.6411C21.2811 10.2229 21.9732 10.2229 22.3914 10.6411C22.8095 11.0592 22.8095 11.7513 22.3914 12.1694L14.216 20.3448C14.0142 20.5467 13.7402 20.662 13.4518 20.662Z" fill="#29BAEF"/>
</svg>
