<svg width="65" height="61" viewBox="0 0 65 61" fill="none" xmlns="http://www.w3.org/2000/svg">
<path d="M50.9359 60.8837C50.5865 60.8837 50.1207 60.7688 49.7713 60.654L32.4192 51.6937L15.067 60.654C14.2518 61.1135 13.2037 60.9986 12.505 60.4242C11.8062 59.8498 11.3404 58.9308 11.5733 58.1267L14.8341 39.0575L0.742799 25.5022C0.044055 24.813 -0.188859 23.894 0.160512 23.0899C0.393427 22.1709 1.20863 21.5965 2.14029 21.4816L21.5886 18.7246L30.3229 1.3785C30.7888 0.574375 31.604 0 32.5356 0C33.4673 0 34.2825 0.574375 34.7483 1.3785L43.4826 18.7246L62.931 21.4816C63.8626 21.5965 64.5614 22.2857 64.9107 23.0899C65.1437 24.0089 64.9107 24.9279 64.3285 25.5022L50.0042 39.0575L53.265 58.1267C53.3815 59.0457 53.0321 59.9647 52.3334 60.4242C51.8675 60.7688 51.4017 60.8837 50.9359 60.8837ZM7.73023 25.5022L19.143 36.5302C19.7253 37.1046 19.9582 37.9087 19.8418 38.7129L17.1633 54.221L31.2546 46.869C31.9533 46.5243 32.7685 46.5243 33.4673 46.869L47.5586 54.221L44.8801 38.7129C44.7636 37.9087 44.9966 37.1046 45.5788 36.5302L56.9917 25.5022L41.1535 23.2047C40.3383 23.0899 39.6395 22.6304 39.2902 21.9411L32.1863 7.81149L25.0824 21.9411C24.733 22.6304 24.0343 23.0899 23.219 23.2047L7.73023 25.5022Z" fill="#29BAEF"/>
</svg>
