<svg width="64" height="93" viewBox="0 0 64 93" fill="none" xmlns="http://www.w3.org/2000/svg">
<path fill-rule="evenodd" clip-rule="evenodd" d="M30.3702 84.1197C28.7859 84.0812 27.1638 83.9279 25.5677 83.4805C24.9871 83.3179 24.3939 83.1579 23.8359 82.8881C22.8531 82.4206 21.9399 81.752 21.221 80.9209C20.8582 80.4994 20.5474 80.0772 20.2692 79.577C19.9777 79.0768 19.8076 78.4962 19.7397 77.9139C19.671 77.3953 19.7263 76.8616 19.8537 76.358C19.9919 75.8528 20.2382 75.3928 20.5256 74.9722C21.2973 73.9132 22.6051 73.279 23.8259 73.3954C24.2088 73.4197 24.1543 73.6174 23.9088 73.9174C23.6466 74.183 23.293 74.7242 22.9 75.0208C22.5222 75.2772 22.3035 75.6634 22.0597 75.9559C21.8343 76.2751 21.6894 76.6253 21.6249 76.9814C21.5285 77.3316 21.5109 77.7078 21.5855 78.099C21.6626 78.4886 21.8561 78.8766 22.1192 79.3349C22.4392 79.8434 22.8799 80.2858 23.3885 80.6469C23.9063 80.9988 24.4844 81.2719 25.0801 81.5107C26.3972 82.0327 27.8785 82.2606 29.3749 82.3553C30.299 82.408 31.2374 82.4214 32.1607 82.3687C33.5624 82.2866 34.9758 82.1123 36.3038 81.7009C37.3444 81.4102 38.3079 80.9661 39.227 80.4601C39.4314 80.3503 39.6216 80.228 39.821 80.1099C40.5617 79.6708 40.8398 79.5912 41.1766 79.7119C41.252 79.7387 41.3383 79.7538 41.3987 79.7881C41.5889 79.882 41.4481 80.3084 40.9362 80.7944C40.1729 81.5032 39.2815 82.1316 38.3112 82.6359C37.8253 82.8839 37.3259 83.1252 36.8065 83.3096C36.282 83.4746 35.7475 83.6137 35.2087 83.7226C33.611 84.0594 31.9763 84.1667 30.3727 84.1633L30.3702 84.1197Z" fill="#231F20"/>
<path fill-rule="evenodd" clip-rule="evenodd" d="M34.6912 84.7261C33.8324 84.954 32.9585 85.1165 32.0821 85.2506C31.7596 85.2941 31.4437 85.336 31.1203 85.3796C29.9809 85.4617 28.8347 85.4366 27.7053 85.2782C27.2026 85.212 26.7016 85.1232 26.2072 85.0185C25.5805 84.8601 24.922 84.6993 24.3874 84.287C24.2174 84.1664 24.3523 84.0114 24.5936 83.9159C24.8407 83.8162 25.1591 83.7919 25.4775 83.8933C26.5901 84.3105 27.81 84.4982 29.0609 84.6079C29.8133 84.6649 30.6 84.582 31.365 84.4714C32.2112 84.375 33.0507 84.2007 33.8827 83.993C34.3954 83.8706 34.899 83.7022 35.4033 83.5464L36.5394 83.1434C36.9106 82.9926 37.2793 82.8326 37.6429 82.6675C38.1992 82.3927 38.7161 82.0676 39.2549 81.7786L39.6026 81.575C40.0466 81.3345 40.2226 81.3161 40.3952 81.389C40.4346 81.4066 40.4806 81.4183 40.5108 81.4401C40.6105 81.5096 40.4857 81.7023 40.1966 81.9553C39.3445 82.7144 38.3165 83.3394 37.2198 83.8279C36.4146 84.2133 35.5634 84.5099 34.6987 84.7479L34.6912 84.7261Z" fill="#231F20"/>
<path fill-rule="evenodd" clip-rule="evenodd" d="M36.3669 90.1299C36.6392 89.8978 36.8721 89.5677 37.0858 89.2217C37.1679 89.0985 37.1981 88.9419 37.2751 88.8112C37.5382 88.3361 37.7703 87.8225 38.0007 87.2913C38.1113 87.0601 38.1917 86.8129 38.2822 86.5666C38.4046 86.2541 38.4833 85.8988 38.8352 85.6433C38.9357 85.5645 39.0514 85.7221 39.1569 85.9131C39.2575 86.115 39.3798 86.2826 39.348 86.4451C39.1955 86.9696 39.1293 87.6499 38.7514 88.2389C38.547 88.5975 38.4632 89.024 38.2806 89.4161C38.087 89.8484 37.8273 90.2648 37.5366 90.6603C37.3271 90.8882 37.1436 91.1303 36.8889 91.3197L36.6149 91.5425L36.2999 91.7126C36.0988 91.8416 35.8726 91.907 35.6531 91.9899C35.4847 92.0678 35.3163 92.1206 35.1412 92.1692C34.9694 92.2145 34.7884 92.2966 34.6108 92.3108C34.5329 92.3209 34.4558 92.3225 34.3762 92.3158C34.0821 92.279 33.9958 92.1902 33.9741 91.8944C33.9682 91.8316 33.959 91.7704 33.959 91.7134C33.9598 91.5341 34.093 91.3088 34.264 91.2275C34.7876 90.9678 35.1772 90.8823 35.5584 90.6963C35.8131 90.5287 36.1055 90.3905 36.3426 90.1107L36.3669 90.1299Z" fill="#231F20"/>
<path fill-rule="evenodd" clip-rule="evenodd" d="M23.1691 75.3388C22.9589 75.4259 22.7092 75.5215 22.4939 75.6882C22.4168 75.7493 22.3707 75.8365 22.2936 75.8993C22.0121 76.1197 21.7348 76.3777 21.5303 76.6827C21.4549 76.8168 21.408 76.9751 21.4172 77.1133C21.4122 77.3102 21.4826 77.4158 21.3368 77.5675C21.2849 77.6186 20.9614 77.7702 20.6003 77.8088C20.2518 77.8674 19.796 77.7007 19.76 77.4694C19.6653 77.0555 19.7466 76.6936 19.8731 76.392C19.9954 76.0828 20.1848 75.8289 20.4127 75.6145C20.6908 75.369 20.814 75.0313 21.057 74.7708C21.3267 74.4909 21.625 74.2404 21.9652 74.0351C22.1646 73.9019 22.4009 73.8114 22.6237 73.7117C22.7963 73.6397 22.9915 73.602 23.17 73.5483C23.3669 73.5299 23.5529 73.4855 23.7489 73.4721C23.9023 73.4696 24.0589 73.4327 24.219 73.426C24.3756 73.4336 24.5415 73.4419 24.7057 73.4688C24.7811 73.4738 24.8364 73.5148 24.8968 73.5525C25.1062 73.7184 25.1113 73.8634 24.9613 74.1625C24.9269 74.2312 24.8951 74.2991 24.8566 74.3627C24.7275 74.5722 24.534 74.7213 24.384 74.8018C23.9182 75.0648 23.8939 75.1419 23.697 75.188C23.5696 75.2165 23.3845 75.2735 23.1943 75.3748L23.1691 75.3388Z" fill="#231F20"/>
<path fill-rule="evenodd" clip-rule="evenodd" d="M8.798 61.2583C6.79054 58.9308 4.98165 56.4098 3.53554 53.6784C3.25654 53.1883 3.01441 52.6789 2.77646 52.167C2.52427 51.6617 2.29722 51.1465 2.10368 50.6153C0.625732 46.9204 0.0216505 42.8862 0.316569 38.9425C0.364326 38.0661 0.51011 37.1956 0.615678 36.3251C0.803353 35.4688 0.908083 34.5941 1.15525 33.7597C1.64873 31.5905 2.4916 29.4339 3.79779 27.6124C4.20833 27.0469 4.24519 27.1927 4.04579 27.7532C3.838 28.3137 3.48946 29.3283 3.02697 30.4795C2.82254 30.9914 2.64157 31.5134 2.47987 32.0396C2.31649 32.5632 2.20589 33.1145 2.05006 33.6457C1.89757 34.1802 1.76016 34.7173 1.66884 35.2652C1.57333 35.8115 1.42922 36.3502 1.37141 36.9024C1.02119 39.0958 0.995218 41.3345 1.20887 43.559C1.46273 46.2275 2.29387 48.9329 3.45343 51.4196C4.71438 54.1652 6.32973 56.7583 8.22911 59.1369C9.38281 60.6124 10.6304 62.0191 11.9424 63.3613C13.9205 65.4056 16.0428 67.3327 18.2061 69.1583C19.8893 70.5784 21.6018 71.893 23.2951 73.2738C23.6663 73.5804 24.0399 73.867 24.4019 74.1929C25.7567 75.3826 26.1228 75.8451 26.2569 76.2581C26.2887 76.3511 26.3423 76.4617 26.3499 76.5254C26.3717 76.7433 25.7667 76.3243 24.7555 75.5016C21.7351 73.0827 18.465 70.5776 15.3566 67.8303C13.0509 65.7877 10.8147 63.6269 8.78292 61.2759L8.798 61.2583Z" fill="#231F20"/>
<path fill-rule="evenodd" clip-rule="evenodd" d="M4.80359 26.0324C6.12234 24.2704 7.6757 22.7204 9.37064 21.3606C11.105 20.0553 12.9616 18.9309 14.923 18.0302C18.8592 16.2808 23.1556 15.3273 27.4822 15.4631C29.0607 15.5117 30.6358 15.6935 32.159 15.9959C32.9265 16.1476 33.6914 16.3302 34.4496 16.5539C35.2079 16.7735 35.9494 17.0943 36.695 17.3683C39.2789 18.4977 41.578 20.2371 43.4112 22.3375C45.2527 24.4372 46.641 26.882 47.5928 29.455C49.5265 34.606 49.8977 40.1977 49.1772 45.5398C48.8889 47.9201 48.3829 50.2685 47.7579 52.5718C47.1538 54.8842 46.3603 57.1313 45.5175 59.3373C44.4308 62.1725 43.1271 64.9257 41.6735 67.5908C40.2316 70.2627 38.5928 72.8223 36.814 75.2646C35.6989 76.7853 35.6436 76.4317 36.2736 74.9471C36.5962 74.2106 37.052 73.1683 37.6343 71.9392C38.1956 70.6975 38.891 69.274 39.6853 67.7567C41.1012 65.0681 42.3136 62.2873 43.474 59.499C44.6101 56.6989 45.5803 53.8352 46.3126 50.9162C47.7905 45.0932 48.2472 38.9736 46.8396 33.1348C46.4106 31.3996 45.8082 29.6896 45.0139 28.0642C44.2163 26.4396 43.1833 24.9298 41.9776 23.5851C40.7678 22.2454 39.3711 21.0623 37.7935 20.1876C36.2183 19.3113 34.5452 18.6402 32.7622 18.2271C24.962 16.2749 16.2669 18.305 10.0191 23.4343C8.1097 25.0144 6.44994 26.9046 5.23172 29.052C4.95859 29.6041 4.66535 30.1487 4.40478 30.7059L3.76383 32.4385C3.44378 33.645 3.11032 34.8532 2.94778 36.0932L2.83132 36.7928L2.77267 37.4999L2.6604 38.915L2.66962 40.3351L2.67716 41.0448L2.74335 41.7528C2.85645 43.6479 3.2938 45.5105 3.8317 47.3311C4.38132 49.1542 5.17475 50.8961 6.03772 52.5944C6.94091 54.2742 7.96475 55.8871 9.07824 57.4329C12.5787 62.232 16.8886 66.2193 21.3073 70.1228C22.2842 70.9832 23.2578 71.8052 24.2305 72.7C27.8441 75.9801 28.8261 77.4203 29.0146 78.5866C29.0556 78.8531 29.1 79.1873 29.0783 79.339C29.0565 79.4705 28.9744 79.458 28.8336 79.3398C28.6862 79.2209 28.5328 78.9905 28.2195 78.6939C27.6439 78.0923 26.6871 77.1556 25.3625 75.9935C21.3928 72.586 17.1215 69.1207 13.2146 65.1117C9.31534 61.1169 5.66572 56.5733 3.26699 51.2346C2.37302 49.2606 1.70359 47.1719 1.23943 45.0329C0.766048 42.8905 0.645399 40.6745 0.713264 38.4802C0.794535 36.2775 1.23189 34.1142 1.80245 32.0037C2.46686 29.8588 3.47813 27.8346 4.75583 26.0115L4.80359 26.0324Z" fill="#231F20"/>
<path fill-rule="evenodd" clip-rule="evenodd" d="M26.464 82.7734C28.5997 83.1647 30.8711 83.1002 33.098 82.7374C33.9049 82.5958 34.7226 82.3712 35.5051 82.1995C36.8214 81.8585 38.1628 81.2318 39.3868 80.5054C40.6084 79.7672 41.7479 78.8632 42.5421 77.7648C43.2116 76.7745 43.3682 75.5873 42.7742 74.6145C42.4047 73.9971 41.7847 73.4876 41.1161 73.0696C40.4333 72.6674 39.7052 72.3013 38.9311 72.0256C38.4501 71.8639 38.5222 71.7064 39.0174 71.5657C39.4949 71.4567 40.4777 71.3034 41.4789 71.75C42.3528 72.1404 43.2132 72.6699 43.9103 73.5212C44.2748 73.9409 44.4918 74.4872 44.6979 75.0226C44.7574 75.3091 44.8051 75.6032 44.8286 75.8973C44.8361 76.1888 44.7859 76.4771 44.7557 76.7661C44.5345 77.8989 43.9455 78.7979 43.3071 79.5427C42.6636 80.2976 41.9062 80.8665 41.127 81.3801C40.192 81.9867 39.2226 82.5338 38.208 83.0214C37.7003 83.2644 37.1791 83.4881 36.6387 83.6816C36.3715 83.783 36.0816 83.8567 35.8051 83.943L34.9983 84.119C32.6456 84.6426 30.2067 84.9166 27.7677 84.7113C26.2688 84.5798 24.7775 84.2656 23.3573 83.716C22.2849 83.2878 21.2736 82.6812 20.3838 81.9121C19.5066 81.1296 18.7894 80.12 18.435 78.9487C18.1787 78.0413 18.1401 77.0208 18.4493 76.0942C18.7677 75.1709 19.3634 74.3758 20.0738 73.7658C20.3872 73.4952 20.7047 73.2472 21.0608 73.0394C21.7177 72.6515 22.2112 72.5367 22.558 72.4931C22.9116 72.4655 23.1395 72.5459 23.3439 72.7143C23.4369 72.7889 23.5475 72.8551 23.6078 72.9338C23.8106 73.2061 23.3389 73.5982 22.5622 74.0884C21.4052 74.8005 20.4324 75.7867 20.1668 76.839C20.006 77.3635 20.0353 77.8813 20.1585 78.4284C20.3076 78.9755 20.6285 79.5092 21.0206 80.0069C22.2681 81.4806 24.3376 82.3654 26.4682 82.729L26.464 82.7734Z" fill="#231F20"/>
<path fill-rule="evenodd" clip-rule="evenodd" d="M24.2271 78.8085C25.4119 79.3045 26.7298 79.6287 28.0779 79.7871C28.5705 79.8474 29.069 79.839 29.5659 79.8583C31.3203 79.9354 33.1141 79.8055 34.8325 79.3673C35.5924 79.1713 36.3398 78.9023 37.0243 78.5504C37.9049 78.0896 38.6715 77.4948 39.3518 76.8337C39.568 76.6284 39.7288 76.7457 39.759 77.1094C39.8076 77.4788 39.6551 78.1215 39.1541 78.5773C37.3762 80.1247 35.176 80.8461 32.9859 81.0606C31.6739 81.1854 30.3207 81.3865 28.971 81.348C27.4922 81.3036 26.005 81.1109 24.5732 80.6492C23.6943 80.366 22.8347 79.9873 22.0412 79.4762C21.4439 79.085 20.8859 78.6099 20.4267 78.0385C20.2122 77.7411 19.9969 77.4445 19.8369 77.1119C19.6534 76.8136 19.5193 76.3385 19.5277 75.9347C19.5369 75.2787 19.7874 74.6964 20.1083 74.2104C20.4343 73.7228 20.8431 73.3106 21.3148 72.9755C21.5193 72.823 21.7321 72.6881 21.9667 72.5733C22.8615 72.1753 23.2703 72.3295 23.4714 72.6831C23.5192 72.7652 23.5753 72.8439 23.5988 72.9244C23.6616 73.1967 23.3717 73.4455 22.9411 73.6826C22.2842 74.0286 21.6659 74.595 21.3299 75.1815C21.1615 75.4714 21.0878 75.7546 21.1045 75.9414C21.107 76.0386 21.1364 76.1132 21.1741 76.1919C21.2193 76.2891 21.345 76.491 21.4212 76.6385C22.0102 77.5584 23.0441 78.2924 24.2406 78.77L24.2271 78.8085Z" fill="#231F20"/>
<path fill-rule="evenodd" clip-rule="evenodd" d="M29.0489 86.4775C30.154 86.7372 31.3563 86.7766 32.5553 86.6685C32.9951 86.6384 33.4224 86.5161 33.8598 86.444C35.4073 86.1918 36.9363 85.7101 38.3992 85.0691C39.041 84.7708 39.6551 84.4047 40.2114 83.9883C40.9462 83.463 41.531 82.812 42.1351 82.2071C42.3387 82.0244 42.5205 82.1367 42.6068 82.4844C42.647 82.6561 42.6814 82.9075 42.6303 83.1689C42.5699 83.411 42.4535 83.6783 42.2675 83.9179C40.8725 85.4729 39.1365 86.5873 37.2136 87.1746C36.0616 87.5047 34.9146 87.9848 33.6997 88.1951C32.3734 88.4355 31.0078 88.5202 29.6446 88.3836C28.8084 88.2948 27.9664 88.0962 27.178 87.8155C25.9824 87.3765 24.853 86.7029 23.9163 85.8248C23.1849 85.1529 22.5121 84.3972 22.0287 83.5099C21.9298 83.3122 21.8326 83.1178 21.7497 82.9108C21.5075 82.1208 21.6458 81.8183 21.9776 81.5737C22.0538 81.5175 22.1225 81.4522 22.1954 81.4153C22.4292 81.2921 22.7844 81.5276 23.0927 81.9574C23.546 82.5983 23.9406 83.2024 24.3905 83.7562C24.8421 84.3084 25.3742 84.7842 25.9774 85.1872C26.8638 85.7821 27.9639 86.2169 29.0548 86.4323L29.0489 86.4775Z" fill="#231F20"/>
<path fill-rule="evenodd" clip-rule="evenodd" d="M24.4351 35.051C24.4049 34.6312 24.4024 34.2006 24.4259 33.7599L24.4753 33.0804L24.5566 32.5902C24.6035 32.4135 24.6672 32.2425 24.7216 32.0683C24.9545 31.3678 25.4991 30.9121 26.1443 30.7788C26.7961 30.6498 27.4756 30.8735 27.9984 31.3494C28.1249 31.4726 28.2573 31.5991 28.362 31.739C28.4785 31.8798 28.5891 32.0163 28.6368 32.1076C28.7701 32.3154 28.8756 32.5199 28.9762 32.7243C29.1756 33.1315 29.3289 33.5336 29.4663 33.9341C29.7252 34.7418 29.9422 35.5796 30.0402 36.4108C30.4533 39.7362 29.9531 43.0892 28.4978 46.1012C28.2305 46.65 27.918 47.1812 27.5728 47.6956C27.3977 47.9545 27.1631 48.2159 26.957 48.4723C26.7115 48.7077 26.4618 48.9482 26.1811 49.1509C25.0341 49.9821 23.4975 50.2008 22.2383 49.9025C21.1064 49.6704 20.1026 49.1903 19.1919 48.6172C18.2795 48.0375 17.4592 47.363 16.7169 46.5788C15.9629 45.7694 15.3772 44.8813 14.8846 43.9379C14.3978 42.9937 13.9973 41.9958 13.7962 40.9158C13.5985 39.8501 13.5625 38.6528 14.0844 37.5444C14.3316 37.0056 14.6718 36.5231 15.1661 36.1159C15.6504 35.7078 16.3273 35.4716 16.9699 35.4917C18.2736 35.5352 19.2556 36.3203 19.9962 37.0366C20.7612 37.7815 21.3937 38.626 21.9467 39.5032C23.9014 42.6317 24.9939 46.1406 26.0312 49.5095C26.709 51.6854 27.3038 53.9199 27.6825 56.2022C27.8602 57.345 27.9967 58.4979 28.0319 59.6558C28.0671 60.8145 28.0076 61.9715 27.8987 63.1177C27.7244 64.5471 27.5133 64.3183 27.2913 63.116C27.1689 62.4742 27.0081 61.6414 26.8229 60.6746C26.6017 59.6767 26.3797 58.5272 26.1677 57.2755C25.789 55.0552 25.1565 52.8818 24.4787 50.6934C23.8184 48.4798 23.1591 46.2805 22.3581 44.1859C21.5554 42.0972 20.5794 40.0487 19.1726 38.4601C18.8258 38.0655 18.4337 37.6902 18.0658 37.4371C17.6838 37.1849 17.2758 37.0291 16.9297 37.0299C16.5829 37.0207 16.2804 37.1447 15.9872 37.4279C15.6939 37.7128 15.4451 38.1392 15.3194 38.5523C14.9935 39.5988 15.2448 40.9418 15.7392 42.1516C16.231 43.3715 16.9666 44.5621 17.8622 45.4988C18.7989 46.4472 19.9258 47.2633 21.1198 47.8045C22.3078 48.319 23.6199 48.5636 24.6462 48.0835C25.2134 47.8372 25.7011 47.4032 26.1041 46.8586C26.5138 46.2663 26.8757 45.6211 27.1756 44.9442C27.7588 43.5818 28.1475 42.1123 28.3126 40.6192C28.4927 39.1262 28.455 37.6072 28.1911 36.1469C28.042 35.4238 27.8451 34.7108 27.5661 34.0288C27.4278 33.6928 27.2712 33.3711 27.0944 33.0946C26.9478 32.8642 26.8732 32.7762 26.7014 32.6782C26.4987 32.5634 26.244 32.6849 26.1635 32.8952C26.1191 32.9941 26.0814 33.1063 26.0655 33.2077C26.0287 33.3753 25.9876 33.6191 25.9801 33.8328C25.9365 34.7259 26.0379 35.6651 26.2121 36.58C26.3889 37.4958 26.6419 38.404 26.9955 39.2552C27.3407 40.0847 27.8107 40.9544 28.4115 41.3699C28.9083 41.6741 29.5216 41.8232 30.1106 41.7118C30.7071 41.6112 31.2928 41.2912 31.8064 40.8698C32.8277 40.0177 33.6463 38.8003 34.0384 37.5352C34.2319 36.9361 34.2378 36.2474 34.1515 35.5947C34.0576 34.9521 33.8231 34.3128 33.4385 33.9852C33.0405 33.6551 32.6434 33.6593 32.2236 34.0556C31.8014 34.4603 31.457 35.0719 31.1973 35.6969C30.9828 36.1854 30.8579 36.6831 30.7348 37.2327C30.5965 37.7647 30.5044 38.3076 30.4156 38.8497C30.2555 39.9356 30.1592 41.0289 30.1357 42.1232C30.0863 44.3116 30.2522 46.4983 30.6317 48.6541C30.7993 49.6042 31.0079 50.5242 31.245 51.4642C31.6774 53.2103 32.0502 54.3321 32.2513 55.144C32.4624 55.9525 32.4959 56.4569 32.4348 56.9093C32.4063 57.1154 32.4029 57.376 32.351 57.5142C32.2169 57.9734 31.1797 56.7602 30.2497 54.1445C28.9033 50.2736 28.2297 46.0367 28.414 41.721C28.4718 40.6435 28.5732 39.5602 28.7541 38.4811C28.8555 37.944 28.9158 37.3978 29.0457 36.8607L29.2233 36.0421C29.3021 35.733 29.3942 35.4548 29.4965 35.1708C29.7068 34.6086 29.9556 34.0556 30.3209 33.4968C30.6862 32.9639 31.1738 32.3079 32.2354 31.9552C32.7414 31.8404 33.3044 31.8295 33.7812 32.0616C34.2847 32.2266 34.6433 32.5349 34.9357 32.8592C35.5155 33.5244 35.7325 34.2223 35.8825 34.8725C36.0676 35.8536 36.0911 36.7526 35.8422 37.7907C35.5808 38.7358 35.1661 39.5401 34.6634 40.29C34.1557 41.034 33.5516 41.7168 32.8034 42.2949C32.0594 42.8621 31.1311 43.3481 30.0335 43.4352C29.7662 43.4746 29.4831 43.4268 29.2108 43.4143C28.9385 43.3799 28.6745 43.2936 28.4098 43.2249C28.1618 43.1244 27.923 43.0054 27.6842 42.8881C27.4169 42.7314 27.1857 42.5412 26.9922 42.3519C26.2549 41.5819 25.8762 40.7801 25.5385 39.9825C24.9051 38.3789 24.5272 36.7643 24.3965 35.0627L24.4351 35.051Z" fill="#231F20"/>
<path fill-rule="evenodd" clip-rule="evenodd" d="M57.6271 37.0749C57.6078 37.2215 57.4143 37.157 57.1135 36.9794C57.0172 36.9233 56.7901 36.6895 56.7826 36.6317C56.7675 36.5194 56.7549 36.408 56.7616 36.3125C56.7616 36.2547 57.142 35.6472 57.2769 35.4336C57.4026 35.225 57.5676 35.0566 57.7469 34.9057C58.103 34.589 58.4842 34.295 58.8872 34.0269C58.9769 33.9682 59.0774 33.9263 59.1846 33.8987C59.5583 33.8107 59.88 33.6456 60.1984 33.4529C60.252 33.4219 60.314 33.406 60.3442 33.3256C60.3836 33.1798 61.3412 32.8003 61.487 32.8179C61.8364 32.8321 62.1699 32.8145 62.5092 32.8572C62.5569 32.8631 62.6013 32.8287 62.6558 32.8958C62.7806 33.0499 62.8711 33.008 62.9708 33.008C63.1074 33.0047 63.2465 33.0206 63.3856 33.0659C63.4543 33.0876 63.5272 33.1773 63.5959 33.2477C63.6579 33.3105 63.6419 33.5619 63.6252 33.5903C63.5749 33.6733 63.6285 33.7864 63.6403 33.8894C63.6445 33.9238 63.6495 33.969 63.6486 33.9975C63.6344 34.0528 63.0345 34.5731 62.9784 34.5932C62.9692 34.5882 62.7446 34.6854 62.5134 34.7759C62.2805 34.868 62.045 34.9786 62.0006 35.013C61.9537 35.0448 61.8875 35.0222 61.8272 35.0155C61.7937 35.0063 61.1485 35.4034 61.1242 35.4168C60.9743 35.4637 60.8628 35.5861 60.6559 35.5224C60.6148 35.5115 60.5905 35.5341 60.5637 35.5509C60.3333 35.695 60.0694 35.7813 59.8139 35.8952C59.6857 35.9564 59.5759 36.0469 59.4578 36.1248C59.436 36.139 59.4033 36.1365 59.3765 36.1432C59.343 36.1516 59.3053 36.1541 59.2793 36.1742C59.0062 36.3703 58.6836 36.5136 58.454 36.7724C58.3987 36.8261 58.005 36.9509 57.9488 37.0271C57.9162 37.0665 57.6346 37.0146 57.6271 37.0749Z" fill="#231F20"/>
<path fill-rule="evenodd" clip-rule="evenodd" d="M49.5541 18.4064C49.534 18.5572 49.3287 18.4885 49.0154 18.3075C48.9157 18.2497 48.6794 18.0101 48.6702 17.9506C48.6526 17.8333 48.6375 17.7168 48.6409 17.6163C48.6409 17.556 49.0053 16.9058 49.1276 16.6704C49.2433 16.4433 49.4008 16.259 49.5717 16.0914C49.9211 15.7521 50.2939 15.4413 50.6642 15.143C50.7472 15.0776 50.8427 15.0274 50.9483 14.9972C51.3102 14.89 51.6001 14.6889 51.8615 14.4534C51.9051 14.4141 51.9604 14.3898 51.9662 14.3001C51.9813 14.1527 52.7261 13.6005 52.8468 13.5729C53.1601 13.5075 53.4417 13.3969 53.7383 13.3031C53.7818 13.2922 53.8028 13.2453 53.8849 13.2905C54.0759 13.3961 54.1304 13.3165 54.2141 13.2763C54.3306 13.2193 54.4504 13.1674 54.592 13.1414C54.6624 13.128 54.7789 13.1749 54.8819 13.2034C54.9757 13.2294 55.1274 13.4648 55.1307 13.5017C55.14 13.6064 55.2606 13.6801 55.3377 13.7673C55.3637 13.7966 55.398 13.8351 55.4156 13.8611C55.455 13.9139 55.1743 14.8053 55.1056 14.8615C55.1081 14.9 54.2611 15.6549 54.1773 15.7563C54.1337 15.8091 54.0516 15.8091 53.9812 15.8233C53.9477 15.8334 53.2976 16.4483 53.2682 16.4601C53.104 16.5413 52.9943 16.6972 52.753 16.6595C52.7052 16.6519 52.6801 16.6787 52.6524 16.7014C52.4145 16.8916 52.1296 17.0089 51.8598 17.1471C51.7241 17.2183 51.6143 17.3256 51.4903 17.4119C51.4677 17.4286 51.4317 17.4253 51.404 17.4336C51.368 17.4437 51.327 17.4462 51.3001 17.4688C51.0304 17.7034 50.6743 17.8324 50.4363 18.1047C50.3777 18.16 49.9546 18.2815 49.8959 18.3603C49.8607 18.4005 49.5625 18.3444 49.5541 18.4064Z" fill="#231F20"/>
<path fill-rule="evenodd" clip-rule="evenodd" d="M38.6893 89.9978C38.2461 90.6304 37.7199 91.2688 37.0195 91.7657C36.7556 91.9341 36.5084 92.136 36.2034 92.2416C35.6798 92.4586 35.064 92.5139 34.5303 92.4293C33.989 92.3471 33.4989 92.1628 33.0599 91.9249C32.6694 91.7154 32.2924 91.5001 31.9338 91.268C31.7068 91.1155 31.4738 90.9689 31.2635 90.7955C31.0616 90.6111 30.8915 90.3916 30.7499 90.1512C30.6637 89.9987 30.8228 89.8747 31.0792 89.8026C31.3314 89.7356 31.7001 89.6862 31.9598 89.8035C32.77 90.3715 33.5852 90.8424 34.3954 91.1549C34.9098 91.3401 35.3932 91.1985 35.8641 90.9379C36.3777 90.6597 36.8343 90.1981 37.2281 89.651C37.4753 89.3184 37.6956 88.948 37.9068 88.5718C38.2193 87.9937 38.5351 87.3972 38.8083 86.7805C39.0161 86.3005 39.1576 85.786 39.3847 85.2959C39.4358 85.1878 39.4744 85.0747 39.5338 84.97C39.7785 84.593 39.9754 84.5477 40.3281 84.6927C40.4044 84.7228 40.4789 84.7438 40.5392 84.7739C40.7219 84.8611 40.8953 85.1987 40.8249 85.4911C40.6272 86.3683 40.2611 87.1877 39.8229 88.0549C39.5028 88.6984 39.1417 89.3552 38.7203 90.0154L38.6893 89.9978Z" fill="#231F20"/>
<path fill-rule="evenodd" clip-rule="evenodd" d="M27.382 8.90791C27.475 9.03945 27.2932 9.15926 26.9656 9.26901C26.8609 9.3042 26.5417 9.30923 26.4922 9.2732C26.3984 9.20283 26.3037 9.13245 26.2342 9.06039C26.1965 9.01431 25.9401 8.30718 25.817 8.0751C25.7055 7.84804 25.6469 7.61931 25.5983 7.38974C25.5011 6.92391 25.3578 6.46728 25.2765 6.0048C25.2556 5.90258 25.2581 5.79701 25.2765 5.68893C25.3444 5.3161 25.2807 4.96001 25.1609 4.61483C25.1408 4.55701 25.1391 4.49418 25.0554 4.45145C24.9112 4.38274 24.6775 3.4318 24.7395 3.28518C24.8266 2.93999 24.8518 2.60485 24.8953 2.26301C24.9012 2.21442 24.8652 2.17253 24.9372 2.1122C25.1048 1.97061 25.0453 1.88264 25.057 1.77623C25.0671 1.63128 25.0738 1.4855 25.1232 1.3305C25.1718 1.24672 25.2715 1.1512 25.3352 1.06574C25.3938 0.986987 25.5639 0.978609 25.5958 0.992852C25.6737 1.0381 25.7533 0.965204 25.8253 0.940906C25.8505 0.932528 25.8831 0.921636 25.9066 0.919122C25.9904 0.903204 26.8374 1.52739 26.8224 1.62542C26.8257 1.63464 26.9497 1.91531 27.0812 2.21526C27.212 2.51269 27.3544 2.82437 27.3912 2.88637C27.4315 2.95172 27.4038 3.03131 27.3946 3.10672C27.403 3.13772 27.7214 4.06604 27.7205 4.10793C27.7297 4.31069 27.8311 4.50088 27.6862 4.72961C27.6585 4.77485 27.6736 4.81339 27.6828 4.85361C27.7565 5.19377 27.7314 5.55069 27.7255 5.90091C27.7222 6.0802 27.7624 6.25447 27.7632 6.43293C27.7641 6.46477 27.7398 6.49912 27.7297 6.53264C27.7172 6.57453 27.6962 6.61726 27.6987 6.65747C27.7281 7.07555 27.6476 7.50118 27.7105 7.91339C27.7239 8.00891 27.5462 8.47558 27.5689 8.58282C27.5798 8.64482 27.3427 8.85596 27.382 8.90791Z" fill="#231F20"/>
<path fill-rule="evenodd" clip-rule="evenodd" d="M0.254632 10.3782C0.0761722 10.3547 0.167497 10.116 0.428902 9.76658C0.511848 9.65514 0.831064 9.39039 0.899767 9.37866C1.03298 9.35436 1.16285 9.33174 1.26842 9.32922C1.33042 9.33425 1.93952 9.65766 2.1716 9.72636C2.38777 9.80512 2.56371 9.92409 2.73296 10.054L3.80958 10.8055C3.89001 10.8616 3.95704 10.9362 4.01736 11.025C4.21844 11.335 4.50666 11.5319 4.8242 11.6844C4.87698 11.7095 4.92139 11.7523 5.00685 11.7213C5.14174 11.6727 5.96617 12.1628 6.04996 12.2751C6.24936 12.5515 6.47977 12.7845 6.69928 13.0383C6.73112 13.0744 6.78725 13.076 6.78055 13.1699C6.76463 13.3869 6.86517 13.4087 6.94309 13.4707C7.05033 13.5578 7.15339 13.655 7.23717 13.7815C7.27906 13.8435 7.27906 13.9734 7.28996 14.084C7.30085 14.1845 7.12155 14.4191 7.0872 14.4358C6.98666 14.4836 6.95817 14.6277 6.90036 14.7358C6.88109 14.7718 6.85512 14.8187 6.83585 14.8464C6.79144 14.905 5.86814 14.9494 5.79609 14.905C5.78771 14.9008 5.51877 14.7919 5.23223 14.6738C4.94569 14.559 4.64406 14.44 4.57704 14.4224C4.5075 14.4048 4.47147 14.3303 4.42623 14.2708C4.40696 14.249 3.5155 13.9055 3.4845 13.8778C3.32866 13.758 3.1192 13.7128 3.04798 13.4614C3.03458 13.412 2.9952 13.3978 2.96085 13.3802C2.65755 13.2176 2.41039 12.9696 2.15652 12.7334C2.02498 12.6144 1.86915 12.5256 1.72755 12.4183C1.70242 12.3991 1.6932 12.3588 1.67477 12.3304C1.65131 12.2952 1.63623 12.2474 1.60439 12.224C1.26925 11.9667 1.01539 11.6165 0.662659 11.371C0.576361 11.3166 0.397064 10.8348 0.304064 10.772C0.247929 10.736 0.324172 10.3874 0.254632 10.3782Z" fill="#231F20"/>
</svg>
