<svg width="95" height="89" viewBox="0 0 95 89" fill="none" xmlns="http://www.w3.org/2000/svg">
<path fill-rule="evenodd" clip-rule="evenodd" d="M31.4265 48.1295C30.9565 50.6405 31.8136 53.4021 33.7423 55.0928C34.4285 55.7421 35.3091 56.1468 36.1863 56.5029C37.7572 57.0902 39.5385 57.2854 41.2209 56.9143C42.9007 56.5557 44.4809 55.6969 45.6413 54.4041C46.6584 53.2337 47.3354 51.7565 47.5314 50.2342C47.7962 48.2661 47.3161 46.3014 46.4406 44.5813C46.1683 44.0518 46.5989 43.7636 47.3496 43.9755C48.0886 44.1716 49.1401 45.043 49.4828 46.4547C50.1003 48.9104 49.7316 51.5622 48.5268 53.759C47.937 54.8683 47.115 55.8201 46.1725 56.6545C45.1805 57.4212 44.093 58.0596 42.9108 58.4107C40.1325 59.2602 36.9378 59.2477 34.2827 57.8258C32.8391 57.0626 31.5832 55.9105 30.7353 54.508C29.8975 53.1021 29.3956 51.5253 29.3403 49.9141C29.2414 47.9327 29.7751 45.9696 30.7186 44.2788C32.1596 41.7218 34.6296 39.7269 37.5168 39.07C39.7421 38.5405 42.1827 38.9016 44.16 40.0972C44.5789 40.372 45.0255 40.6116 45.4008 40.951C46.8277 42.1801 47.0162 42.8068 46.8402 43.4167C46.7975 43.5583 46.7699 43.7192 46.702 43.8306C46.5872 44.0183 46.3501 44.025 46.0409 43.8842C45.7326 43.7426 45.3614 43.4444 44.9031 43.0724C44.5839 42.7716 44.2119 42.5445 43.8743 42.2781C43.5048 42.0611 43.1563 41.8106 42.7709 41.6397C42.0193 41.2651 41.2334 40.9828 40.4232 40.8797C38.8104 40.651 37.1255 41.0373 35.6702 41.9312C33.5027 43.2408 31.8597 45.5951 31.4768 48.1337L31.4265 48.1295Z" fill="#231F20"/>
<path fill-rule="evenodd" clip-rule="evenodd" d="M21.8613 47.8452C21.5405 50.4048 21.8463 53.0222 22.6673 55.4762C23.4499 57.942 24.8826 60.1614 26.7468 61.9494C28.1242 63.2405 29.7412 64.2727 31.4755 65.041C37.5599 67.8335 45.3183 67.1934 50.7031 62.9782C53.0892 61.135 54.9258 58.5628 56.0342 55.7854C57.4703 52.1902 57.6454 48.2088 56.924 44.4453C56.681 43.2815 57.208 43.2413 57.9772 44.1562C58.7162 45.0577 59.6453 47.0669 59.5322 49.5653C59.4015 53.9539 57.7443 58.2788 54.9409 61.6452C52.1542 65.0712 48.0924 67.3576 43.8345 68.172C38.7622 69.1833 33.1026 68.5013 28.5322 65.7389C26.0413 64.2308 23.8789 62.1278 22.4051 59.6068C21.6686 58.3517 21.0537 57.0162 20.6523 55.6279C20.3985 54.9492 20.2921 54.227 20.1136 53.5283C19.9955 52.8161 19.8799 52.0998 19.8237 51.3809C19.6595 49.608 19.8053 47.8209 20.1212 46.0832C20.437 44.3414 20.9925 42.6498 21.7474 41.0587C22.855 38.629 24.4486 36.4347 26.3471 34.5705C28.2339 32.6912 30.4911 31.1982 32.9334 30.1677C36.7187 28.5607 41.0612 28.2256 45.0175 29.5418C45.8997 29.7948 46.7099 30.1744 47.5495 30.5573C50.5439 32.2112 51.1614 33.2107 51.3583 34.0351C51.3976 34.2312 51.4747 34.4582 51.4605 34.6082C51.4362 34.8604 51.1145 34.8328 50.5791 34.5747C50.3118 34.4448 49.9909 34.2572 49.6256 34.015C49.2452 33.7938 48.8029 33.5433 48.3278 33.235C46.8792 32.3871 45.3443 31.6783 43.723 31.2426C42.0993 30.8262 40.4128 30.6595 38.7304 30.7785C35.3648 31.0089 32.0444 32.3888 29.329 34.5739C25.3065 37.8071 22.4252 42.6649 21.9125 47.8444L21.8613 47.8452Z" fill="#231F20"/>
<path fill-rule="evenodd" clip-rule="evenodd" d="M12.1122 45.8459C11.5198 49.8843 11.7008 54.0659 12.8905 57.9954C13.4846 59.9626 14.2512 61.8653 15.265 63.6424C16.2653 65.4262 17.5305 67.0532 18.9498 68.5245C21.0176 70.6911 23.5436 72.3811 26.2231 73.7141C30.9627 76.0809 36.3961 77.026 41.708 76.6431C47.0266 76.2594 52.2538 74.3952 56.5519 71.219C60.3641 68.398 63.3393 64.445 65.1968 60.126C67.6131 54.5535 68.0555 48.2572 66.9034 42.3429C66.5088 40.5114 67.0593 40.5675 67.9574 42.0572C68.817 43.5326 69.9054 46.6217 69.6725 50.3895C69.5217 53.709 68.7483 56.9824 67.5368 60.0707C66.2868 63.1456 64.5349 66.016 62.3825 68.5379C60.1932 71.0472 57.5775 73.1887 54.671 74.7982C51.7528 76.3809 48.5967 77.5287 45.3341 78.0725C43.3904 78.4319 41.3971 78.5953 39.3947 78.5978C37.3939 78.6012 35.3764 78.452 33.3899 78.0792C31.4017 77.7164 29.4395 77.1802 27.5435 76.4571C25.6575 75.7115 23.8436 74.784 22.1512 73.6797C18.4136 71.2676 15.3236 67.8693 13.2148 63.9641C11.0951 60.0506 10.0084 55.6612 9.82573 51.2541C9.74865 48.5446 9.95811 45.8115 10.615 43.1807C11.2517 40.5491 12.2043 38.0029 13.4301 35.5975C15.3387 31.9805 17.8891 28.7021 20.9237 25.9657C23.9969 23.2787 27.5435 21.1179 31.3892 19.7858C34.3786 18.7619 37.5238 18.2291 40.6691 18.3103C43.8126 18.3866 46.9361 19.0786 49.8409 20.3052C50.1618 20.4393 50.4919 20.5491 50.801 20.6999L51.721 21.1682C52.3242 21.4975 52.9719 21.7622 53.5458 22.1627C55.761 23.5242 57.0111 24.7005 57.8866 25.5082C58.6826 26.4022 59.0579 26.9987 59.2615 27.5651C59.3537 27.8232 59.5011 28.134 59.5154 28.3175C59.5397 28.6283 59.1191 28.4867 58.365 27.9748C57.9872 27.7184 57.5263 27.3691 56.9935 26.9351C56.4514 26.5111 55.782 26.0712 55.0732 25.5266C52.9065 24.0102 50.5932 22.6261 48.0571 21.7681C45.5428 20.8741 42.8835 20.3597 40.1898 20.3228C34.7858 20.2039 29.375 22.1627 24.8917 25.3666C21.5253 27.7235 18.6993 30.8427 16.4815 34.3248C14.3023 37.832 12.79 41.7715 12.1633 45.8434L12.1122 45.8459Z" fill="#231F20"/>
<path fill-rule="evenodd" clip-rule="evenodd" d="M3.69146 45.3579C3.00862 50.5165 3.29097 55.8418 4.8326 60.842C5.59587 63.3454 6.582 65.7668 7.86389 68.039C9.15249 70.3062 10.7402 72.3958 12.534 74.2884C13.8209 75.696 15.3139 76.8966 16.8271 78.0512C18.3888 79.1437 19.9975 80.1768 21.71 81.023C33.6928 87.2096 49.1299 86.5577 60.4508 78.9644C65.4753 75.6256 69.4894 70.8164 72.1839 65.4844C75.6282 58.5924 76.7936 50.674 75.8461 43.0647C75.5067 40.7054 76.063 40.8755 76.9168 42.8528C77.3248 43.8448 77.7488 45.3068 78.0186 47.1241C78.249 48.938 78.3579 51.1105 78.0605 53.4347C77.0584 61.6731 73.3493 69.5521 67.6042 75.5569C64.7464 78.5865 61.3029 81.0314 57.6088 82.9131C53.9039 84.7974 49.8764 85.9813 45.7903 86.6155C43.3379 86.9574 40.8412 87.1241 38.3302 87.0805C35.8192 87.0026 33.3023 86.727 30.8156 86.2385C25.8598 85.213 21.0138 83.3195 16.8304 80.4491C14.5297 78.8848 12.3874 77.0709 10.5173 75.0023C8.65397 72.9295 7.04533 70.633 5.72573 68.184C3.07481 63.2767 1.684 57.7797 1.40416 52.2516C1.03468 45.4266 2.67014 38.6024 5.61765 32.508C7.91668 27.9099 11.0267 23.7207 14.7358 20.17C18.4676 16.6427 22.8511 13.8192 27.5832 11.9047C31.2756 10.4485 35.1791 9.5906 39.1186 9.45822C43.0564 9.32082 47.0161 9.9249 50.7545 11.2194C51.1684 11.3584 51.5789 11.4967 51.9895 11.6349C52.3983 11.7765 52.7821 11.9768 53.18 12.1443C53.9634 12.5071 54.7719 12.8288 55.5469 13.2419C61.2417 16.4349 62.5026 18.2413 63.2215 19.4704C63.3765 19.7653 63.6052 20.1231 63.6589 20.33C63.7477 20.6794 63.2416 20.4951 62.2789 19.8692C61.798 19.5567 61.2023 19.1327 60.5078 18.6083C59.7813 18.1273 58.9385 17.5685 57.9909 16.941C55.1372 15.1706 52.0892 13.6131 48.8032 12.6906C45.5289 11.7614 42.0938 11.3341 38.6528 11.4967C35.2126 11.655 31.7766 12.3932 28.5141 13.6474C25.2582 14.9226 22.1792 16.6938 19.3825 18.8403L18.5966 19.4293C18.3402 19.6329 18.0998 19.8575 17.8509 20.0703L16.3663 21.3631L14.9746 22.7581C14.5046 23.2172 14.0471 23.6889 13.6316 24.2L12.3447 25.6955C11.9391 26.2133 11.5571 26.7504 11.1608 27.2757C10.3372 28.3062 9.69792 29.4633 8.969 30.56C7.68041 32.8523 6.46219 35.2058 5.63022 37.7068C5.13841 38.9317 4.84349 40.2161 4.47987 41.4804C4.29387 42.1121 4.21511 42.7681 4.07603 43.4099C3.96795 44.0576 3.78697 44.6952 3.74257 45.352L3.69146 45.3579Z" fill="#231F20"/>
<path fill-rule="evenodd" clip-rule="evenodd" d="M60.847 36.367C59.0767 37.457 57.3097 38.5579 55.5586 39.6832C54.9202 40.0945 54.3278 40.5696 53.6869 40.9751L46.8945 45.2715C45.895 45.915 44.9373 46.6272 43.999 47.3393C42.7992 48.2568 41.6455 49.2689 40.2899 49.9484C39.8818 50.1511 39.5635 49.6777 39.5459 48.9823C39.5333 48.2869 39.783 47.3854 40.4666 46.8375C42.8972 44.9071 45.394 43.0764 48.1228 41.5222C49.7591 40.5998 51.2664 39.3673 52.849 38.2957C54.5901 37.1185 56.352 35.9715 58.1115 34.8195L61.3657 32.7031C63.0003 31.6232 64.6768 30.5876 66.2679 29.4666C67.5129 28.6028 68.6448 27.6233 69.8546 26.7185C70.1211 26.5191 70.3615 26.2962 70.6439 26.1119C71.7004 25.4466 72.1461 25.4156 72.7502 25.9217C72.8885 26.0365 73.0409 26.1412 73.1566 26.2694C73.5445 26.7025 73.3618 27.3745 72.71 27.9995C70.7612 29.8386 68.499 31.4556 66.1548 33.0031C64.4045 34.14 62.6451 35.2837 60.8898 36.4231L60.847 36.367Z" fill="#231F20"/>
<path fill-rule="evenodd" clip-rule="evenodd" d="M75.4473 33.6274C71.9837 34.6244 65.4955 31.4565 65.4955 31.4565C65.4955 31.4565 64.3007 23.4954 67.4971 20.8185C67.9478 20.4415 71.2188 17.8526 73.3594 17.101C74.1847 16.812 72.0809 25.3755 73.1114 26.1589C73.1114 26.1589 80.7106 27.166 82.0185 28.5568L75.4473 33.6274Z" fill="#231F20"/>
<path fill-rule="evenodd" clip-rule="evenodd" d="M71.7723 22.1471C71.9667 20.8518 72.2876 18.8368 72.2717 19.1066C72.2792 19.0446 72.3119 18.9574 72.2759 18.8996C72.2222 18.9021 72.1644 18.9206 72.1033 18.9407C72.0413 18.9616 71.9751 18.9884 71.9055 19.0203C71.8754 19.0362 71.9005 19.0186 71.8268 19.0597L71.6089 19.1853L71.1741 19.4467C70.3304 19.9679 69.5344 20.5854 68.7268 21.1735L68.2073 21.5614C68.0607 21.6838 67.9585 21.8011 67.8261 21.9175C67.6879 22.0172 67.6049 22.1974 67.4884 22.3348C67.3711 22.4713 67.2773 22.6372 67.1919 22.8132C66.8157 23.4843 66.5635 24.2869 66.3984 25.1181C66.0499 26.7812 66.0088 28.5683 66.1077 30.3227L66.1337 30.714L66.1596 30.9729L66.3632 31.0709L66.6355 31.1899C66.9162 31.313 67.2002 31.4261 67.4843 31.5376C68.0548 31.7579 68.6304 31.9582 69.2069 32.1366C71.1104 32.7005 73.1103 33.075 74.8748 33.008C75.3976 32.972 75.5593 33.4663 75.0885 34.0787C74.6293 34.6987 73.4011 35.2542 72.11 35.049C70.8063 34.8571 69.5822 34.5144 68.395 34.103C67.8001 33.9011 67.2212 33.6682 66.6439 33.4277L65.7876 33.0474L65.0797 32.7131L64.3013 32.3293C64.2452 31.8979 64.1957 31.4689 64.1547 31.0382L64.1287 30.7458L64.1195 30.569L64.1011 30.2163C64.0835 29.7463 64.081 29.2746 64.0868 28.8046C64.1053 27.862 64.1857 26.9144 64.3357 25.9685C64.5594 24.6489 64.8325 23.2799 65.4944 21.9469C65.8044 21.2774 66.2996 20.649 66.8877 20.1044C67.4298 19.6596 67.9442 19.2758 68.4888 18.8913C69.0837 18.474 69.6894 18.071 70.3161 17.689L70.7912 17.4066C70.9638 17.3094 71.2738 17.1226 71.5084 17.0111C72.0061 16.7615 72.5322 16.485 72.9729 16.3945C73.1908 16.356 73.4153 16.3082 73.5711 16.3493C73.6583 16.3627 73.7421 16.3576 73.8317 16.3853C73.9306 16.4238 74.011 16.5202 74.0554 16.5939C74.2515 16.9006 74.3378 17.3136 74.3369 17.8373C74.3344 18.3584 74.2506 18.9298 74.1803 19.4769L74.0152 20.5736C73.882 21.4383 73.7446 22.2962 73.6407 23.1475C73.5879 23.5723 73.5435 23.9962 73.5175 24.4101C73.5058 24.6003 73.4999 24.8592 73.4999 24.9798C73.5016 25.0913 73.5024 25.2052 73.5242 25.3175C73.5435 25.4398 73.5963 25.6074 73.7513 25.5864L75.2209 25.8478L77.0021 26.2022C77.5944 26.3279 78.1851 26.4661 78.775 26.6111C79.3883 26.7837 79.8625 26.87 80.743 27.2051L81.2491 27.3945L81.689 27.6291C81.9981 27.7799 82.2386 27.965 82.5151 28.1485C82.6458 28.2541 82.7991 28.3597 82.9139 28.4661L82.6064 28.7953L81.9872 29.4673L81.1159 30.1878L80.3945 30.7944L79.2416 31.7764C78.9015 32.0637 78.5806 32.3595 78.2312 32.641C76.9367 33.6841 76.4349 33.8994 75.8241 33.6925C75.685 33.6456 75.5258 33.6146 75.4136 33.5459C75.034 33.3146 75.3608 32.6293 76.2497 31.7889C76.9083 31.1664 77.5894 30.5506 78.2873 29.9423L79.3455 29.0333L79.4687 28.9286L79.4754 28.9143L79.4854 28.8883C79.4905 28.8741 79.493 28.8624 79.493 28.8523C79.5114 28.8138 79.4126 28.8154 79.4067 28.8213L79.4008 28.8238C79.4008 28.8238 79.4008 28.8247 79.3966 28.8247C79.3966 28.8247 79.4008 28.8272 79.3279 28.8054C79.1185 28.7426 78.904 28.6822 78.6828 28.6278C78.248 28.5121 77.798 28.4099 77.3481 28.3094C76.6619 28.1569 75.9623 28.0229 75.2627 27.8905L74.2071 27.7045L73.5628 27.5989L72.4861 27.4414C72.3856 27.3224 72.2775 27.2403 72.1879 27.123C72.0806 27.0082 71.9784 26.8934 71.8804 26.7753C71.7313 26.5047 71.6047 26.2123 71.5645 25.8763C71.4958 25.5705 71.4933 25.1667 71.4849 24.9053C71.4841 24.7 71.4933 24.5098 71.5017 24.3163C71.5461 23.5605 71.6307 22.8475 71.722 22.1446L71.7723 22.1471Z" fill="#231F20"/>
<path fill-rule="evenodd" clip-rule="evenodd" d="M6.1359 68.5437C8.81112 73.6671 12.919 78.0306 17.879 81.092C19.6754 82.2374 21.6367 83.0861 23.5939 83.9139C27.0877 85.2896 30.7859 86.1702 34.5445 86.5355C38.3064 86.8647 42.121 86.6704 45.8394 85.9456C49.1396 85.3022 52.3527 84.1351 55.2927 82.5767C57.1937 81.5906 58.9582 80.3673 60.659 79.0796C62.3071 77.7248 63.9375 76.3407 65.4054 74.784C66.3454 73.8456 66.6404 74.293 66.2382 75.4903C66.0262 76.0784 65.6877 76.9054 65.0644 77.7256C64.7628 78.1445 64.4151 78.5861 64.0246 79.036C63.6116 79.4599 63.1483 79.8856 62.6489 80.307C55.4519 86.1836 46.0337 89.0356 36.8326 88.5773C31.3372 88.2941 25.6315 87.1505 20.5149 84.7484C14.9081 82.115 9.96231 78.0222 6.46433 72.9131C5.88455 72.1557 5.45055 71.3019 4.93779 70.5018C4.46106 69.6799 4.0589 68.8152 3.61736 67.9749C3.24955 67.1002 2.86247 66.2313 2.5223 65.3474C2.2232 64.4484 1.89728 63.5586 1.62163 62.6546C0.0247096 57.1433 -0.335561 51.2659 0.563439 45.6574C0.85752 43.4664 1.40714 41.345 1.99698 39.242C2.67898 37.1701 3.41209 35.1073 4.40325 33.1493C4.80625 32.2696 5.24779 31.4342 5.74128 30.593C7.59876 27.488 8.50866 26.7088 9.37666 26.4223C9.57774 26.3586 9.81149 26.2522 9.96733 26.2497C10.2313 26.2447 10.212 26.584 9.95141 27.1814C9.69587 27.7846 9.15966 28.6174 8.52876 29.7192C6.59503 32.9398 4.9403 36.4336 3.8243 40.1477C2.70579 43.8577 2.0749 47.7612 2.06317 51.6814C2.08998 57.4809 3.42298 63.3776 6.17695 68.5136L6.1359 68.5437Z" fill="#231F20"/>
<path fill-rule="evenodd" clip-rule="evenodd" d="M38.6839 51.1221C38.0136 51.019 37.4439 50.3345 37.4665 49.707C37.4791 49.0861 37.8645 48.7016 38.2884 48.5734C38.5566 48.4779 39.1447 48.8289 39.2134 48.9479C39.2595 49.0811 39.3693 49.1641 39.4497 49.1473C39.4162 49.149 39.3743 49.1574 39.3399 49.1691C39.3332 49.1691 39.3223 49.1699 39.3098 49.1758C39.2587 49.2018 39.3165 49.1708 39.3056 49.1716C39.2997 49.1758 39.35 49.1372 39.3617 49.1062C39.4028 49.0551 39.4321 48.9747 39.4413 48.9169C39.4505 48.8591 39.4363 48.8616 39.4497 48.8909C39.4564 48.9169 39.4547 48.8683 39.3165 48.7854C39.2662 48.7502 39.2159 48.725 39.1673 48.7083C39.1497 48.7049 39.1146 48.6907 39.0718 48.6697L39.0567 48.658C39.0467 48.6521 39.0291 48.6262 39.0149 48.6144C39.3131 48.6345 39.5955 48.5533 39.6491 48.5055C39.7237 48.4544 39.6717 48.4737 39.6441 48.5675C39.6106 48.6622 39.6072 48.7887 39.6206 48.9135C39.6349 49.0267 39.6684 49.1649 39.7253 49.2931C39.7521 49.3635 39.7899 49.4447 39.825 49.4975C39.8192 49.5126 39.8074 49.5319 39.7974 49.5444C39.7572 49.5402 39.8602 49.6332 39.6876 49.4246C39.6298 49.3542 39.5636 49.2855 39.4974 49.2219C39.4547 49.1682 39.407 49.1163 39.355 49.0685C39.3022 49.02 39.2436 48.9739 39.1833 48.9328C39.1489 48.9001 39.1087 48.8691 39.0651 48.8415C38.9537 48.782 38.9168 48.7569 38.8548 48.7368C38.6093 48.694 38.9327 48.7686 39.2235 48.5038C39.5427 48.2676 39.7413 47.914 39.7731 47.8218C39.8141 47.7096 39.7513 47.8579 39.763 48.0556C39.763 48.2533 39.8418 48.4301 39.8418 48.4175C39.8418 48.4175 39.7253 48.2558 39.3651 48.0774C39.3466 48.0715 39.2302 48.0095 39.2503 48.0196L39.2511 48.0145C39.2545 48.0179 39.2545 47.997 39.2578 47.9802C39.2679 47.9584 39.2704 47.8964 39.2788 47.8394C39.2947 47.7163 39.2913 47.5311 39.2804 47.3401C39.2394 47.2387 39.2536 47.0971 39.2084 47.0602C39.1514 46.9371 39.1489 46.9388 39.0492 46.8684C38.952 46.8173 38.7669 46.7209 38.5071 46.6237C38.0497 46.493 37.3936 46.5575 36.9454 46.8257C36.7158 46.9505 36.5332 47.1105 36.4201 47.2664C36.2785 47.4532 36.1369 47.7205 36.0497 47.9894C35.9928 48.1721 35.9115 48.3639 35.9995 48.5801C36.0606 48.7426 35.9877 49.65 36.2718 50.4309C36.4192 50.8138 36.555 51.1347 36.7468 51.3676C36.9311 51.6415 37.0719 51.7588 37.1088 51.8334C37.3073 52.151 37.5738 52.3922 38.0337 52.5338C38.4853 52.6813 39.112 52.678 39.7798 52.5607C39.97 52.5414 40.1468 52.4082 40.3763 52.4869C40.9159 52.6704 41.3206 52.404 41.7387 52.1962C42.3394 51.9105 42.9384 51.6265 43.5618 51.3307C43.8718 51.1866 44.2606 51.1397 44.6225 51.0417C44.9534 50.9562 45.152 51.4371 45.1009 51.5536C44.9526 51.8845 45.3095 51.8996 45.4704 52.0362C45.5249 52.0839 45.5944 52.1459 45.6187 52.1995C45.6438 52.2565 45.0037 53.1915 44.1642 54.0956C43.3532 55.0264 42.2196 55.7863 41.9649 55.8902C41.9238 55.8919 41.5284 56.1273 40.8246 56.3653C40.1434 56.6191 39.1456 56.8973 37.9801 56.9007C36.8323 56.9166 35.5068 56.5923 34.6304 56.0201C33.739 55.4881 33.2036 54.9317 33.0461 54.7575C32.6724 54.3972 32.4152 53.9096 32.2124 53.4194C32.1907 53.3616 31.9259 52.9494 31.6695 52.3127C31.414 51.6759 31.1928 50.8171 31.1233 49.9432C30.9347 48.188 31.5472 46.4252 31.6251 46.3062C31.9293 45.6393 32.282 44.9807 32.7805 44.3875C33.3427 43.7491 34.0188 43.2523 34.7503 43.0386C35.0318 42.9322 35.2974 42.82 35.5613 42.6918C36.71 42.2 37.9525 42.0416 39.2427 42.2603C39.5661 42.3156 39.887 42.3809 40.2155 42.5074C40.5389 42.6046 40.8614 42.7672 41.1765 42.9481C41.4923 43.1065 41.7856 43.378 42.0704 43.6084C42.3302 43.884 42.6 44.1697 42.796 44.4898C42.987 44.8241 43.1982 45.1617 43.2987 45.5102C43.4286 45.8605 43.5316 46.2107 43.5677 46.5441L43.6397 47.0535C43.6531 47.2127 43.6531 47.3535 43.6581 47.5051C43.6682 47.8001 43.6481 48.1226 43.6037 48.4536C43.5685 48.6957 43.4789 48.9311 43.38 49.1858C43.2652 49.4992 43.0951 49.8192 42.8982 50.1544C42.6502 50.5875 42.2791 51.0266 41.7981 51.3391C41.3239 51.6558 40.7777 51.8435 40.2574 51.9071C39.2067 52.0186 38.2985 51.7588 37.4623 51.1874C37.0526 50.8841 36.6287 50.482 36.3329 49.8134C36.0179 49.1632 36.038 48.1469 36.4008 47.5035C36.7435 46.85 37.1657 46.5215 37.5319 46.2501C37.8645 46.0138 38.3261 45.7582 38.859 45.6242C39.0961 45.5614 39.6307 45.4759 40.3319 45.6661C41.0248 45.8311 41.8769 46.4838 42.1777 47.3049C42.507 48.1251 42.3997 48.8448 42.2623 49.3392C42.1132 49.8645 41.8593 50.3044 41.6834 50.539C41.5141 50.8188 40.864 51.2628 40.1895 51.324C39.5159 51.4086 38.9428 51.1866 38.6839 51.1221Z" fill="#231F20"/>
<path fill-rule="evenodd" clip-rule="evenodd" d="M75.8589 8.71595C75.9502 8.85 75.7734 8.96143 75.4408 9.06114C75.3352 9.09214 75.0127 9.08711 74.9666 9.04857C74.8769 8.97484 74.7898 8.89943 74.7261 8.82319C74.6892 8.77627 74.5141 8.03897 74.4371 7.78846C74.3633 7.54633 74.3424 7.30335 74.3332 7.06038L74.2519 5.57992C74.2469 5.47016 74.2594 5.36041 74.2896 5.25149C74.3952 4.87614 74.3826 4.49995 74.3499 4.12376C74.3449 4.06092 74.355 3.99724 74.2955 3.93692C74.1974 3.83722 74.1932 2.81673 74.2393 2.68519C74.3541 2.3576 74.4245 2.02916 74.515 1.69989C74.5284 1.65381 74.5049 1.60354 74.5761 1.56081C74.7404 1.46195 74.7127 1.36057 74.7253 1.25919C74.742 1.11843 74.768 0.977677 74.8233 0.836921C74.8501 0.76738 74.944 0.698677 75.0194 0.630812C75.0881 0.567975 75.3352 0.601488 75.362 0.623272C75.44 0.686948 75.5564 0.635839 75.6595 0.629975C75.6947 0.627461 75.7391 0.624948 75.7675 0.628299C75.8304 0.635002 76.2577 1.44352 76.2543 1.53233C76.2552 1.54154 76.2887 1.84065 76.3247 2.15819C76.3624 2.47322 76.4026 2.80165 76.4194 2.86868C76.4361 2.93906 76.3976 3.00943 76.3741 3.07981C76.3641 3.11333 76.5048 4.05757 76.5007 4.09527C76.4856 4.29133 76.54 4.48738 76.3901 4.6826C76.3607 4.7203 76.3674 4.76052 76.37 4.79906C76.385 5.13587 76.3205 5.47184 76.2778 5.80865C76.2552 5.98041 76.2711 6.15216 76.2652 6.32476C76.2635 6.35492 76.2426 6.38592 76.2325 6.41692C76.22 6.4563 76.1999 6.49568 76.2007 6.53422C76.2074 6.94141 76.1236 7.34776 76.1756 7.75495C76.1865 7.84879 76.0197 8.29619 76.0398 8.40427C76.0499 8.4646 75.822 8.66233 75.8589 8.71595Z" fill="#231F20"/>
<path fill-rule="evenodd" clip-rule="evenodd" d="M84.9834 18.8122C84.944 18.9906 84.7237 18.927 84.3735 18.741C84.262 18.6806 84.009 18.4201 84.0082 18.3497C84.0065 18.214 84.0099 18.0774 84.035 17.9584C84.0442 17.8696 84.6483 17.1357 84.8544 16.8818C85.0521 16.6388 85.2876 16.4411 85.5322 16.2635C86.0299 15.8999 86.5242 15.5404 87.0353 15.2045C87.1484 15.129 87.2732 15.0729 87.4064 15.0319C87.8631 14.8911 88.2636 14.6632 88.6498 14.4026C88.7151 14.3599 88.7889 14.3306 88.8249 14.2393C88.876 14.0809 90.0029 13.481 90.1797 13.4601C90.5978 13.3796 91.0175 13.3093 91.4507 13.2665C91.5119 13.2607 91.5638 13.2179 91.6409 13.2682C91.8168 13.383 91.9308 13.3202 92.0581 13.295C92.2349 13.259 92.4176 13.2439 92.6111 13.2598C92.7066 13.2665 92.8139 13.3319 92.9127 13.378C93.0032 13.4199 93.0116 13.641 92.9931 13.672C92.937 13.76 93.0208 13.8446 93.0484 13.9309C93.0577 13.9603 93.0702 13.9988 93.0727 14.0239C93.0593 14.0591 92.3656 14.8098 92.2835 14.8559C92.2718 14.866 91.9794 15.0277 91.6794 15.2355C91.377 15.4298 91.0485 15.6158 90.989 15.6678C90.9245 15.7172 90.8324 15.7122 90.7494 15.7256C90.7075 15.7281 89.8052 16.3489 89.7675 16.3707C89.5572 16.4562 89.3938 16.6271 89.1198 16.6028C89.067 16.5978 89.0302 16.6279 88.9925 16.6522C88.6666 16.8692 88.2987 17.0133 87.9469 17.1876C87.765 17.2748 87.6075 17.3988 87.44 17.506C87.4098 17.5244 87.3671 17.5253 87.331 17.537C87.2866 17.5512 87.2364 17.5579 87.1995 17.5839C86.8149 17.8554 86.3801 18.0581 86.0441 18.3874C85.9712 18.4628 85.4543 18.6337 85.3814 18.7343C85.3395 18.7862 84.9993 18.7385 84.9834 18.8122Z" fill="#231F20"/>
<path fill-rule="evenodd" clip-rule="evenodd" d="M86.4312 30.1303C86.2527 30.1127 86.2913 29.8739 86.4655 29.5221C86.5208 29.4106 86.7714 29.1408 86.835 29.1249C86.9615 29.0964 87.0855 29.0671 87.1903 29.0596C87.2514 29.0646 87.946 29.3352 88.2015 29.3754C88.442 29.4299 88.6506 29.5237 88.8567 29.6243C89.2807 29.8187 89.6979 30.0214 90.1386 30.1915C90.2367 30.23 90.3213 30.2929 90.4051 30.3666C90.6874 30.628 91.0334 30.7654 91.3987 30.845C91.4599 30.8576 91.516 30.8894 91.5965 30.84C91.7221 30.7671 92.6991 31.0436 92.8138 31.1315C93.0962 31.346 93.3928 31.5304 93.6852 31.744C93.7271 31.7733 93.7841 31.7624 93.8033 31.8579C93.8494 32.0791 93.9592 32.0766 94.0564 32.121C94.1921 32.1797 94.3245 32.2551 94.4418 32.3858C94.5004 32.4461 94.5398 32.5743 94.5867 32.6757C94.6294 32.7687 94.5306 33.0008 94.5004 33.0234C94.415 33.0862 94.4351 33.2186 94.4133 33.3225C94.4057 33.3585 94.3957 33.4046 94.3856 33.4322C94.3739 33.4599 94.1251 33.5655 93.8637 33.6761C93.6098 33.754 93.345 33.8235 93.3006 33.8118C93.2897 33.8101 92.9697 33.7774 92.6287 33.7431C92.2986 33.6928 91.9525 33.6417 91.8646 33.6283C91.7867 33.6249 91.7272 33.5554 91.6635 33.5051C91.635 33.4909 90.6028 33.3049 90.5634 33.2789C90.3674 33.1851 90.1353 33.1692 89.9962 32.9287C89.9694 32.8809 89.925 32.8734 89.8831 32.8608C89.5245 32.7419 89.2053 32.5249 88.8835 32.3204C88.7193 32.2149 88.5375 32.1437 88.3658 32.0532C88.3339 32.0364 88.3155 31.9979 88.2904 31.9702C88.2585 31.9359 88.2309 31.8931 88.1923 31.873C87.786 31.6527 87.4525 31.3175 87.047 31.0947C86.9481 31.0469 86.6691 30.5752 86.5636 30.5174C86.5007 30.4856 86.5016 30.1354 86.4312 30.1303Z" fill="#231F20"/>
</svg>
