<svg width="60" height="60" viewBox="0 0 60 60" fill="none" xmlns="http://www.w3.org/2000/svg">
<path d="M30 0C13.4351 0 0 13.4318 0 30C0 46.5682 13.4351 60 30 60C46.5714 60 60 46.5682 60 30C60 13.4318 46.5714 0 30 0ZM29.9331 8.41959L29.9396 3.07265H29.9429C37.1625 3.07265 43.8971 5.8498 48.9731 10.8882L41.4416 18.4784C38.4 15.4563 34.3592 13.7845 30.0735 13.7649H29.9331V8.41959ZM3.07429 30.0441V30C3.07429 22.8327 5.85469 16.0882 10.9094 11.009L18.4898 18.5502C15.4449 21.6114 13.7665 25.6784 13.7665 30L3.07429 30.0441ZM30.2678 56.929H30C22.8245 56.929 16.0718 54.1388 10.9878 49.0727L18.5388 41.4971C21.5739 44.5241 25.5984 46.2025 29.8808 46.2335H30.0212V51.5788L30.5306 56.8996L30.2678 56.929ZM30 43.1445C22.7445 43.1445 16.8555 37.2588 16.8555 30C16.8555 22.7396 22.7412 16.8555 30 16.8555C37.2604 16.8555 43.1445 22.7412 43.1445 30C43.1445 37.2604 37.2604 43.1445 30 43.1445ZM49.0531 49.0318L41.489 41.4727C44.5502 38.4082 46.2302 34.3347 46.2302 30.0016L56.929 29.9102V30.0016C56.929 37.1869 54.1322 43.9461 49.0531 49.0318Z" fill="#29BAEF"/>
</svg>
