<svg width="55" height="55" viewBox="0 0 55 55" fill="none" xmlns="http://www.w3.org/2000/svg">
<path fill-rule="evenodd" clip-rule="evenodd" d="M48.4799 6.52019C47.601 5.64142 46.1766 5.64142 45.2978 6.52019L20.5139 31.3042V34.4861H23.6958L48.4798 9.70208C49.3585 8.82341 49.3586 7.39886 48.4799 6.52019ZM41.1535 2.37563C44.3212 -0.791878 49.4565 -0.791878 52.6242 2.37563C55.7919 5.54322 55.7919 10.6789 52.6242 13.8465C52.6242 13.8465 52.6242 13.8465 52.6242 13.8465L26.9819 39.4889C26.4323 40.0385 25.6869 40.3472 24.9097 40.3472H17.5833C15.9648 40.3472 14.6528 39.0352 14.6528 37.4167V30.0903C14.6528 29.313 14.9615 28.5676 15.5111 28.0181L41.1535 2.37563ZM0 11.0417C0 6.18616 3.93616 2.24999 8.79165 2.24999H26.375C27.9935 2.24999 29.3055 3.56205 29.3055 5.18055C29.3055 6.79905 27.9935 8.11111 26.375 8.11111H8.79165C7.17315 8.11111 5.8611 9.42316 5.8611 11.0417V46.2083C5.8611 47.8269 7.17313 49.1389 8.79165 49.1389H43.9583C45.5769 49.1389 46.8888 47.8269 46.8888 46.2083V28.625C46.8888 27.0065 48.2009 25.6944 49.8194 25.6944C51.4379 25.6944 52.7499 27.0065 52.7499 28.625V46.2083C52.7499 51.0639 48.8139 55 43.9583 55H8.79165C3.93618 55 0 51.064 0 46.2083V11.0417Z" fill="#29BAEF"/>
</svg>
